%
M48
M72
T01C0.0400
%
T01
X1206Y1706
X1206Y2706
X1206Y3706
X1206Y4706
X1206Y5706
X1206Y6706
X1206Y7706
X1206Y8706
X1206Y9706
X1206Y10706
X1206Y11706
X1206Y12706
X1206Y13706
X1206Y14706
X1206Y15706
X1206Y16706
X1206Y17706
X1206Y18706
X1206Y19706
X1206Y20706
X2206Y20706
X2206Y19706
X2206Y18706
X2206Y17706
X2206Y16706
X2206Y15706
X2206Y14706
X2206Y13706
X2206Y12706
X2206Y11706
X2206Y10706
X2206Y9706
X2206Y8706
X2206Y7706
X2206Y6706
X2206Y5706
X2206Y4706
X2206Y3706
X2206Y2706
X2206Y1706
X3406Y2706
X4406Y2706
X5406Y2706
X8506Y2806
X8506Y1806
X9506Y1806
X9506Y2806
X10506Y2806
X10506Y1806
X11506Y1806
X11506Y2806
X12506Y2806
X12506Y1806
X15806Y6406
X15806Y7406
X15806Y8406
X15806Y9406
X15806Y10406
X16806Y10406
X16806Y9406
X16806Y8406
X16806Y7406
X16806Y6406
X16806Y15006
X16806Y16006
X16806Y17006
X16806Y18006
X16806Y19006
X15806Y19006
X15806Y18006
X15806Y17006
X15806Y16006
X15806Y15006
X12506Y22606
X12506Y23606
X11506Y23606
X11506Y22606
X10506Y22606
X10506Y23606
X9506Y23606
X9506Y22606
X8506Y22606
X8506Y23606
M30
