G75*
G70*
%OFA0B0*%
%FSLAX24Y24*%
%IPPOS*%
%LPD*%
%AMOC8*
5,1,8,0,0,1.08239X$1,22.5*
%
%ADD10C,0.0000*%
%ADD11C,0.0110*%
%ADD12C,0.0060*%
%ADD13R,0.0320X0.0010*%
%ADD14R,0.0340X0.0010*%
%ADD15R,0.0120X0.0010*%
%ADD16R,0.0420X0.0010*%
%ADD17R,0.0560X0.0010*%
%ADD18R,0.0680X0.0010*%
%ADD19R,0.0780X0.0010*%
%ADD20R,0.0880X0.0010*%
%ADD21R,0.0960X0.0010*%
%ADD22R,0.1020X0.0010*%
%ADD23R,0.1100X0.0010*%
%ADD24R,0.1160X0.0010*%
%ADD25R,0.1220X0.0010*%
%ADD26R,0.1290X0.0010*%
%ADD27R,0.1360X0.0010*%
%ADD28R,0.1410X0.0010*%
%ADD29R,0.1450X0.0010*%
%ADD30R,0.1500X0.0010*%
%ADD31R,0.1530X0.0010*%
%ADD32R,0.1570X0.0010*%
%ADD33R,0.1630X0.0010*%
%ADD34R,0.1670X0.0010*%
%ADD35R,0.1710X0.0010*%
%ADD36R,0.1750X0.0010*%
%ADD37R,0.1790X0.0010*%
%ADD38R,0.1820X0.0010*%
%ADD39R,0.1860X0.0010*%
%ADD40R,0.1890X0.0010*%
%ADD41R,0.1930X0.0010*%
%ADD42R,0.1950X0.0010*%
%ADD43R,0.1990X0.0010*%
%ADD44R,0.2030X0.0010*%
%ADD45R,0.2050X0.0010*%
%ADD46R,0.2090X0.0010*%
%ADD47R,0.2120X0.0010*%
%ADD48R,0.0910X0.0010*%
%ADD49R,0.0860X0.0010*%
%ADD50R,0.0790X0.0010*%
%ADD51R,0.0760X0.0010*%
%ADD52R,0.0770X0.0010*%
%ADD53R,0.0740X0.0010*%
%ADD54R,0.0710X0.0010*%
%ADD55R,0.0720X0.0010*%
%ADD56R,0.0690X0.0010*%
%ADD57R,0.0670X0.0010*%
%ADD58R,0.0650X0.0010*%
%ADD59R,0.0630X0.0010*%
%ADD60R,0.0610X0.0010*%
%ADD61R,0.0050X0.0010*%
%ADD62R,0.0620X0.0010*%
%ADD63R,0.0600X0.0010*%
%ADD64R,0.0090X0.0010*%
%ADD65R,0.0080X0.0010*%
%ADD66R,0.0110X0.0010*%
%ADD67R,0.0590X0.0010*%
%ADD68R,0.0580X0.0010*%
%ADD69R,0.0150X0.0010*%
%ADD70R,0.0140X0.0010*%
%ADD71R,0.0570X0.0010*%
%ADD72R,0.0180X0.0010*%
%ADD73R,0.0190X0.0010*%
%ADD74R,0.0200X0.0010*%
%ADD75R,0.0550X0.0010*%
%ADD76R,0.0210X0.0010*%
%ADD77R,0.0220X0.0010*%
%ADD78R,0.0540X0.0010*%
%ADD79R,0.0230X0.0010*%
%ADD80R,0.0240X0.0010*%
%ADD81R,0.0250X0.0010*%
%ADD82R,0.0260X0.0010*%
%ADD83R,0.0530X0.0010*%
%ADD84R,0.0280X0.0010*%
%ADD85R,0.0270X0.0010*%
%ADD86R,0.0520X0.0010*%
%ADD87R,0.0290X0.0010*%
%ADD88R,0.0310X0.0010*%
%ADD89R,0.0300X0.0010*%
%ADD90R,0.0510X0.0010*%
%ADD91R,0.0500X0.0010*%
%ADD92R,0.0330X0.0010*%
%ADD93R,0.0350X0.0010*%
%ADD94R,0.0490X0.0010*%
%ADD95R,0.0360X0.0010*%
%ADD96R,0.0370X0.0010*%
%ADD97R,0.0480X0.0010*%
%ADD98R,0.0470X0.0010*%
%ADD99R,0.0460X0.0010*%
%ADD100R,0.0450X0.0010*%
%ADD101R,0.0440X0.0010*%
%ADD102R,0.0430X0.0010*%
%ADD103R,0.0410X0.0010*%
%ADD104R,0.0750X0.0010*%
%ADD105R,0.0640X0.0010*%
%ADD106R,0.0730X0.0010*%
%ADD107R,0.0700X0.0010*%
%ADD108R,0.0400X0.0010*%
%ADD109R,0.0830X0.0010*%
%ADD110R,0.0870X0.0010*%
%ADD111R,0.0390X0.0010*%
%ADD112R,0.0660X0.0010*%
%ADD113R,0.0990X0.0010*%
%ADD114R,0.1010X0.0010*%
%ADD115R,0.1040X0.0010*%
%ADD116R,0.1070X0.0010*%
%ADD117R,0.1130X0.0010*%
%ADD118R,0.0380X0.0010*%
%ADD119R,0.1190X0.0010*%
%ADD120R,0.0170X0.0010*%
%ADD121R,0.1250X0.0010*%
%ADD122R,0.1270X0.0010*%
%ADD123R,0.0160X0.0010*%
%ADD124R,0.1310X0.0010*%
%ADD125R,0.1330X0.0010*%
%ADD126R,0.1350X0.0010*%
%ADD127R,0.1370X0.0010*%
%ADD128R,0.1390X0.0010*%
%ADD129R,0.1430X0.0010*%
%ADD130R,0.1470X0.0010*%
%ADD131R,0.1480X0.0010*%
%ADD132R,0.1510X0.0010*%
%ADD133R,0.0030X0.0010*%
%ADD134R,0.1540X0.0010*%
%ADD135R,0.1550X0.0010*%
%ADD136R,0.1590X0.0010*%
%ADD137R,0.1600X0.0010*%
%ADD138R,0.1610X0.0010*%
%ADD139R,0.1640X0.0010*%
%ADD140R,0.1660X0.0010*%
%ADD141R,0.1680X0.0010*%
%ADD142R,0.1690X0.0010*%
%ADD143R,0.1700X0.0010*%
%ADD144R,0.1720X0.0010*%
%ADD145R,0.1230X0.0010*%
%ADD146R,0.0020X0.0010*%
%ADD147R,0.0130X0.0010*%
%ADD148R,0.0100X0.0010*%
%ADD149R,0.0040X0.0010*%
%ADD150R,0.0010X0.0010*%
%ADD151R,0.0070X0.0010*%
%ADD152R,0.0060X0.0010*%
%ADD153R,0.1340X0.0010*%
%ADD154R,0.1920X0.0010*%
%ADD155R,0.1910X0.0010*%
%ADD156R,0.1900X0.0010*%
%ADD157R,0.1880X0.0010*%
%ADD158R,0.1050X0.0010*%
%ADD159R,0.1210X0.0010*%
%ADD160R,0.1580X0.0010*%
%ADD161R,0.1730X0.0010*%
%ADD162R,0.1810X0.0010*%
%ADD163R,0.1870X0.0010*%
%ADD164R,0.1960X0.0010*%
%ADD165R,0.2130X0.0010*%
%ADD166R,0.2170X0.0010*%
%ADD167R,0.2190X0.0010*%
%ADD168R,0.2210X0.0010*%
%ADD169R,0.1080X0.0010*%
%ADD170R,0.1000X0.0010*%
%ADD171R,0.0940X0.0010*%
%ADD172R,0.0800X0.0010*%
%ADD173R,0.0810X0.0010*%
%ADD174R,0.1170X0.0010*%
%ADD175R,0.1280X0.0010*%
%ADD176R,0.1560X0.0010*%
%ADD177R,0.1520X0.0010*%
%ADD178R,0.1460X0.0010*%
%ADD179R,0.1440X0.0010*%
%ADD180R,0.0820X0.0010*%
%ADD181R,0.0930X0.0010*%
%ADD182R,0.2110X0.0010*%
%ADD183R,0.2080X0.0010*%
%ADD184R,0.2020X0.0010*%
%ADD185R,0.1850X0.0010*%
%ADD186R,0.1780X0.0010*%
%ADD187R,0.1740X0.0010*%
%ADD188R,0.1650X0.0010*%
%ADD189R,0.1490X0.0010*%
%ADD190R,0.1380X0.0010*%
D10*
X000306Y000206D02*
X000306Y025803D01*
X019277Y025803D01*
X019277Y000206D01*
X000306Y000206D01*
D11*
X010168Y000561D02*
X010561Y000561D01*
X010168Y000955D01*
X010168Y001054D01*
X010266Y001152D01*
X010463Y001152D01*
X010561Y001054D01*
X011009Y001152D02*
X011009Y000561D01*
X011206Y000561D02*
X010812Y000561D01*
X011206Y000955D02*
X011009Y001152D01*
X011457Y001054D02*
X011457Y000660D01*
X011555Y000561D01*
X011752Y000561D01*
X011851Y000660D01*
X011457Y001054D01*
X011555Y001152D01*
X011752Y001152D01*
X011851Y001054D01*
X011851Y000660D01*
X012101Y000561D02*
X012495Y000561D01*
X012101Y000955D01*
X012101Y001054D01*
X012200Y001152D01*
X012397Y001152D01*
X012495Y001054D01*
X012746Y000955D02*
X012746Y000561D01*
X012746Y000857D02*
X013140Y000857D01*
X013140Y000955D02*
X012943Y001152D01*
X012746Y000955D01*
X013140Y000955D02*
X013140Y000561D01*
X013391Y000660D02*
X013489Y000561D01*
X013686Y000561D01*
X013784Y000660D01*
X013391Y001054D01*
X013391Y000660D01*
X013784Y000660D02*
X013784Y001054D01*
X013686Y001152D01*
X013489Y001152D01*
X013391Y001054D01*
X014035Y000561D02*
X014429Y000561D01*
X014232Y000561D02*
X014232Y001152D01*
X014429Y000955D01*
X014680Y000955D02*
X014680Y001054D01*
X014778Y001152D01*
X014975Y001152D01*
X015073Y001054D01*
X015324Y000955D02*
X015423Y000955D01*
X015718Y000955D01*
X015718Y000758D02*
X015324Y000758D01*
X015423Y000561D02*
X015423Y001152D01*
X015619Y001152D02*
X015619Y000561D01*
X015969Y000561D02*
X015969Y000955D01*
X016166Y001152D01*
X016362Y000955D01*
X016362Y000561D01*
X016613Y000660D02*
X016712Y000561D01*
X016909Y000561D01*
X017007Y000660D01*
X017007Y001054D01*
X016909Y001152D01*
X016712Y001152D01*
X016613Y001054D01*
X016362Y000857D02*
X015969Y000857D01*
X015073Y000561D02*
X014680Y000955D01*
X014680Y000561D02*
X015073Y000561D01*
X017258Y000857D02*
X017356Y000758D01*
X017651Y000758D01*
X017651Y000561D02*
X017651Y001152D01*
X017356Y001152D01*
X017258Y001054D01*
X017258Y000857D01*
X016851Y019761D02*
X016851Y020352D01*
X016556Y020352D01*
X016458Y020254D01*
X016458Y020057D01*
X016556Y019958D01*
X016851Y019958D01*
X016655Y019958D02*
X016458Y019761D01*
X016207Y019860D02*
X016207Y020057D01*
X016109Y020155D01*
X015912Y020155D01*
X015813Y020057D01*
X015813Y019958D01*
X016207Y019958D01*
X016207Y019860D02*
X016109Y019761D01*
X015912Y019761D01*
X015562Y020155D02*
X015366Y019761D01*
X015169Y020155D01*
X014918Y020155D02*
X014819Y020155D01*
X014819Y019761D01*
X014721Y019761D02*
X014918Y019761D01*
X014488Y019761D02*
X014193Y019761D01*
X014094Y019860D01*
X014193Y019958D01*
X014390Y019958D01*
X014488Y020057D01*
X014390Y020155D01*
X014094Y020155D01*
X013844Y020155D02*
X013745Y020155D01*
X013745Y019761D01*
X013647Y019761D02*
X013844Y019761D01*
X013745Y020352D02*
X013745Y020450D01*
X013978Y020661D02*
X014175Y020661D01*
X014273Y020760D01*
X014175Y020957D02*
X013978Y020957D01*
X013880Y020858D01*
X013880Y020760D01*
X013978Y020661D01*
X014175Y020957D02*
X014273Y021055D01*
X014273Y021154D01*
X014175Y021252D01*
X013978Y021252D01*
X013880Y021154D01*
X014524Y020957D02*
X014918Y020957D01*
X015169Y021252D02*
X015169Y020661D01*
X014819Y020450D02*
X014819Y020352D01*
X015562Y020661D02*
X015562Y021252D01*
X015366Y021055D01*
X015169Y021252D01*
X015813Y021154D02*
X015813Y020957D01*
X015912Y020858D01*
X016207Y020858D01*
X016207Y020661D02*
X016207Y021252D01*
X015912Y021252D01*
X015813Y021154D01*
X016458Y021154D02*
X016556Y021252D01*
X016753Y021252D01*
X016851Y021154D01*
X016851Y020760D01*
X016753Y020661D01*
X016556Y020661D01*
X016458Y020760D01*
X013414Y020057D02*
X013414Y019860D01*
X013315Y019761D01*
X013119Y019761D01*
X013020Y019860D01*
X013020Y020057D01*
X013119Y020155D01*
X013315Y020155D01*
X013414Y020057D01*
X012769Y020155D02*
X012769Y019761D01*
X012376Y019761D02*
X012376Y020057D01*
X012474Y020155D01*
X012769Y020155D01*
X012787Y020661D02*
X012886Y020760D01*
X012886Y021154D01*
X012984Y021055D02*
X012787Y021055D01*
X012554Y020957D02*
X012554Y020760D01*
X012456Y020661D01*
X012259Y020661D01*
X012161Y020760D01*
X012161Y020957D01*
X012259Y021055D01*
X012456Y021055D01*
X012554Y020957D01*
X011480Y020155D02*
X011283Y020352D01*
X011283Y019761D01*
X011087Y019761D02*
X011480Y019761D01*
X010836Y019761D02*
X010737Y019761D01*
X010737Y019860D01*
X010836Y019860D01*
X010836Y019761D01*
X010513Y020057D02*
X010120Y020057D01*
X010218Y020352D02*
X010218Y019761D01*
X010513Y020057D02*
X010218Y020352D01*
X010326Y020661D02*
X010522Y020661D01*
X010621Y020760D01*
X010621Y020957D01*
X010522Y021055D01*
X010326Y021055D01*
X010227Y020957D01*
X010227Y020858D01*
X010621Y020858D01*
X010872Y021252D02*
X011265Y021252D01*
X011069Y021252D02*
X011069Y020661D01*
X009976Y020661D02*
X009976Y021055D01*
X009681Y021055D01*
X009583Y020957D01*
X009583Y020661D01*
X008687Y020661D02*
X008687Y021252D01*
X008392Y021252D01*
X008294Y021154D01*
X008294Y020957D01*
X008392Y020858D01*
X008687Y020858D01*
X008043Y020661D02*
X007846Y020661D01*
X007944Y020661D02*
X007944Y021055D01*
X008043Y021055D01*
X007944Y021252D02*
X007944Y021350D01*
X007613Y021055D02*
X007318Y021055D01*
X007219Y020957D01*
X007219Y020661D01*
X007613Y020661D02*
X007613Y021055D01*
X006324Y021252D02*
X006324Y020661D01*
X006127Y021055D02*
X005930Y021252D01*
X005930Y020661D01*
X005679Y020760D02*
X005679Y020957D01*
X005581Y021055D01*
X005384Y021055D01*
X005286Y020957D01*
X005286Y020760D01*
X005384Y020661D01*
X005581Y020661D01*
X005679Y020760D01*
X006127Y021055D02*
X006324Y021252D01*
X005035Y020957D02*
X005035Y020760D01*
X004936Y020661D01*
X004641Y020661D01*
X004641Y021252D01*
X004641Y021055D02*
X004936Y021055D01*
X005035Y020957D01*
X004390Y021055D02*
X004390Y020760D01*
X004292Y020661D01*
X003997Y020661D01*
X003997Y021055D01*
X003746Y021252D02*
X003647Y021252D01*
X003647Y020661D01*
X003549Y020661D02*
X003746Y020661D01*
X003316Y020760D02*
X003316Y020957D01*
X003218Y021055D01*
X003021Y021055D01*
X002922Y020957D01*
X002922Y020858D01*
X003316Y020858D01*
X003316Y020760D02*
X003218Y020661D01*
X003021Y020661D01*
D12*
X006627Y011663D02*
X006570Y011607D01*
X006570Y011436D01*
X006684Y011436D02*
X006684Y011607D01*
X006627Y011663D01*
X006684Y011607D02*
X006741Y011663D01*
X006797Y011663D01*
X006797Y011436D01*
X006939Y011493D02*
X006939Y011607D01*
X006995Y011663D01*
X007109Y011663D01*
X007166Y011607D01*
X007166Y011493D01*
X007109Y011436D01*
X006995Y011436D01*
X006939Y011493D01*
X007307Y011436D02*
X007477Y011436D01*
X007534Y011493D01*
X007534Y011607D01*
X007477Y011663D01*
X007307Y011663D01*
X007661Y011493D02*
X007661Y011436D01*
X007718Y011436D01*
X007718Y011493D01*
X007661Y011493D01*
X007860Y011493D02*
X007916Y011436D01*
X008086Y011436D01*
X008030Y011550D02*
X007916Y011550D01*
X007860Y011493D01*
X007860Y011663D02*
X008030Y011663D01*
X008086Y011607D01*
X008030Y011550D01*
X008219Y011663D02*
X008332Y011663D01*
X008275Y011720D02*
X008275Y011493D01*
X008219Y011436D01*
X008473Y011436D02*
X008473Y011607D01*
X008530Y011663D01*
X008700Y011663D01*
X008700Y011436D01*
X008842Y011550D02*
X009069Y011550D01*
X009069Y011607D02*
X009012Y011663D01*
X008898Y011663D01*
X008842Y011607D01*
X008842Y011550D01*
X008898Y011436D02*
X009012Y011436D01*
X009069Y011493D01*
X009069Y011607D01*
X009210Y011663D02*
X009210Y011380D01*
X009267Y011323D01*
X009323Y011323D01*
X009380Y011436D02*
X009210Y011436D01*
X009380Y011436D02*
X009437Y011493D01*
X009437Y011607D01*
X009380Y011663D01*
X009210Y011663D01*
X009578Y011607D02*
X009578Y011436D01*
X009749Y011436D01*
X009805Y011493D01*
X009749Y011550D01*
X009578Y011550D01*
X009578Y011607D02*
X009635Y011663D01*
X009749Y011663D01*
X009947Y011607D02*
X009947Y011436D01*
X009947Y011607D02*
X010003Y011663D01*
X010174Y011663D01*
X010174Y011436D01*
X010310Y011663D02*
X010367Y011663D01*
X010480Y011550D01*
X010480Y011663D02*
X010480Y011436D01*
X010622Y011550D02*
X010849Y011550D01*
X010849Y011607D02*
X010792Y011663D01*
X010679Y011663D01*
X010622Y011607D01*
X010622Y011550D01*
X010679Y011436D02*
X010792Y011436D01*
X010849Y011493D01*
X010849Y011607D01*
X010981Y011663D02*
X011094Y011663D01*
X011038Y011720D02*
X011038Y011493D01*
X010981Y011436D01*
X011226Y011436D02*
X011283Y011493D01*
X011283Y011720D01*
X011340Y011663D02*
X011226Y011663D01*
X011481Y011607D02*
X011481Y011436D01*
X011651Y011436D01*
X011708Y011493D01*
X011651Y011550D01*
X011481Y011550D01*
X011481Y011607D02*
X011538Y011663D01*
X011651Y011663D01*
X011850Y011607D02*
X011850Y011493D01*
X011906Y011436D01*
X012076Y011436D01*
X012076Y011323D02*
X012076Y011663D01*
X011906Y011663D01*
X011850Y011607D01*
X011820Y010877D02*
X011876Y010820D01*
X011876Y010593D01*
X011820Y010536D01*
X011706Y010536D01*
X011650Y010593D01*
X011508Y010593D02*
X011451Y010536D01*
X011338Y010536D01*
X011281Y010593D01*
X011281Y010707D01*
X011338Y010763D01*
X011451Y010763D01*
X011508Y010707D01*
X011508Y010593D01*
X011650Y010820D02*
X011706Y010877D01*
X011820Y010877D01*
X011140Y010763D02*
X011140Y010423D01*
X011140Y010536D02*
X010970Y010536D01*
X010913Y010593D01*
X010913Y010707D01*
X010970Y010763D01*
X011140Y010763D01*
X010772Y010763D02*
X010772Y010593D01*
X010715Y010536D01*
X010545Y010536D01*
X010545Y010480D02*
X010601Y010423D01*
X010658Y010423D01*
X010545Y010480D02*
X010545Y010763D01*
X010403Y010763D02*
X010403Y010536D01*
X010403Y010650D02*
X010290Y010763D01*
X010233Y010763D01*
X010096Y010763D02*
X010040Y010763D01*
X010040Y010536D01*
X010096Y010536D02*
X009983Y010536D01*
X009851Y010593D02*
X009851Y010707D01*
X009794Y010763D01*
X009624Y010763D01*
X009624Y010480D01*
X009681Y010423D01*
X009737Y010423D01*
X009794Y010536D02*
X009624Y010536D01*
X009482Y010536D02*
X009482Y010877D01*
X009426Y010763D02*
X009312Y010763D01*
X009256Y010707D01*
X009256Y010536D01*
X009057Y010593D02*
X009057Y010820D01*
X009001Y010763D02*
X009114Y010763D01*
X009057Y010593D02*
X009001Y010536D01*
X009426Y010763D02*
X009482Y010707D01*
X009794Y010536D02*
X009851Y010593D01*
X010040Y010877D02*
X010040Y010934D01*
X008500Y010820D02*
X008500Y010593D01*
X008444Y010536D01*
X008330Y010536D01*
X008273Y010593D01*
X008330Y010650D02*
X008330Y010763D01*
X008444Y010763D01*
X008444Y010650D01*
X008330Y010650D01*
X008273Y010707D01*
X008273Y010820D01*
X008330Y010877D01*
X008444Y010877D01*
X008500Y010820D01*
X008132Y010820D02*
X008075Y010877D01*
X007962Y010877D01*
X007905Y010820D01*
X007905Y010763D01*
X008132Y010536D01*
X007905Y010536D01*
X007764Y010593D02*
X007764Y010820D01*
X007707Y010877D01*
X007594Y010877D01*
X007537Y010820D01*
X007764Y010593D01*
X007707Y010536D01*
X007594Y010536D01*
X007537Y010593D01*
X007537Y010820D01*
X007395Y010763D02*
X007282Y010877D01*
X007282Y010536D01*
X007395Y010536D02*
X007168Y010536D01*
X007027Y010536D02*
X006800Y010763D01*
X006800Y010820D01*
X006857Y010877D01*
X006970Y010877D01*
X007027Y010820D01*
X007027Y010536D02*
X006800Y010536D01*
D13*
X008743Y012776D03*
X008923Y012696D03*
X008523Y013476D03*
X008513Y013486D03*
X008813Y013566D03*
X008813Y013856D03*
X008433Y013866D03*
X008433Y013876D03*
X008253Y014486D03*
X008873Y015336D03*
X009233Y013806D03*
X009243Y013616D03*
X009663Y013566D03*
X010053Y013876D03*
X010053Y013886D03*
X010973Y013936D03*
X010973Y013946D03*
X010973Y013956D03*
X010973Y013966D03*
X010973Y013976D03*
X010973Y013986D03*
X010973Y013996D03*
X010973Y014006D03*
X010973Y014016D03*
X010973Y014026D03*
X010973Y014036D03*
X010973Y014046D03*
X010973Y014056D03*
X010973Y014066D03*
X010973Y014076D03*
X010973Y014086D03*
X010973Y014096D03*
X010973Y014106D03*
X010973Y014116D03*
X010973Y014126D03*
X010953Y014296D03*
X010943Y014356D03*
X010943Y014366D03*
X009553Y012696D03*
X010963Y011976D03*
X007533Y013706D03*
X007533Y013716D03*
X007533Y013726D03*
X007523Y013756D03*
X007523Y013766D03*
X007523Y013776D03*
X007523Y013786D03*
X007523Y013796D03*
X007513Y013856D03*
X007513Y013866D03*
X007513Y013876D03*
X007513Y013886D03*
X007513Y013896D03*
X007513Y013906D03*
X007513Y014156D03*
X007513Y014166D03*
X007513Y014176D03*
X007513Y014186D03*
X007513Y014196D03*
X007513Y014206D03*
X007523Y014266D03*
X007523Y014276D03*
X007523Y014286D03*
X007523Y014296D03*
X007533Y014336D03*
X007533Y014346D03*
D14*
X007553Y014436D03*
X007563Y014476D03*
X007573Y014506D03*
X007573Y014516D03*
X007583Y014536D03*
X007583Y014546D03*
X007583Y014556D03*
X007593Y014576D03*
X007603Y014596D03*
X007603Y014606D03*
X007613Y014636D03*
X007553Y013626D03*
X007573Y013556D03*
X007573Y013546D03*
X007583Y013526D03*
X007583Y013516D03*
X007583Y013506D03*
X007593Y013486D03*
X007603Y013456D03*
X007613Y013426D03*
X008543Y013456D03*
X008443Y013896D03*
X008443Y013906D03*
X008813Y013846D03*
X009243Y013836D03*
X009243Y013596D03*
X009943Y013456D03*
X010033Y013916D03*
X010213Y014496D03*
X010853Y014666D03*
X010863Y014646D03*
X010863Y014636D03*
X010873Y014616D03*
X010883Y014596D03*
X010883Y014586D03*
X010883Y014576D03*
X010893Y014566D03*
X010893Y014556D03*
X010893Y014546D03*
X010903Y014526D03*
X010903Y014516D03*
X010963Y013816D03*
X010963Y013806D03*
X010963Y013796D03*
X010963Y013786D03*
X010963Y013776D03*
X010963Y013766D03*
X010963Y012916D03*
X010963Y012906D03*
X010963Y012896D03*
X010963Y012886D03*
X010963Y012876D03*
X010963Y012866D03*
X010963Y012856D03*
X010963Y012846D03*
X010963Y012836D03*
X010963Y012826D03*
X010963Y012816D03*
X010963Y012806D03*
X010963Y012796D03*
X010963Y012786D03*
X010963Y012776D03*
X010963Y012766D03*
X010963Y012756D03*
X010963Y012746D03*
X010963Y012736D03*
X010963Y012726D03*
X010963Y012716D03*
X010963Y012706D03*
X010963Y012696D03*
X010963Y012686D03*
X010963Y012676D03*
X010963Y012666D03*
X010963Y012656D03*
X010963Y012646D03*
X010963Y012636D03*
X010963Y012626D03*
X010963Y012616D03*
X010963Y012606D03*
X010963Y012596D03*
X010963Y012586D03*
X010963Y012576D03*
X010963Y012566D03*
X010963Y012556D03*
X010963Y012546D03*
X010963Y012536D03*
X010963Y012526D03*
X010963Y012516D03*
X010963Y012506D03*
X010963Y012496D03*
X010963Y012486D03*
X010963Y012476D03*
X010963Y012466D03*
X010963Y012456D03*
X010963Y012446D03*
X010963Y012436D03*
X010963Y012426D03*
X010963Y012416D03*
X010963Y012406D03*
X010963Y012396D03*
X010963Y012386D03*
X010963Y012376D03*
X010963Y012366D03*
X010963Y012356D03*
X010963Y012346D03*
X010963Y012336D03*
X010963Y012326D03*
X010963Y012316D03*
X010963Y012306D03*
X010963Y012296D03*
X010963Y012286D03*
X010963Y012276D03*
X010963Y012266D03*
X010963Y012256D03*
X010963Y012246D03*
X010963Y012236D03*
X010963Y012226D03*
X010963Y012216D03*
X010963Y012206D03*
X010963Y012196D03*
X010963Y012186D03*
X010963Y012176D03*
X010963Y012166D03*
X010963Y012156D03*
X010963Y012146D03*
X010963Y012136D03*
X010963Y012126D03*
X010963Y012116D03*
X010963Y012106D03*
X010963Y012096D03*
X010963Y012086D03*
X010963Y012076D03*
X010963Y012066D03*
X010963Y012056D03*
X010963Y012046D03*
X010963Y012036D03*
X010963Y012026D03*
X010963Y012016D03*
X010963Y012006D03*
X010963Y011996D03*
X010963Y011986D03*
X009683Y012756D03*
X009573Y012706D03*
X008873Y015326D03*
D15*
X008933Y013826D03*
X008813Y013726D03*
X008813Y013716D03*
X008813Y013706D03*
X008813Y013696D03*
X008933Y013596D03*
X008813Y013516D03*
X009163Y013656D03*
X009543Y013596D03*
X009553Y013586D03*
X009663Y013676D03*
X009663Y013726D03*
X009663Y013736D03*
X009553Y013836D03*
X009793Y013826D03*
X009793Y013596D03*
X010143Y014596D03*
X010593Y013786D03*
X010603Y013756D03*
X010613Y013726D03*
X009343Y012596D03*
X009233Y012136D03*
X007873Y013746D03*
D16*
X008213Y013246D03*
X008223Y013236D03*
X008233Y013226D03*
X007883Y012956D03*
X007903Y012926D03*
X007913Y012916D03*
X007923Y012906D03*
X007933Y012896D03*
X009233Y012146D03*
X010243Y013226D03*
X010253Y013236D03*
X010563Y012916D03*
X010553Y012906D03*
X010923Y013466D03*
X010923Y013476D03*
X010923Y013486D03*
X010183Y014476D03*
X010603Y015096D03*
X010593Y015106D03*
X010583Y015116D03*
X009693Y015146D03*
X009613Y015326D03*
X009243Y015166D03*
X008873Y015286D03*
X009243Y015916D03*
X007913Y015136D03*
X007903Y015126D03*
X007893Y015116D03*
X007883Y015106D03*
X007873Y015086D03*
X007863Y015076D03*
X009253Y013886D03*
D17*
X009243Y013476D03*
X009243Y012956D03*
X009243Y012156D03*
X010233Y012626D03*
X010853Y013196D03*
X010243Y015426D03*
X008223Y015416D03*
X008233Y012636D03*
D18*
X009233Y012166D03*
X010793Y013026D03*
X010063Y015526D03*
X008643Y014106D03*
X008423Y014396D03*
X008413Y015526D03*
D19*
X009963Y015566D03*
X009243Y012996D03*
X009233Y012176D03*
D20*
X009233Y012186D03*
X009943Y014376D03*
D21*
X009243Y013036D03*
X009243Y012196D03*
D22*
X009243Y012206D03*
D23*
X009233Y012216D03*
X009243Y013086D03*
D24*
X009243Y013106D03*
X009233Y012226D03*
X009243Y015836D03*
D25*
X009243Y015826D03*
X009233Y014676D03*
X009243Y013126D03*
X009233Y012236D03*
D26*
X009238Y012246D03*
X009238Y013156D03*
D27*
X009243Y012256D03*
D28*
X009238Y012266D03*
X009238Y013216D03*
X009248Y014706D03*
D29*
X009238Y014996D03*
X009238Y013236D03*
X009238Y012276D03*
D30*
X009233Y012286D03*
X009243Y013266D03*
X009233Y014916D03*
X009233Y014926D03*
D31*
X009228Y014876D03*
X009228Y014866D03*
X009258Y014726D03*
X009238Y015766D03*
X009238Y013286D03*
X009238Y012296D03*
D32*
X009238Y012306D03*
X009238Y013316D03*
X009228Y014786D03*
X009228Y014796D03*
X009228Y014806D03*
X009238Y015756D03*
D33*
X009238Y013356D03*
X009238Y012316D03*
D34*
X009238Y012326D03*
X009238Y013386D03*
X009238Y014236D03*
D35*
X009238Y013426D03*
X009238Y012336D03*
D36*
X009238Y012346D03*
D37*
X009238Y012356D03*
D38*
X009243Y012366D03*
D39*
X009233Y012376D03*
D40*
X009238Y012386D03*
X009238Y014076D03*
X009238Y014086D03*
X009238Y015676D03*
D41*
X009238Y012396D03*
D42*
X009238Y012406D03*
X009238Y015656D03*
D43*
X009238Y015646D03*
X009238Y014286D03*
X009238Y012416D03*
D44*
X009238Y012426D03*
X009238Y014296D03*
D45*
X009238Y015626D03*
X009238Y012436D03*
D46*
X009238Y012446D03*
X009238Y014306D03*
D47*
X009243Y012456D03*
D48*
X009238Y013026D03*
X008618Y012466D03*
X009858Y012466D03*
X009228Y014636D03*
D49*
X009893Y015586D03*
X009243Y015876D03*
X008583Y012476D03*
X009903Y012476D03*
D50*
X009948Y012486D03*
X008528Y012486D03*
X008518Y015566D03*
X009238Y015886D03*
D51*
X008493Y015556D03*
X009973Y012496D03*
X010753Y012936D03*
X010753Y012946D03*
D52*
X010748Y012926D03*
X008508Y012496D03*
D53*
X008483Y012506D03*
X009243Y012986D03*
X010003Y012506D03*
X010763Y012966D03*
X010023Y014396D03*
D54*
X010778Y012996D03*
X010028Y012516D03*
D55*
X010773Y012986D03*
X009233Y013976D03*
X009223Y014616D03*
X010013Y015546D03*
X008453Y012516D03*
D56*
X008428Y012526D03*
X009838Y014106D03*
X010788Y013016D03*
X010048Y012526D03*
D57*
X010068Y012536D03*
X010798Y013036D03*
X010068Y014416D03*
X010088Y015516D03*
X008858Y015026D03*
X008398Y015516D03*
X008388Y012546D03*
X008408Y012536D03*
D58*
X008368Y012556D03*
X010088Y012546D03*
X010108Y012556D03*
X010808Y013066D03*
X008368Y015506D03*
D59*
X008348Y015496D03*
X008838Y015036D03*
X009568Y015206D03*
X010128Y015496D03*
X010148Y015486D03*
X009238Y013966D03*
X008348Y012566D03*
X010128Y012566D03*
X010818Y013086D03*
X010818Y013096D03*
D60*
X010828Y013116D03*
X010148Y012576D03*
X009238Y014166D03*
X009638Y015036D03*
X010178Y015466D03*
X008838Y015046D03*
X008318Y015476D03*
D61*
X009668Y013656D03*
X010108Y014616D03*
X009298Y012576D03*
X009188Y012576D03*
D62*
X008333Y012576D03*
X010093Y014426D03*
X010163Y015476D03*
X010823Y013106D03*
X008333Y015486D03*
D63*
X008303Y015466D03*
X008373Y014416D03*
X009573Y015216D03*
X010193Y015456D03*
X010833Y013136D03*
X010833Y013126D03*
X010183Y012596D03*
X010163Y012586D03*
X008313Y012586D03*
D64*
X008658Y013636D03*
X008648Y013656D03*
X008648Y013666D03*
X008638Y013696D03*
X008638Y013706D03*
X008638Y013716D03*
X008638Y013726D03*
X008638Y013736D03*
X008648Y013766D03*
X008648Y013776D03*
X008808Y013756D03*
X008978Y013766D03*
X008978Y013776D03*
X008988Y013746D03*
X008988Y013736D03*
X008988Y013726D03*
X008988Y013716D03*
X008988Y013706D03*
X008988Y013696D03*
X008988Y013686D03*
X008988Y013676D03*
X008988Y013666D03*
X008978Y013656D03*
X008978Y013646D03*
X008818Y013976D03*
X008208Y014226D03*
X008868Y015416D03*
X010128Y014606D03*
X009828Y013776D03*
X009838Y013756D03*
X009838Y013746D03*
X009838Y013676D03*
X009838Y013666D03*
X009828Y013656D03*
X009828Y013646D03*
X009498Y013656D03*
X009498Y013666D03*
X009498Y013676D03*
X009488Y013696D03*
X009488Y013706D03*
X009488Y013716D03*
X009488Y013726D03*
X009498Y013756D03*
X009498Y013766D03*
X009508Y013786D03*
X009318Y012586D03*
D65*
X009163Y012586D03*
X008813Y013666D03*
X008643Y013676D03*
X008643Y013686D03*
X008643Y013746D03*
X008643Y013756D03*
X008343Y014606D03*
X009233Y015106D03*
X009493Y013746D03*
X009493Y013736D03*
X009493Y013686D03*
X009663Y013666D03*
X009843Y013686D03*
X009843Y013696D03*
X009843Y013706D03*
X009843Y013716D03*
X009843Y013726D03*
X009843Y013736D03*
X009833Y013766D03*
D66*
X009818Y013626D03*
X009808Y013616D03*
X009798Y013606D03*
X009538Y013826D03*
X009528Y013816D03*
X009528Y013606D03*
X008958Y013616D03*
X008948Y013606D03*
X008818Y013686D03*
X008808Y013736D03*
X008688Y013826D03*
X008678Y013816D03*
X008668Y013806D03*
X008678Y013606D03*
X008688Y013596D03*
X008948Y013816D03*
X008958Y013806D03*
X009238Y014156D03*
X009638Y015446D03*
X009238Y015926D03*
X009138Y012596D03*
D67*
X009248Y013466D03*
X008298Y012596D03*
X008278Y012606D03*
X008828Y015056D03*
X008288Y015456D03*
X009578Y015226D03*
X009648Y015046D03*
X010208Y015446D03*
X010838Y013146D03*
D68*
X010843Y013156D03*
X010843Y013166D03*
X010203Y012606D03*
X009243Y013956D03*
X010113Y014436D03*
X009583Y015236D03*
X008273Y015446D03*
X008263Y012616D03*
D69*
X007958Y013936D03*
X007968Y013956D03*
X007978Y013966D03*
X007988Y013986D03*
X007998Y013996D03*
X008008Y014006D03*
X008018Y014026D03*
X008028Y014036D03*
X008038Y014046D03*
X009368Y012606D03*
X010058Y013166D03*
X009758Y013576D03*
X010258Y014216D03*
X010458Y014026D03*
X010468Y014016D03*
X010478Y014006D03*
X010488Y013986D03*
X010498Y013976D03*
X010508Y013956D03*
X010518Y013946D03*
X010528Y013926D03*
X010608Y013696D03*
D70*
X010613Y013706D03*
X010573Y013836D03*
X010543Y013896D03*
X010543Y013906D03*
X010533Y013916D03*
X010523Y013936D03*
X010503Y013966D03*
X010483Y013996D03*
X010163Y014586D03*
X009243Y012916D03*
X009113Y012606D03*
X008423Y013166D03*
X008923Y013586D03*
X008213Y014216D03*
X007983Y013976D03*
X007963Y013946D03*
X007953Y013926D03*
X007943Y013916D03*
X007943Y013906D03*
X007933Y013896D03*
X007923Y013876D03*
X007913Y013856D03*
X007903Y013826D03*
X007873Y013696D03*
X008293Y014576D03*
X008863Y015406D03*
D71*
X008828Y015066D03*
X008248Y015436D03*
X008238Y015426D03*
X009658Y015056D03*
X010228Y015436D03*
X009918Y013986D03*
X010848Y013186D03*
X010848Y013176D03*
X010218Y012616D03*
X008248Y012626D03*
D72*
X008213Y013106D03*
X008203Y013116D03*
X008193Y013126D03*
X008213Y013356D03*
X008203Y013366D03*
X008193Y013376D03*
X008183Y013386D03*
X008143Y013416D03*
X008133Y013426D03*
X008123Y013436D03*
X008113Y013446D03*
X008103Y013456D03*
X008093Y013466D03*
X008083Y013476D03*
X008073Y013486D03*
X007883Y013666D03*
X008083Y014086D03*
X008093Y014096D03*
X008103Y014106D03*
X008113Y014116D03*
X008273Y014556D03*
X008443Y013666D03*
X009083Y012616D03*
X009393Y012616D03*
X010253Y013096D03*
X010263Y013106D03*
X010273Y013116D03*
X010303Y013386D03*
X010313Y013396D03*
X010323Y013406D03*
X010333Y013416D03*
X010343Y013426D03*
X010353Y013436D03*
X010363Y013446D03*
X010403Y014086D03*
X010393Y014096D03*
X010383Y014106D03*
X010183Y014566D03*
X008863Y015396D03*
D73*
X008128Y014126D03*
X008008Y013546D03*
X008018Y013536D03*
X008028Y013526D03*
X008038Y013516D03*
X008048Y013506D03*
X008058Y013496D03*
X008228Y013096D03*
X008238Y013086D03*
X008248Y013076D03*
X008258Y013066D03*
X009418Y012626D03*
X010208Y013056D03*
X010218Y013066D03*
X010228Y013076D03*
X010238Y013086D03*
X010378Y013456D03*
X010388Y013466D03*
X010398Y013476D03*
X010408Y013486D03*
X010418Y013496D03*
X010428Y013506D03*
X010438Y013516D03*
X010448Y013526D03*
X010458Y013536D03*
X010598Y013666D03*
X010368Y014116D03*
D74*
X010353Y014126D03*
X010253Y014206D03*
X010193Y014556D03*
X010593Y013656D03*
X010493Y013566D03*
X010483Y013556D03*
X010473Y013546D03*
X010193Y013046D03*
X010183Y013036D03*
X010173Y013026D03*
X009663Y013526D03*
X009063Y012626D03*
X008813Y013526D03*
X008813Y013896D03*
X008223Y014206D03*
X008143Y014136D03*
X007973Y013576D03*
X007983Y013566D03*
X007993Y013556D03*
X008273Y013056D03*
X008283Y013046D03*
X008293Y013036D03*
X008323Y013016D03*
X009243Y015116D03*
X009083Y015206D03*
X009633Y015426D03*
D75*
X009588Y015246D03*
X009238Y015906D03*
X008818Y015076D03*
X008208Y015406D03*
X008348Y014426D03*
X008578Y014116D03*
X009238Y013946D03*
X009898Y014116D03*
X010858Y013216D03*
X010858Y013206D03*
X010248Y012636D03*
X008218Y012646D03*
X010258Y015416D03*
D76*
X010338Y014136D03*
X010588Y013646D03*
X010578Y013636D03*
X010568Y013626D03*
X010558Y013616D03*
X010548Y013606D03*
X010518Y013586D03*
X010508Y013576D03*
X010158Y013016D03*
X010128Y012996D03*
X010088Y013176D03*
X009668Y013896D03*
X009438Y012636D03*
X008338Y013006D03*
X008308Y013026D03*
X007958Y013586D03*
X007948Y013596D03*
X007938Y013606D03*
X007888Y013656D03*
X008158Y014146D03*
X008248Y014536D03*
X008258Y014546D03*
X008868Y015386D03*
D77*
X008243Y014526D03*
X008173Y014156D03*
X007893Y013646D03*
X007903Y013636D03*
X007913Y013626D03*
X007923Y013616D03*
X008393Y013176D03*
X008353Y012996D03*
X008363Y012986D03*
X008383Y012976D03*
X008393Y012966D03*
X009043Y012636D03*
X010073Y012956D03*
X010103Y012976D03*
X010113Y012986D03*
X010143Y013006D03*
X010053Y013606D03*
X010063Y013646D03*
X010073Y013656D03*
X010323Y014146D03*
X010303Y014156D03*
X010533Y013596D03*
D78*
X010863Y013236D03*
X010863Y013226D03*
X010273Y012656D03*
X010263Y012646D03*
X009663Y015066D03*
X009593Y015256D03*
X010273Y015406D03*
X010283Y015396D03*
X010303Y015386D03*
X008893Y015216D03*
X008193Y015396D03*
X008183Y015386D03*
X008203Y012656D03*
D79*
X008418Y012946D03*
X008408Y012956D03*
X008438Y012936D03*
X008448Y012926D03*
X008818Y013536D03*
X008428Y013626D03*
X008418Y013646D03*
X008418Y013656D03*
X009208Y014596D03*
X009668Y013886D03*
X009668Y013536D03*
X010038Y013566D03*
X010038Y013576D03*
X010048Y013586D03*
X010048Y013596D03*
X010058Y013616D03*
X010058Y013626D03*
X010058Y013636D03*
X010088Y012966D03*
X010058Y012946D03*
X010048Y012936D03*
X010028Y012926D03*
X009998Y012906D03*
X009458Y012646D03*
X010218Y014536D03*
X010208Y014546D03*
X009638Y015416D03*
X008868Y015376D03*
D80*
X008233Y014516D03*
X008433Y014156D03*
X008813Y013886D03*
X008423Y013636D03*
X008433Y013616D03*
X008433Y013606D03*
X008443Y013596D03*
X008443Y013586D03*
X008463Y012916D03*
X008483Y012906D03*
X008503Y012896D03*
X009023Y012646D03*
X009963Y012886D03*
X009983Y012896D03*
X010013Y012916D03*
X010023Y013536D03*
X010023Y013546D03*
X010033Y013556D03*
X010083Y013746D03*
X010083Y013756D03*
X010083Y013766D03*
X010223Y014526D03*
D81*
X010238Y014196D03*
X010048Y014156D03*
X010078Y013786D03*
X010078Y013776D03*
X010018Y013526D03*
X010008Y013516D03*
X009948Y012876D03*
X009928Y012866D03*
X009908Y012856D03*
X009478Y012656D03*
X008548Y012866D03*
X008538Y012876D03*
X008518Y012886D03*
X008408Y013756D03*
X008238Y014196D03*
D82*
X008233Y014506D03*
X008413Y013776D03*
X008413Y013766D03*
X008453Y013576D03*
X008463Y013556D03*
X008813Y013546D03*
X008813Y013876D03*
X008573Y012856D03*
X008593Y012846D03*
X009003Y012656D03*
X010113Y013186D03*
X010073Y013796D03*
X010073Y013806D03*
X010223Y014516D03*
X009633Y015406D03*
X009243Y015126D03*
X008873Y015366D03*
D83*
X008818Y015086D03*
X008168Y015376D03*
X009238Y013486D03*
X010138Y014446D03*
X009668Y015076D03*
X010318Y015376D03*
X010868Y013246D03*
X010288Y012666D03*
X008188Y012666D03*
X008178Y012676D03*
D84*
X008633Y012826D03*
X008483Y013526D03*
X008473Y013536D03*
X008413Y013796D03*
X009243Y013756D03*
X009843Y012826D03*
X009833Y012816D03*
X009863Y012836D03*
X009503Y012666D03*
X009983Y013486D03*
X009993Y013496D03*
X010063Y013826D03*
X010063Y013836D03*
X008873Y015356D03*
D85*
X009668Y013876D03*
X009668Y013546D03*
X009998Y013506D03*
X010068Y013816D03*
X009888Y012846D03*
X008978Y012666D03*
X008608Y012836D03*
X008468Y013546D03*
X008458Y013566D03*
X008418Y013786D03*
D86*
X008333Y014436D03*
X008153Y015366D03*
X008893Y015226D03*
X009593Y015266D03*
X010333Y015366D03*
X010343Y015356D03*
X009243Y013936D03*
X010303Y012676D03*
X010313Y012686D03*
X010873Y013256D03*
X010873Y013266D03*
X008163Y012686D03*
D87*
X008648Y012816D03*
X008958Y012676D03*
X009518Y012676D03*
X009808Y012806D03*
X009668Y013556D03*
X009668Y013866D03*
X010058Y013846D03*
X009238Y013786D03*
X009238Y013776D03*
X008488Y013516D03*
X008418Y013806D03*
X008418Y013816D03*
X008418Y013826D03*
X008418Y013836D03*
X008238Y014496D03*
X009628Y015396D03*
D88*
X009628Y015386D03*
X009248Y015136D03*
X010018Y014146D03*
X010228Y014186D03*
X010058Y013866D03*
X009668Y013856D03*
X009238Y013796D03*
X009248Y013636D03*
X009248Y013626D03*
X009958Y013466D03*
X009758Y012786D03*
X009738Y012776D03*
X009538Y012686D03*
X008718Y012786D03*
X008428Y013856D03*
D89*
X008423Y013846D03*
X008463Y014146D03*
X008253Y014186D03*
X008813Y013866D03*
X008813Y013556D03*
X008503Y013496D03*
X008493Y013506D03*
X008673Y012806D03*
X008693Y012796D03*
X008943Y012686D03*
X009243Y013646D03*
X009243Y013766D03*
X009783Y012796D03*
X009973Y013476D03*
X010053Y013856D03*
X010223Y014506D03*
X008873Y015346D03*
D90*
X008888Y015236D03*
X008808Y015096D03*
X008138Y015356D03*
X008128Y015346D03*
X009248Y013926D03*
X009238Y013496D03*
X008148Y012696D03*
X008138Y012706D03*
X009678Y015086D03*
X010358Y015346D03*
X010878Y013276D03*
X010328Y012696D03*
D91*
X010343Y012706D03*
X010353Y012716D03*
X010883Y013286D03*
X010883Y013296D03*
X010883Y013306D03*
X010153Y014456D03*
X010363Y015336D03*
X009603Y015276D03*
X009253Y015196D03*
X009213Y014606D03*
X009243Y013916D03*
X008113Y012726D03*
X008123Y012716D03*
X008093Y015316D03*
X008103Y015326D03*
X008113Y015336D03*
D92*
X007578Y014526D03*
X007568Y014496D03*
X007568Y014486D03*
X007558Y014466D03*
X007558Y014456D03*
X007558Y014446D03*
X007548Y014426D03*
X007548Y014416D03*
X007548Y014406D03*
X007548Y014396D03*
X007538Y014386D03*
X007538Y014376D03*
X007538Y014366D03*
X007538Y014356D03*
X007528Y014326D03*
X007528Y014316D03*
X007528Y014306D03*
X007518Y014256D03*
X007518Y014246D03*
X007518Y014236D03*
X007518Y014226D03*
X007518Y014216D03*
X007508Y014146D03*
X007508Y014136D03*
X007508Y014126D03*
X007508Y014116D03*
X007508Y014106D03*
X007508Y014096D03*
X007508Y014086D03*
X007508Y014076D03*
X007508Y014066D03*
X007508Y014056D03*
X007508Y014046D03*
X007508Y014036D03*
X007508Y014026D03*
X007508Y014016D03*
X007508Y014006D03*
X007508Y013996D03*
X007508Y013986D03*
X007508Y013976D03*
X007508Y013966D03*
X007508Y013956D03*
X007508Y013946D03*
X007508Y013936D03*
X007508Y013926D03*
X007508Y013916D03*
X007518Y013846D03*
X007518Y013836D03*
X007518Y013826D03*
X007518Y013816D03*
X007518Y013806D03*
X007528Y013746D03*
X007528Y013736D03*
X007538Y013696D03*
X007538Y013686D03*
X007538Y013676D03*
X007548Y013666D03*
X007548Y013656D03*
X007548Y013646D03*
X007548Y013636D03*
X007558Y013616D03*
X007558Y013606D03*
X007558Y013596D03*
X007558Y013586D03*
X007568Y013576D03*
X007568Y013566D03*
X007578Y013536D03*
X008438Y013886D03*
X008528Y013466D03*
X008768Y012766D03*
X008908Y012706D03*
X009708Y012766D03*
X009248Y013606D03*
X009238Y013816D03*
X009238Y013826D03*
X009668Y013846D03*
X010038Y013906D03*
X010048Y013896D03*
X010968Y013896D03*
X010968Y013886D03*
X010968Y013876D03*
X010968Y013866D03*
X010968Y013856D03*
X010968Y013846D03*
X010968Y013836D03*
X010968Y013826D03*
X010968Y013906D03*
X010968Y013916D03*
X010968Y013926D03*
X010968Y014136D03*
X010968Y014146D03*
X010968Y014156D03*
X010968Y014166D03*
X010968Y014176D03*
X010968Y014186D03*
X010968Y014196D03*
X010968Y014206D03*
X010968Y014216D03*
X010968Y014226D03*
X010958Y014236D03*
X010958Y014246D03*
X010958Y014256D03*
X010958Y014266D03*
X010958Y014276D03*
X010958Y014286D03*
X010948Y014306D03*
X010948Y014316D03*
X010948Y014326D03*
X010948Y014336D03*
X010948Y014346D03*
X010938Y014376D03*
X010938Y014386D03*
X010938Y014396D03*
X010938Y014406D03*
X010928Y014416D03*
X010928Y014426D03*
X010928Y014436D03*
X010928Y014446D03*
X010918Y014456D03*
X010918Y014466D03*
X010918Y014476D03*
X010918Y014486D03*
X010908Y014496D03*
X010908Y014506D03*
X010898Y014536D03*
X009628Y015376D03*
D93*
X009618Y015366D03*
X009248Y015146D03*
X008868Y015316D03*
X008448Y013916D03*
X009238Y013846D03*
X009238Y012926D03*
X008888Y012716D03*
X008798Y012756D03*
X009588Y012716D03*
X009608Y012726D03*
X010958Y013696D03*
X010958Y013706D03*
X010958Y013716D03*
X010958Y013726D03*
X010958Y013736D03*
X010958Y013746D03*
X010958Y013756D03*
X010878Y014606D03*
X010868Y014626D03*
X010858Y014656D03*
X010848Y014676D03*
X010848Y014686D03*
X010838Y014696D03*
X010838Y014706D03*
X010828Y014716D03*
X010828Y014726D03*
X010818Y014746D03*
X007668Y014766D03*
X007648Y014716D03*
X007638Y014696D03*
X007638Y014686D03*
X007628Y014676D03*
X007628Y014666D03*
X007618Y014656D03*
X007618Y014646D03*
X007608Y014626D03*
X007608Y014616D03*
X007598Y014586D03*
X007588Y014566D03*
X007588Y013496D03*
X007598Y013476D03*
X007598Y013466D03*
X007608Y013446D03*
X007608Y013436D03*
X007618Y013416D03*
X007618Y013406D03*
X007628Y013396D03*
X007628Y013386D03*
X007638Y013376D03*
X007638Y013366D03*
X007648Y013346D03*
X007658Y013316D03*
D94*
X008088Y012746D03*
X008098Y012736D03*
X009238Y012946D03*
X009238Y013506D03*
X010368Y012726D03*
X010378Y012736D03*
X010888Y013316D03*
X010888Y013326D03*
X009678Y015096D03*
X010378Y015326D03*
X010388Y015316D03*
X010398Y015306D03*
X008888Y015246D03*
X008808Y015106D03*
X008078Y015306D03*
X008068Y015296D03*
D95*
X007693Y014816D03*
X007693Y014806D03*
X007683Y014796D03*
X007683Y014786D03*
X007673Y014776D03*
X007663Y014756D03*
X007663Y014746D03*
X007653Y014736D03*
X007653Y014726D03*
X007643Y014706D03*
X008263Y014476D03*
X008793Y015196D03*
X008793Y015206D03*
X009623Y015356D03*
X009703Y015196D03*
X010023Y013926D03*
X009243Y013856D03*
X009243Y013586D03*
X009243Y013576D03*
X009653Y012746D03*
X008873Y012726D03*
X007693Y013246D03*
X007683Y013266D03*
X007673Y013276D03*
X007673Y013286D03*
X007663Y013296D03*
X007663Y013306D03*
X007653Y013326D03*
X007653Y013336D03*
X007643Y013356D03*
X010773Y014836D03*
X010783Y014816D03*
X010793Y014806D03*
X010793Y014796D03*
X010803Y014786D03*
X010803Y014776D03*
X010813Y014766D03*
X010813Y014756D03*
X010823Y014736D03*
X010953Y013686D03*
X010953Y013676D03*
X010953Y013666D03*
X010953Y013656D03*
D96*
X010948Y013646D03*
X010948Y013636D03*
X010948Y013626D03*
X010948Y013616D03*
X010208Y014176D03*
X010018Y013936D03*
X009918Y013446D03*
X009628Y012736D03*
X008858Y012736D03*
X008828Y012746D03*
X008458Y013926D03*
X008498Y014136D03*
X008268Y014176D03*
X007698Y014826D03*
X007708Y014836D03*
X007708Y014846D03*
X007718Y014856D03*
X007728Y014866D03*
X007728Y014876D03*
X007738Y014886D03*
X007738Y014896D03*
X007748Y014906D03*
X008868Y015306D03*
X007688Y013256D03*
X007698Y013236D03*
X007708Y013226D03*
X007708Y013216D03*
X007718Y013206D03*
X007718Y013196D03*
X007728Y013186D03*
X007738Y013166D03*
X007748Y013146D03*
X010758Y014856D03*
X010758Y014866D03*
X010748Y014876D03*
X010748Y014886D03*
X010738Y014896D03*
X010768Y014846D03*
X010778Y014826D03*
D97*
X010433Y015276D03*
X010423Y015286D03*
X010413Y015296D03*
X009683Y015106D03*
X009603Y015286D03*
X009253Y015186D03*
X008803Y015116D03*
X008063Y015286D03*
X008053Y012776D03*
X008063Y012766D03*
X008073Y012756D03*
X010393Y012746D03*
X010403Y012756D03*
X010413Y012766D03*
X010893Y013336D03*
X010893Y013346D03*
D98*
X010898Y013356D03*
X010898Y013366D03*
X010448Y012796D03*
X010438Y012786D03*
X010428Y012776D03*
X009688Y015116D03*
X009608Y015296D03*
X008878Y015256D03*
X008308Y014446D03*
X008038Y015266D03*
X008048Y015276D03*
X010448Y015266D03*
X010458Y015256D03*
X010468Y015246D03*
D99*
X010473Y015236D03*
X010163Y014466D03*
X010903Y013386D03*
X010903Y013376D03*
X010463Y012806D03*
X009233Y013516D03*
X009243Y013906D03*
X008513Y013976D03*
X008803Y015126D03*
X008023Y015256D03*
X008013Y015246D03*
X008003Y015236D03*
X007993Y015226D03*
X008023Y012806D03*
X008033Y012796D03*
X008043Y012786D03*
D100*
X008008Y012816D03*
X007998Y012826D03*
X007988Y012836D03*
X007978Y012846D03*
X008498Y013966D03*
X008528Y014126D03*
X008798Y015136D03*
X008878Y015266D03*
X009248Y015176D03*
X009608Y015306D03*
X009688Y015126D03*
X009948Y014126D03*
X010508Y015206D03*
X010498Y015216D03*
X010488Y015226D03*
X010908Y013406D03*
X010908Y013396D03*
X010508Y012856D03*
X010498Y012846D03*
X010488Y012836D03*
X010478Y012826D03*
X010468Y012816D03*
X007988Y015216D03*
X007978Y015206D03*
X007968Y015196D03*
X007958Y015186D03*
D101*
X008293Y014456D03*
X008803Y015146D03*
X009693Y015136D03*
X009983Y013976D03*
X010213Y013196D03*
X010523Y012876D03*
X010513Y012866D03*
X010913Y013416D03*
X010913Y013426D03*
X010913Y013436D03*
X010543Y015166D03*
X010533Y015176D03*
X010523Y015186D03*
X010513Y015196D03*
X009243Y013896D03*
X008273Y013186D03*
X008263Y013196D03*
X008253Y013206D03*
X007953Y012876D03*
X007963Y012866D03*
X007973Y012856D03*
D102*
X007938Y012886D03*
X008248Y013216D03*
X008288Y014166D03*
X007918Y015146D03*
X007928Y015156D03*
X007938Y015166D03*
X007948Y015176D03*
X008798Y015156D03*
X008878Y015276D03*
X009608Y015316D03*
X010188Y014166D03*
X010578Y015126D03*
X010568Y015136D03*
X010558Y015146D03*
X010548Y015156D03*
X010918Y013456D03*
X010918Y013446D03*
X010548Y012896D03*
X010538Y012886D03*
X010228Y013206D03*
X010238Y013216D03*
X009238Y013526D03*
D103*
X009238Y013536D03*
X009238Y012936D03*
X008478Y013956D03*
X008208Y013256D03*
X007878Y012966D03*
X007868Y012976D03*
X007858Y012986D03*
X007888Y012946D03*
X007898Y012936D03*
X007848Y015056D03*
X007858Y015066D03*
X007878Y015096D03*
X008798Y015166D03*
X009698Y015156D03*
X010608Y015086D03*
X010618Y015076D03*
X010638Y015046D03*
X010648Y015036D03*
X009998Y013966D03*
X010288Y013266D03*
X010278Y013256D03*
X010268Y013246D03*
X010928Y013496D03*
X010928Y013506D03*
X010928Y013516D03*
D104*
X010758Y012956D03*
X009988Y015556D03*
D105*
X009633Y015026D03*
X008393Y014406D03*
X009233Y013456D03*
X009243Y012966D03*
X010813Y013076D03*
D106*
X010768Y012976D03*
X008448Y014386D03*
X008468Y015546D03*
D107*
X008433Y015536D03*
X008873Y015016D03*
X009603Y015016D03*
X010043Y015536D03*
X010043Y014406D03*
X010783Y013006D03*
X009243Y012976D03*
D108*
X009243Y013546D03*
X010003Y013956D03*
X010293Y013276D03*
X010933Y013526D03*
X010933Y013536D03*
X010663Y015016D03*
X010653Y015026D03*
X010633Y015056D03*
X010623Y015066D03*
X008473Y013946D03*
X008183Y013276D03*
X008193Y013266D03*
X007853Y012996D03*
X007843Y013006D03*
X007833Y013016D03*
X007823Y013036D03*
X007813Y013046D03*
X007793Y013076D03*
X007823Y015026D03*
X007833Y015036D03*
X007843Y015046D03*
D109*
X009218Y014626D03*
X009238Y013006D03*
D110*
X009238Y013016D03*
X009238Y014176D03*
X008528Y014366D03*
X008588Y015586D03*
D111*
X008868Y015296D03*
X008798Y015176D03*
X009248Y015156D03*
X009618Y015336D03*
X009698Y015176D03*
X009698Y015166D03*
X010668Y015006D03*
X010678Y014996D03*
X010688Y014986D03*
X010688Y014976D03*
X010698Y014966D03*
X010708Y014946D03*
X010008Y013946D03*
X009248Y013876D03*
X008468Y013936D03*
X008278Y014466D03*
X007788Y014976D03*
X007798Y014986D03*
X007798Y014996D03*
X007808Y015006D03*
X007818Y015016D03*
X007768Y014946D03*
X007758Y013126D03*
X007768Y013116D03*
X007778Y013096D03*
X007788Y013086D03*
X007798Y013066D03*
X007808Y013056D03*
X007828Y013026D03*
X010938Y013546D03*
X010938Y013556D03*
X010938Y013566D03*
D112*
X010803Y013056D03*
X010803Y013046D03*
X010103Y015506D03*
X009243Y015896D03*
D113*
X009228Y014646D03*
X009238Y013046D03*
D114*
X009238Y013056D03*
X009238Y015856D03*
D115*
X009243Y013066D03*
D116*
X009238Y013076D03*
D117*
X009238Y013096D03*
D118*
X009243Y013556D03*
X009243Y013566D03*
X009243Y013866D03*
X009983Y014136D03*
X010193Y014486D03*
X010723Y014916D03*
X010723Y014926D03*
X010713Y014936D03*
X010703Y014956D03*
X010733Y014906D03*
X010943Y013606D03*
X010943Y013596D03*
X010943Y013586D03*
X010943Y013576D03*
X009703Y015186D03*
X009623Y015346D03*
X008793Y015186D03*
X007783Y014966D03*
X007773Y014956D03*
X007763Y014936D03*
X007753Y014926D03*
X007753Y014916D03*
X007733Y013176D03*
X007743Y013156D03*
X007753Y013136D03*
X007773Y013106D03*
D119*
X009238Y013116D03*
D120*
X009668Y013906D03*
X010248Y013336D03*
X010258Y013346D03*
X010268Y013356D03*
X010278Y013366D03*
X010288Y013376D03*
X010318Y013156D03*
X010308Y013146D03*
X010298Y013136D03*
X010288Y013126D03*
X010598Y013676D03*
X010448Y014036D03*
X010438Y014046D03*
X010428Y014056D03*
X010418Y014066D03*
X010408Y014076D03*
X008248Y013326D03*
X008238Y013336D03*
X008228Y013346D03*
X008168Y013396D03*
X008158Y013406D03*
X008148Y013166D03*
X008158Y013156D03*
X008168Y013146D03*
X008178Y013136D03*
X007878Y013676D03*
X008058Y014066D03*
X008068Y014076D03*
D121*
X009238Y013136D03*
D122*
X009238Y013146D03*
X009238Y015816D03*
D123*
X009633Y015436D03*
X010173Y014576D03*
X010603Y013686D03*
X010233Y013326D03*
X010223Y013316D03*
X010203Y013306D03*
X010193Y013296D03*
X010183Y013286D03*
X010343Y013186D03*
X010343Y013176D03*
X010333Y013166D03*
X009583Y013576D03*
X008903Y013576D03*
X008723Y013576D03*
X008813Y013906D03*
X008263Y013316D03*
X008273Y013306D03*
X008283Y013296D03*
X008293Y013286D03*
X008143Y013176D03*
X007873Y013686D03*
X008013Y014016D03*
X008043Y014056D03*
X008283Y014566D03*
D124*
X009238Y013166D03*
D125*
X009238Y013176D03*
X009238Y014206D03*
X009238Y015806D03*
D126*
X009238Y013186D03*
D127*
X009238Y013196D03*
D128*
X009238Y013206D03*
D129*
X009238Y013226D03*
D130*
X009238Y013246D03*
X009238Y014216D03*
X009248Y014716D03*
D131*
X009233Y014936D03*
X009233Y014946D03*
X009233Y014956D03*
X009233Y014966D03*
X009243Y013256D03*
D132*
X009238Y013276D03*
X009228Y014906D03*
D133*
X007998Y013286D03*
X010478Y013286D03*
D134*
X009243Y013296D03*
X009233Y014856D03*
D135*
X009228Y014846D03*
X009228Y014836D03*
X009238Y013306D03*
D136*
X009238Y013326D03*
X009238Y014746D03*
X009228Y014756D03*
X009228Y014766D03*
X009228Y014776D03*
D137*
X009243Y013336D03*
D138*
X009238Y013346D03*
X009238Y015746D03*
D139*
X009243Y013366D03*
D140*
X009243Y013376D03*
D141*
X009243Y013396D03*
D142*
X009238Y013406D03*
X009238Y015726D03*
D143*
X009243Y013416D03*
D144*
X009243Y013436D03*
D145*
X008988Y013446D03*
D146*
X008813Y013506D03*
X009673Y013506D03*
X009983Y013736D03*
D147*
X009778Y013836D03*
X009658Y013716D03*
X009668Y013706D03*
X009668Y013696D03*
X009668Y013686D03*
X009778Y013586D03*
X009668Y013516D03*
X008928Y013836D03*
X008708Y013836D03*
X008698Y013586D03*
X008308Y014586D03*
X007928Y013886D03*
X007918Y013866D03*
X007908Y013846D03*
X007908Y013836D03*
X007898Y013816D03*
X007898Y013806D03*
X007888Y013796D03*
X007888Y013786D03*
X007888Y013776D03*
X007878Y013766D03*
X007878Y013756D03*
X007868Y013736D03*
X007868Y013726D03*
X007868Y013716D03*
X007868Y013706D03*
X010548Y013886D03*
X010558Y013876D03*
X010558Y013866D03*
X010568Y013856D03*
X010568Y013846D03*
X010578Y013826D03*
X010578Y013816D03*
X010588Y013806D03*
X010588Y013796D03*
X010598Y013776D03*
X010598Y013766D03*
X010608Y013746D03*
X010608Y013736D03*
X010608Y013716D03*
D148*
X010263Y014226D03*
X009823Y013796D03*
X009823Y013786D03*
X009813Y013806D03*
X009803Y013816D03*
X009663Y013746D03*
X009523Y013806D03*
X009513Y013796D03*
X009503Y013776D03*
X009503Y013646D03*
X009513Y013636D03*
X009513Y013626D03*
X009523Y013616D03*
X009823Y013636D03*
X008983Y013756D03*
X008973Y013786D03*
X008963Y013796D03*
X008813Y013746D03*
X008813Y013676D03*
X008673Y013616D03*
X008663Y013626D03*
X008653Y013646D03*
X008653Y013786D03*
X008663Y013796D03*
X008963Y013626D03*
X008973Y013636D03*
X008323Y014596D03*
D149*
X008353Y014616D03*
X008203Y014236D03*
X008303Y013746D03*
X009293Y013656D03*
D150*
X009238Y013656D03*
X010098Y014626D03*
X008308Y013666D03*
D151*
X009658Y013756D03*
D152*
X009673Y013916D03*
X010273Y014236D03*
X008813Y013916D03*
X008813Y013766D03*
D153*
X008953Y013986D03*
X009243Y014696D03*
D154*
X009243Y014016D03*
X009243Y014006D03*
X009243Y013996D03*
X009243Y015666D03*
D155*
X009238Y014056D03*
X009238Y014046D03*
X009238Y014036D03*
X009238Y014026D03*
D156*
X009243Y014066D03*
D157*
X009243Y014096D03*
D158*
X009238Y014186D03*
D159*
X009238Y014196D03*
D160*
X009233Y014226D03*
D161*
X009238Y014246D03*
D162*
X009238Y014256D03*
X009238Y015696D03*
D163*
X009238Y014266D03*
D164*
X009233Y014276D03*
D165*
X009238Y014316D03*
D166*
X009238Y014326D03*
D167*
X009238Y014336D03*
D168*
X009238Y014346D03*
D169*
X009233Y014656D03*
X009813Y014356D03*
X009243Y015846D03*
D170*
X008613Y014356D03*
D171*
X009903Y014366D03*
X009243Y015866D03*
D172*
X008493Y014376D03*
D173*
X009988Y014386D03*
D174*
X009238Y014666D03*
D175*
X009243Y014686D03*
D176*
X009243Y014736D03*
X009233Y014816D03*
X009233Y014826D03*
D177*
X009233Y014886D03*
X009233Y014896D03*
D178*
X009233Y014976D03*
X009233Y014986D03*
D179*
X009233Y015006D03*
X009243Y015786D03*
D180*
X009923Y015576D03*
X008553Y015576D03*
D181*
X008638Y015596D03*
X009848Y015596D03*
D182*
X009238Y015606D03*
D183*
X009243Y015616D03*
D184*
X009243Y015636D03*
D185*
X009238Y015686D03*
D186*
X009243Y015706D03*
D187*
X009243Y015716D03*
D188*
X009238Y015736D03*
D189*
X009238Y015776D03*
D190*
X009243Y015796D03*
M02*
