G75*
G70*
%OFA0B0*%
%FSLAX24Y24*%
%IPPOS*%
%LPD*%
%AMOC8*
5,1,8,0,0,1.08239X$1,22.5*
%
%ADD10OC8,0.0720*%
%ADD11C,0.0820*%
%ADD12C,0.0500*%
%ADD13C,0.0671*%
D10*
X001206Y001706D03*
X001206Y002706D03*
X001206Y003706D03*
X001206Y004706D03*
X001206Y005706D03*
X001206Y006706D03*
X001206Y007706D03*
X001206Y008706D03*
X001206Y009706D03*
X001206Y010706D03*
X001206Y011706D03*
X001206Y012706D03*
X001206Y013706D03*
X001206Y014706D03*
X001206Y015706D03*
X001206Y016706D03*
X001206Y017706D03*
X001206Y018706D03*
X001206Y019706D03*
X001206Y020706D03*
X002206Y020706D03*
X002206Y019706D03*
X002206Y018706D03*
X002206Y017706D03*
X002206Y016706D03*
X002206Y015706D03*
X002206Y014706D03*
X002206Y013706D03*
X002206Y012706D03*
X002206Y011706D03*
X002206Y010706D03*
X002206Y009706D03*
X002206Y008706D03*
X002206Y007706D03*
X002206Y006706D03*
X002206Y005706D03*
X002206Y004706D03*
X002206Y003706D03*
X002206Y002706D03*
X002206Y001706D03*
X008506Y001806D03*
X008506Y002806D03*
X009506Y002806D03*
X009506Y001806D03*
X010506Y001806D03*
X010506Y002806D03*
X011506Y002806D03*
X011506Y001806D03*
X012506Y001806D03*
X012506Y002806D03*
X015806Y006406D03*
X015806Y007406D03*
X015806Y008406D03*
X015806Y009406D03*
X015806Y010406D03*
X016806Y010406D03*
X016806Y009406D03*
X016806Y008406D03*
X016806Y007406D03*
X016806Y006406D03*
X016806Y015006D03*
X016806Y016006D03*
X016806Y017006D03*
X016806Y018006D03*
X016806Y019006D03*
X015806Y019006D03*
X015806Y018006D03*
X015806Y017006D03*
X015806Y016006D03*
X015806Y015006D03*
X012506Y022606D03*
X012506Y023606D03*
X011506Y023606D03*
X011506Y022606D03*
X010506Y022606D03*
X010506Y023606D03*
X009506Y023606D03*
X009506Y022606D03*
X008506Y022606D03*
X008506Y023606D03*
D11*
X005406Y002706D03*
X004406Y002706D03*
X003406Y002706D03*
D12*
X000450Y000706D02*
X000452Y000743D01*
X000458Y000780D01*
X000467Y000816D01*
X000481Y000851D01*
X000498Y000884D01*
X000518Y000915D01*
X000541Y000944D01*
X000568Y000971D01*
X000597Y000994D01*
X000628Y001014D01*
X000661Y001031D01*
X000696Y001045D01*
X000732Y001054D01*
X000769Y001060D01*
X000806Y001062D01*
X000843Y001060D01*
X000880Y001054D01*
X000916Y001045D01*
X000951Y001031D01*
X000984Y001014D01*
X001015Y000994D01*
X001044Y000971D01*
X001071Y000944D01*
X001094Y000915D01*
X001114Y000884D01*
X001131Y000851D01*
X001145Y000816D01*
X001154Y000780D01*
X001160Y000743D01*
X001162Y000706D01*
X001160Y000669D01*
X001154Y000632D01*
X001145Y000596D01*
X001131Y000561D01*
X001114Y000528D01*
X001094Y000497D01*
X001071Y000468D01*
X001044Y000441D01*
X001015Y000418D01*
X000984Y000398D01*
X000951Y000381D01*
X000916Y000367D01*
X000880Y000358D01*
X000843Y000352D01*
X000806Y000350D01*
X000769Y000352D01*
X000732Y000358D01*
X000696Y000367D01*
X000661Y000381D01*
X000628Y000398D01*
X000597Y000418D01*
X000568Y000441D01*
X000541Y000468D01*
X000518Y000497D01*
X000498Y000528D01*
X000481Y000561D01*
X000467Y000596D01*
X000458Y000632D01*
X000452Y000669D01*
X000450Y000706D01*
X017750Y001406D02*
X017752Y001443D01*
X017758Y001480D01*
X017767Y001516D01*
X017781Y001551D01*
X017798Y001584D01*
X017818Y001615D01*
X017841Y001644D01*
X017868Y001671D01*
X017897Y001694D01*
X017928Y001714D01*
X017961Y001731D01*
X017996Y001745D01*
X018032Y001754D01*
X018069Y001760D01*
X018106Y001762D01*
X018143Y001760D01*
X018180Y001754D01*
X018216Y001745D01*
X018251Y001731D01*
X018284Y001714D01*
X018315Y001694D01*
X018344Y001671D01*
X018371Y001644D01*
X018394Y001615D01*
X018414Y001584D01*
X018431Y001551D01*
X018445Y001516D01*
X018454Y001480D01*
X018460Y001443D01*
X018462Y001406D01*
X018460Y001369D01*
X018454Y001332D01*
X018445Y001296D01*
X018431Y001261D01*
X018414Y001228D01*
X018394Y001197D01*
X018371Y001168D01*
X018344Y001141D01*
X018315Y001118D01*
X018284Y001098D01*
X018251Y001081D01*
X018216Y001067D01*
X018180Y001058D01*
X018143Y001052D01*
X018106Y001050D01*
X018069Y001052D01*
X018032Y001058D01*
X017996Y001067D01*
X017961Y001081D01*
X017928Y001098D01*
X017897Y001118D01*
X017868Y001141D01*
X017841Y001168D01*
X017818Y001197D01*
X017798Y001228D01*
X017781Y001261D01*
X017767Y001296D01*
X017758Y001332D01*
X017752Y001369D01*
X017750Y001406D01*
X017750Y024706D02*
X017752Y024743D01*
X017758Y024780D01*
X017767Y024816D01*
X017781Y024851D01*
X017798Y024884D01*
X017818Y024915D01*
X017841Y024944D01*
X017868Y024971D01*
X017897Y024994D01*
X017928Y025014D01*
X017961Y025031D01*
X017996Y025045D01*
X018032Y025054D01*
X018069Y025060D01*
X018106Y025062D01*
X018143Y025060D01*
X018180Y025054D01*
X018216Y025045D01*
X018251Y025031D01*
X018284Y025014D01*
X018315Y024994D01*
X018344Y024971D01*
X018371Y024944D01*
X018394Y024915D01*
X018414Y024884D01*
X018431Y024851D01*
X018445Y024816D01*
X018454Y024780D01*
X018460Y024743D01*
X018462Y024706D01*
X018460Y024669D01*
X018454Y024632D01*
X018445Y024596D01*
X018431Y024561D01*
X018414Y024528D01*
X018394Y024497D01*
X018371Y024468D01*
X018344Y024441D01*
X018315Y024418D01*
X018284Y024398D01*
X018251Y024381D01*
X018216Y024367D01*
X018180Y024358D01*
X018143Y024352D01*
X018106Y024350D01*
X018069Y024352D01*
X018032Y024358D01*
X017996Y024367D01*
X017961Y024381D01*
X017928Y024398D01*
X017897Y024418D01*
X017868Y024441D01*
X017841Y024468D01*
X017818Y024497D01*
X017798Y024528D01*
X017781Y024561D01*
X017767Y024596D01*
X017758Y024632D01*
X017752Y024669D01*
X017750Y024706D01*
X000350Y025406D02*
X000352Y025443D01*
X000358Y025480D01*
X000367Y025516D01*
X000381Y025551D01*
X000398Y025584D01*
X000418Y025615D01*
X000441Y025644D01*
X000468Y025671D01*
X000497Y025694D01*
X000528Y025714D01*
X000561Y025731D01*
X000596Y025745D01*
X000632Y025754D01*
X000669Y025760D01*
X000706Y025762D01*
X000743Y025760D01*
X000780Y025754D01*
X000816Y025745D01*
X000851Y025731D01*
X000884Y025714D01*
X000915Y025694D01*
X000944Y025671D01*
X000971Y025644D01*
X000994Y025615D01*
X001014Y025584D01*
X001031Y025551D01*
X001045Y025516D01*
X001054Y025480D01*
X001060Y025443D01*
X001062Y025406D01*
X001060Y025369D01*
X001054Y025332D01*
X001045Y025296D01*
X001031Y025261D01*
X001014Y025228D01*
X000994Y025197D01*
X000971Y025168D01*
X000944Y025141D01*
X000915Y025118D01*
X000884Y025098D01*
X000851Y025081D01*
X000816Y025067D01*
X000780Y025058D01*
X000743Y025052D01*
X000706Y025050D01*
X000669Y025052D01*
X000632Y025058D01*
X000596Y025067D01*
X000561Y025081D01*
X000528Y025098D01*
X000497Y025118D01*
X000468Y025141D01*
X000441Y025168D01*
X000418Y025197D01*
X000398Y025228D01*
X000381Y025261D01*
X000367Y025296D01*
X000358Y025332D01*
X000352Y025369D01*
X000350Y025406D01*
D13*
X000806Y000706D03*
X018106Y001406D03*
X018106Y024706D03*
X000706Y025406D03*
M02*
