G75*
G70*
%OFA0B0*%
%FSLAX24Y24*%
%IPPOS*%
%LPD*%
%AMOC8*
5,1,8,0,0,1.08239X$1,22.5*
%
%ADD10C,0.0000*%
%ADD11C,0.0060*%
%ADD12C,0.0080*%
%ADD13C,0.0050*%
%ADD14C,0.0020*%
%ADD15R,0.0320X0.0010*%
%ADD16R,0.0340X0.0010*%
%ADD17R,0.0120X0.0010*%
%ADD18R,0.0420X0.0010*%
%ADD19R,0.0560X0.0010*%
%ADD20R,0.0680X0.0010*%
%ADD21R,0.0780X0.0010*%
%ADD22R,0.0880X0.0010*%
%ADD23R,0.0960X0.0010*%
%ADD24R,0.1020X0.0010*%
%ADD25R,0.1100X0.0010*%
%ADD26R,0.1160X0.0010*%
%ADD27R,0.1220X0.0010*%
%ADD28R,0.1290X0.0010*%
%ADD29R,0.1360X0.0010*%
%ADD30R,0.1410X0.0010*%
%ADD31R,0.1450X0.0010*%
%ADD32R,0.1500X0.0010*%
%ADD33R,0.1530X0.0010*%
%ADD34R,0.1570X0.0010*%
%ADD35R,0.1630X0.0010*%
%ADD36R,0.1670X0.0010*%
%ADD37R,0.1710X0.0010*%
%ADD38R,0.1750X0.0010*%
%ADD39R,0.1790X0.0010*%
%ADD40R,0.1820X0.0010*%
%ADD41R,0.1860X0.0010*%
%ADD42R,0.1890X0.0010*%
%ADD43R,0.1930X0.0010*%
%ADD44R,0.1950X0.0010*%
%ADD45R,0.1990X0.0010*%
%ADD46R,0.2030X0.0010*%
%ADD47R,0.2050X0.0010*%
%ADD48R,0.2090X0.0010*%
%ADD49R,0.2120X0.0010*%
%ADD50R,0.0910X0.0010*%
%ADD51R,0.0860X0.0010*%
%ADD52R,0.0790X0.0010*%
%ADD53R,0.0760X0.0010*%
%ADD54R,0.0770X0.0010*%
%ADD55R,0.0740X0.0010*%
%ADD56R,0.0710X0.0010*%
%ADD57R,0.0720X0.0010*%
%ADD58R,0.0690X0.0010*%
%ADD59R,0.0670X0.0010*%
%ADD60R,0.0650X0.0010*%
%ADD61R,0.0630X0.0010*%
%ADD62R,0.0610X0.0010*%
%ADD63R,0.0050X0.0010*%
%ADD64R,0.0620X0.0010*%
%ADD65R,0.0600X0.0010*%
%ADD66R,0.0090X0.0010*%
%ADD67R,0.0080X0.0010*%
%ADD68R,0.0110X0.0010*%
%ADD69R,0.0590X0.0010*%
%ADD70R,0.0580X0.0010*%
%ADD71R,0.0150X0.0010*%
%ADD72R,0.0140X0.0010*%
%ADD73R,0.0570X0.0010*%
%ADD74R,0.0180X0.0010*%
%ADD75R,0.0190X0.0010*%
%ADD76R,0.0200X0.0010*%
%ADD77R,0.0550X0.0010*%
%ADD78R,0.0210X0.0010*%
%ADD79R,0.0220X0.0010*%
%ADD80R,0.0540X0.0010*%
%ADD81R,0.0230X0.0010*%
%ADD82R,0.0240X0.0010*%
%ADD83R,0.0250X0.0010*%
%ADD84R,0.0260X0.0010*%
%ADD85R,0.0530X0.0010*%
%ADD86R,0.0280X0.0010*%
%ADD87R,0.0270X0.0010*%
%ADD88R,0.0520X0.0010*%
%ADD89R,0.0290X0.0010*%
%ADD90R,0.0310X0.0010*%
%ADD91R,0.0300X0.0010*%
%ADD92R,0.0510X0.0010*%
%ADD93R,0.0500X0.0010*%
%ADD94R,0.0330X0.0010*%
%ADD95R,0.0350X0.0010*%
%ADD96R,0.0490X0.0010*%
%ADD97R,0.0360X0.0010*%
%ADD98R,0.0370X0.0010*%
%ADD99R,0.0480X0.0010*%
%ADD100R,0.0470X0.0010*%
%ADD101R,0.0460X0.0010*%
%ADD102R,0.0450X0.0010*%
%ADD103R,0.0440X0.0010*%
%ADD104R,0.0430X0.0010*%
%ADD105R,0.0410X0.0010*%
%ADD106R,0.0750X0.0010*%
%ADD107R,0.0640X0.0010*%
%ADD108R,0.0730X0.0010*%
%ADD109R,0.0700X0.0010*%
%ADD110R,0.0400X0.0010*%
%ADD111R,0.0830X0.0010*%
%ADD112R,0.0870X0.0010*%
%ADD113R,0.0390X0.0010*%
%ADD114R,0.0660X0.0010*%
%ADD115R,0.0990X0.0010*%
%ADD116R,0.1010X0.0010*%
%ADD117R,0.1040X0.0010*%
%ADD118R,0.1070X0.0010*%
%ADD119R,0.1130X0.0010*%
%ADD120R,0.0380X0.0010*%
%ADD121R,0.1190X0.0010*%
%ADD122R,0.0170X0.0010*%
%ADD123R,0.1250X0.0010*%
%ADD124R,0.1270X0.0010*%
%ADD125R,0.0160X0.0010*%
%ADD126R,0.1310X0.0010*%
%ADD127R,0.1330X0.0010*%
%ADD128R,0.1350X0.0010*%
%ADD129R,0.1370X0.0010*%
%ADD130R,0.1390X0.0010*%
%ADD131R,0.1430X0.0010*%
%ADD132R,0.1470X0.0010*%
%ADD133R,0.1480X0.0010*%
%ADD134R,0.1510X0.0010*%
%ADD135R,0.0030X0.0010*%
%ADD136R,0.1540X0.0010*%
%ADD137R,0.1550X0.0010*%
%ADD138R,0.1590X0.0010*%
%ADD139R,0.1600X0.0010*%
%ADD140R,0.1610X0.0010*%
%ADD141R,0.1640X0.0010*%
%ADD142R,0.1660X0.0010*%
%ADD143R,0.1680X0.0010*%
%ADD144R,0.1690X0.0010*%
%ADD145R,0.1700X0.0010*%
%ADD146R,0.1720X0.0010*%
%ADD147R,0.1230X0.0010*%
%ADD148R,0.0020X0.0010*%
%ADD149R,0.0130X0.0010*%
%ADD150R,0.0100X0.0010*%
%ADD151R,0.0040X0.0010*%
%ADD152R,0.0010X0.0010*%
%ADD153R,0.0070X0.0010*%
%ADD154R,0.0060X0.0010*%
%ADD155R,0.1340X0.0010*%
%ADD156R,0.1920X0.0010*%
%ADD157R,0.1910X0.0010*%
%ADD158R,0.1900X0.0010*%
%ADD159R,0.1880X0.0010*%
%ADD160R,0.1050X0.0010*%
%ADD161R,0.1210X0.0010*%
%ADD162R,0.1580X0.0010*%
%ADD163R,0.1730X0.0010*%
%ADD164R,0.1810X0.0010*%
%ADD165R,0.1870X0.0010*%
%ADD166R,0.1960X0.0010*%
%ADD167R,0.2130X0.0010*%
%ADD168R,0.2170X0.0010*%
%ADD169R,0.2190X0.0010*%
%ADD170R,0.2210X0.0010*%
%ADD171R,0.1080X0.0010*%
%ADD172R,0.1000X0.0010*%
%ADD173R,0.0940X0.0010*%
%ADD174R,0.0800X0.0010*%
%ADD175R,0.0810X0.0010*%
%ADD176R,0.1170X0.0010*%
%ADD177R,0.1280X0.0010*%
%ADD178R,0.1560X0.0010*%
%ADD179R,0.1520X0.0010*%
%ADD180R,0.1460X0.0010*%
%ADD181R,0.1440X0.0010*%
%ADD182R,0.0820X0.0010*%
%ADD183R,0.0930X0.0010*%
%ADD184R,0.2110X0.0010*%
%ADD185R,0.2080X0.0010*%
%ADD186R,0.2020X0.0010*%
%ADD187R,0.1850X0.0010*%
%ADD188R,0.1780X0.0010*%
%ADD189R,0.1740X0.0010*%
%ADD190R,0.1650X0.0010*%
%ADD191R,0.1490X0.0010*%
%ADD192R,0.1380X0.0010*%
D10*
X000306Y000206D02*
X000306Y025803D01*
X019277Y025803D01*
X019277Y000206D01*
X000306Y000206D01*
D11*
X000956Y001206D02*
X000706Y001456D01*
X000706Y001956D01*
X000956Y002206D01*
X000706Y002456D01*
X000706Y002956D01*
X000956Y003206D01*
X000706Y003456D01*
X000706Y003956D01*
X000956Y004206D01*
X000706Y004456D01*
X000706Y004956D01*
X000956Y005206D01*
X000706Y005456D01*
X000706Y005956D01*
X000956Y006206D01*
X000706Y006456D01*
X000706Y006956D01*
X000956Y007206D01*
X000706Y007456D01*
X000706Y007956D01*
X000956Y008206D01*
X000706Y008456D01*
X000706Y008956D01*
X000956Y009206D01*
X000706Y009456D01*
X000706Y009956D01*
X000956Y010206D01*
X000706Y010456D01*
X000706Y010956D01*
X000956Y011206D01*
X000706Y011456D01*
X000706Y011956D01*
X000956Y012206D01*
X000706Y012456D01*
X000706Y012956D01*
X000956Y013206D01*
X000706Y013456D01*
X000706Y013956D01*
X000956Y014206D01*
X000706Y014456D01*
X000706Y014956D01*
X000956Y015206D01*
X000706Y015456D01*
X000706Y015956D01*
X000956Y016206D01*
X000706Y016456D01*
X000706Y016956D01*
X000956Y017206D01*
X000706Y017456D01*
X000706Y017956D01*
X000956Y018206D01*
X000706Y018456D01*
X000706Y018956D01*
X000956Y019206D01*
X000706Y019456D01*
X000706Y019956D01*
X000956Y020206D01*
X000706Y020206D02*
X000706Y020906D01*
X000706Y021006D01*
X000906Y021206D01*
X000806Y021206D01*
X000706Y021106D01*
X000706Y021006D01*
X000706Y020906D02*
X001006Y021206D01*
X000906Y021206D01*
X000806Y021206D02*
X000706Y021206D01*
X000706Y021106D01*
X001006Y021206D02*
X001706Y021206D01*
X001706Y020206D01*
X000706Y020206D01*
X001706Y021206D02*
X002456Y021206D01*
X002706Y020956D01*
X002706Y020456D01*
X002456Y020206D01*
X002706Y019956D01*
X002706Y019456D01*
X002456Y019206D01*
X002706Y018956D01*
X002706Y018456D01*
X002456Y018206D01*
X002706Y017956D01*
X002706Y017456D01*
X002456Y017206D01*
X002706Y016956D01*
X002706Y016456D01*
X002456Y016206D01*
X002706Y015956D01*
X002706Y015456D01*
X002456Y015206D01*
X002706Y014956D01*
X002706Y014456D01*
X002456Y014206D01*
X002706Y013956D01*
X002706Y013456D01*
X002456Y013206D01*
X002706Y012956D01*
X002706Y012456D01*
X002456Y012206D01*
X002706Y011956D01*
X002706Y011456D01*
X002456Y011206D01*
X002706Y010956D01*
X002706Y010456D01*
X002456Y010206D01*
X002706Y009956D01*
X002706Y009456D01*
X002456Y009206D01*
X002706Y008956D01*
X002706Y008456D01*
X002456Y008206D01*
X002706Y007956D01*
X002706Y007456D01*
X002456Y007206D01*
X002706Y006956D01*
X002706Y006456D01*
X002456Y006206D01*
X002706Y005956D01*
X002706Y005456D01*
X002456Y005206D01*
X002706Y004956D01*
X002706Y004456D01*
X002456Y004206D01*
X002706Y003956D01*
X002706Y003456D01*
X002456Y003206D01*
X002706Y002956D01*
X002706Y002456D01*
X002456Y002206D01*
X002706Y001956D01*
X002706Y001456D01*
X002456Y001206D01*
X000956Y001206D01*
X003093Y003336D02*
X003036Y003393D01*
X003093Y003336D02*
X003207Y003336D01*
X003263Y003393D01*
X003263Y003507D01*
X003207Y003563D01*
X003150Y003563D01*
X003036Y003507D01*
X003036Y003677D01*
X003263Y003677D01*
X003405Y003677D02*
X003405Y003450D01*
X003518Y003336D01*
X003632Y003450D01*
X003632Y003677D01*
X003773Y003620D02*
X003830Y003677D01*
X003943Y003677D01*
X004000Y003620D01*
X003773Y003393D01*
X003830Y003336D01*
X003943Y003336D01*
X004000Y003393D01*
X004000Y003620D01*
X003773Y003620D02*
X003773Y003393D01*
X004936Y003393D02*
X004993Y003336D01*
X005107Y003336D01*
X005163Y003393D01*
X005163Y003450D01*
X005107Y003507D01*
X005050Y003507D01*
X005107Y003507D02*
X005163Y003563D01*
X005163Y003620D01*
X005107Y003677D01*
X004993Y003677D01*
X004936Y003620D01*
X005305Y003677D02*
X005305Y003450D01*
X005418Y003336D01*
X005532Y003450D01*
X005532Y003677D01*
X005673Y003620D02*
X005730Y003677D01*
X005843Y003677D01*
X005900Y003620D01*
X005900Y003563D01*
X005843Y003507D01*
X005900Y003450D01*
X005900Y003393D01*
X005843Y003336D01*
X005730Y003336D01*
X005673Y003393D01*
X005787Y003507D02*
X005843Y003507D01*
X006636Y011323D02*
X006636Y011663D01*
X006807Y011663D01*
X006863Y011607D01*
X006863Y011493D01*
X006807Y011436D01*
X006636Y011436D01*
X007005Y011493D02*
X007062Y011436D01*
X007232Y011436D01*
X007232Y011607D01*
X007175Y011663D01*
X007062Y011663D01*
X007062Y011550D02*
X007232Y011550D01*
X007062Y011550D02*
X007005Y011493D01*
X007373Y011663D02*
X007487Y011663D01*
X007430Y011720D02*
X007430Y011493D01*
X007487Y011436D01*
X007675Y011493D02*
X007732Y011436D01*
X007675Y011493D02*
X007675Y011720D01*
X007619Y011663D02*
X007732Y011663D01*
X007864Y011607D02*
X007921Y011663D01*
X008034Y011663D01*
X008091Y011607D01*
X008091Y011550D01*
X007864Y011550D01*
X007864Y011493D02*
X007864Y011607D01*
X007864Y011493D02*
X007921Y011436D01*
X008034Y011436D01*
X008233Y011436D02*
X008233Y011663D01*
X008346Y011663D02*
X008403Y011663D01*
X008346Y011663D02*
X008233Y011550D01*
X008539Y011436D02*
X008539Y011663D01*
X008710Y011663D01*
X008766Y011607D01*
X008766Y011436D01*
X008908Y011493D02*
X008964Y011550D01*
X009135Y011550D01*
X009135Y011607D02*
X009135Y011436D01*
X008964Y011436D01*
X008908Y011493D01*
X008964Y011663D02*
X009078Y011663D01*
X009135Y011607D01*
X009276Y011607D02*
X009276Y011493D01*
X009333Y011436D01*
X009503Y011436D01*
X009503Y011380D02*
X009503Y011663D01*
X009333Y011663D01*
X009276Y011607D01*
X009390Y011323D02*
X009446Y011323D01*
X009503Y011380D01*
X009644Y011493D02*
X009644Y011607D01*
X009701Y011663D01*
X009815Y011663D01*
X009871Y011607D01*
X009871Y011550D01*
X009644Y011550D01*
X009644Y011493D02*
X009701Y011436D01*
X009815Y011436D01*
X010013Y011436D02*
X010013Y011663D01*
X010183Y011663D01*
X010240Y011607D01*
X010240Y011436D01*
X010438Y011493D02*
X010494Y011436D01*
X010438Y011493D02*
X010438Y011720D01*
X010494Y011663D02*
X010381Y011663D01*
X010627Y011607D02*
X010683Y011663D01*
X010853Y011663D01*
X010797Y011550D02*
X010683Y011550D01*
X010627Y011607D01*
X010627Y011436D02*
X010797Y011436D01*
X010853Y011493D01*
X010797Y011550D01*
X010995Y011493D02*
X010995Y011436D01*
X011052Y011436D01*
X011052Y011493D01*
X010995Y011493D01*
X011179Y011493D02*
X011236Y011436D01*
X011406Y011436D01*
X011547Y011493D02*
X011604Y011436D01*
X011717Y011436D01*
X011774Y011493D01*
X011774Y011607D01*
X011717Y011663D01*
X011604Y011663D01*
X011547Y011607D01*
X011547Y011493D01*
X011406Y011663D02*
X011236Y011663D01*
X011179Y011607D01*
X011179Y011493D01*
X011916Y011436D02*
X011916Y011663D01*
X011972Y011663D01*
X012029Y011607D01*
X012086Y011663D01*
X012143Y011607D01*
X012143Y011436D01*
X012029Y011436D02*
X012029Y011607D01*
X014686Y012593D02*
X014743Y012536D01*
X014800Y012536D01*
X014857Y012593D01*
X014857Y012877D01*
X014913Y012877D02*
X014800Y012877D01*
X015055Y012820D02*
X015112Y012877D01*
X015225Y012877D01*
X015282Y012820D01*
X015282Y012763D01*
X015225Y012707D01*
X015282Y012650D01*
X015282Y012593D01*
X015225Y012536D01*
X015112Y012536D01*
X015055Y012593D01*
X015168Y012707D02*
X015225Y012707D01*
X015225Y021136D02*
X015225Y021477D01*
X015055Y021307D01*
X015282Y021307D01*
X014913Y021477D02*
X014800Y021477D01*
X014857Y021477D02*
X014857Y021193D01*
X014800Y021136D01*
X014743Y021136D01*
X014686Y021193D01*
X006376Y022443D02*
X006376Y022500D01*
X006320Y022557D01*
X006036Y022557D01*
X006036Y022613D02*
X006036Y022500D01*
X006036Y022755D02*
X006206Y022755D01*
X006150Y022868D01*
X006150Y022925D01*
X006206Y022982D01*
X006320Y022982D01*
X006376Y022925D01*
X006376Y022812D01*
X006320Y022755D01*
X006036Y022755D02*
X006036Y022982D01*
X006376Y022443D02*
X006320Y022386D01*
X006086Y022063D02*
X006143Y022007D01*
X006143Y021836D01*
X006029Y021836D02*
X006029Y022007D01*
X006086Y022063D01*
X006029Y022007D02*
X005972Y022063D01*
X005916Y022063D01*
X005916Y021836D01*
X005774Y021893D02*
X005774Y022007D01*
X005717Y022063D01*
X005604Y022063D01*
X005547Y022007D01*
X005547Y021893D01*
X005604Y021836D01*
X005717Y021836D01*
X005774Y021893D01*
X005406Y021836D02*
X005236Y021836D01*
X005179Y021893D01*
X005179Y022007D01*
X005236Y022063D01*
X005406Y022063D01*
X005052Y021893D02*
X005052Y021836D01*
X004995Y021836D01*
X004995Y021893D01*
X005052Y021893D01*
X004853Y021893D02*
X004797Y021950D01*
X004683Y021950D01*
X004627Y022007D01*
X004683Y022063D01*
X004853Y022063D01*
X004853Y021893D02*
X004797Y021836D01*
X004627Y021836D01*
X004494Y021836D02*
X004438Y021893D01*
X004438Y022120D01*
X004494Y022063D02*
X004381Y022063D01*
X004240Y022007D02*
X004240Y021836D01*
X004240Y022007D02*
X004183Y022063D01*
X004013Y022063D01*
X004013Y021836D01*
X003871Y021950D02*
X003644Y021950D01*
X003644Y022007D02*
X003701Y022063D01*
X003815Y022063D01*
X003871Y022007D01*
X003871Y021950D01*
X003815Y021836D02*
X003701Y021836D01*
X003644Y021893D01*
X003644Y022007D01*
X003503Y022063D02*
X003333Y022063D01*
X003276Y022007D01*
X003276Y021893D01*
X003333Y021836D01*
X003503Y021836D01*
X003503Y021780D02*
X003503Y022063D01*
X003503Y021780D02*
X003446Y021723D01*
X003390Y021723D01*
X003135Y021836D02*
X003135Y022007D01*
X003078Y022063D01*
X002964Y022063D01*
X002964Y021950D02*
X003135Y021950D01*
X003135Y021836D02*
X002964Y021836D01*
X002908Y021893D01*
X002964Y021950D01*
X002766Y022007D02*
X002766Y021836D01*
X002766Y022007D02*
X002710Y022063D01*
X002539Y022063D01*
X002539Y021836D01*
X002403Y022063D02*
X002346Y022063D01*
X002233Y021950D01*
X002233Y022063D02*
X002233Y021836D01*
X002091Y021950D02*
X001864Y021950D01*
X001864Y022007D02*
X001921Y022063D01*
X002034Y022063D01*
X002091Y022007D01*
X002091Y021950D01*
X002034Y021836D02*
X001921Y021836D01*
X001864Y021893D01*
X001864Y022007D01*
X001732Y022063D02*
X001619Y022063D01*
X001675Y022120D02*
X001675Y021893D01*
X001732Y021836D01*
X001487Y021836D02*
X001430Y021893D01*
X001430Y022120D01*
X001373Y022063D02*
X001487Y022063D01*
X001232Y022007D02*
X001232Y021836D01*
X001062Y021836D01*
X001005Y021893D01*
X001062Y021950D01*
X001232Y021950D01*
X001232Y022007D02*
X001175Y022063D01*
X001062Y022063D01*
X000863Y022007D02*
X000863Y021893D01*
X000807Y021836D01*
X000636Y021836D01*
X000636Y021723D02*
X000636Y022063D01*
X000807Y022063D01*
X000863Y022007D01*
X014693Y003782D02*
X014636Y003725D01*
X014636Y003612D01*
X014693Y003555D01*
X014636Y003413D02*
X014636Y003300D01*
X014636Y003357D02*
X014920Y003357D01*
X014976Y003300D01*
X014976Y003243D01*
X014920Y003186D01*
X014976Y003555D02*
X014750Y003782D01*
X014693Y003782D01*
X014976Y003782D02*
X014976Y003555D01*
D12*
X014483Y004078D02*
X014483Y000574D01*
X014483Y000535D02*
X006530Y000535D01*
X006530Y004078D01*
X009640Y004078D01*
X009640Y003488D01*
X011373Y003488D01*
X011373Y004078D01*
X014483Y004078D01*
X014535Y004430D02*
X018078Y004430D01*
X018078Y012383D01*
X018039Y012383D02*
X014535Y012383D01*
X014535Y009273D01*
X015125Y009273D01*
X015125Y007540D01*
X014535Y007540D01*
X014535Y009273D01*
X015214Y010156D02*
X015214Y010656D01*
X014535Y013030D02*
X018078Y013030D01*
X018078Y020983D01*
X018039Y020983D02*
X014535Y020983D01*
X014535Y017873D01*
X015125Y017873D01*
X015125Y016140D01*
X014535Y016140D01*
X014535Y017873D01*
X015214Y018756D02*
X015214Y019256D01*
X014483Y021335D02*
X014483Y024878D01*
X006530Y024878D01*
X006530Y024839D02*
X006530Y021335D01*
X009640Y021335D01*
X009640Y021925D01*
X011373Y021925D01*
X011373Y021335D01*
X009640Y021335D01*
X008756Y022014D02*
X008256Y022014D01*
X006323Y024246D02*
X006323Y024487D01*
X006243Y024567D01*
X006003Y024567D01*
X006003Y024246D01*
X005819Y024246D02*
X005659Y024246D01*
X005739Y024246D02*
X005739Y024567D01*
X005659Y024567D01*
X005739Y024727D02*
X005739Y024807D01*
X005632Y025046D02*
X005552Y025127D01*
X005552Y025447D01*
X005472Y025367D02*
X005632Y025367D01*
X005815Y025287D02*
X005815Y025127D01*
X005895Y025046D01*
X006056Y025046D01*
X006136Y025127D01*
X006136Y025287D01*
X006056Y025367D01*
X005895Y025367D01*
X005815Y025287D01*
X005384Y024727D02*
X005464Y024647D01*
X005464Y024487D01*
X005384Y024407D01*
X005143Y024407D01*
X005143Y024246D02*
X005143Y024727D01*
X005384Y024727D01*
X004761Y025127D02*
X004681Y025046D01*
X004520Y025046D01*
X004440Y025127D01*
X004520Y025287D02*
X004440Y025367D01*
X004440Y025447D01*
X004520Y025527D01*
X004681Y025527D01*
X004761Y025447D01*
X004681Y025287D02*
X004520Y025287D01*
X004681Y025287D02*
X004761Y025207D01*
X004761Y025127D01*
X004284Y024727D02*
X004444Y024567D01*
X004444Y024407D01*
X004284Y024246D01*
X004089Y024327D02*
X004009Y024246D01*
X003849Y024246D01*
X003768Y024327D01*
X004089Y024647D01*
X004089Y024327D01*
X004089Y024647D02*
X004009Y024727D01*
X003849Y024727D01*
X003768Y024647D01*
X003768Y024327D01*
X003573Y024246D02*
X003253Y024246D01*
X003413Y024246D02*
X003413Y024727D01*
X003253Y024567D01*
X003069Y024727D02*
X002909Y024567D01*
X002909Y024407D01*
X003069Y024246D01*
X003002Y023767D02*
X002842Y023767D01*
X002762Y023687D01*
X002762Y023527D01*
X002842Y023446D01*
X003002Y023446D01*
X003082Y023527D01*
X003082Y023687D01*
X003002Y023767D01*
X003278Y023687D02*
X003358Y023767D01*
X003598Y023767D01*
X003598Y023927D02*
X003598Y023446D01*
X003358Y023446D01*
X003278Y023527D01*
X003278Y023687D01*
X002882Y023227D02*
X002882Y022746D01*
X002642Y022746D01*
X002562Y022827D01*
X002562Y022987D01*
X002642Y023067D01*
X002882Y023067D01*
X003078Y022827D02*
X003158Y022907D01*
X003398Y022907D01*
X003398Y022987D02*
X003398Y022746D01*
X003158Y022746D01*
X003078Y022827D01*
X003158Y023067D02*
X003318Y023067D01*
X003398Y022987D01*
X003593Y023067D02*
X003834Y023067D01*
X003914Y022987D01*
X003914Y022827D01*
X003834Y022746D01*
X003593Y022746D01*
X003593Y022586D02*
X003593Y023067D01*
X003873Y023446D02*
X004114Y023446D01*
X004114Y023767D01*
X004309Y023927D02*
X004389Y023927D01*
X004389Y023446D01*
X004309Y023446D02*
X004469Y023446D01*
X004653Y023527D02*
X004653Y023687D01*
X004733Y023767D01*
X004893Y023767D01*
X004973Y023687D01*
X004973Y023607D01*
X004653Y023607D01*
X004653Y023527D02*
X004733Y023446D01*
X004893Y023446D01*
X004968Y023067D02*
X004968Y022746D01*
X004968Y022907D02*
X005129Y023067D01*
X005209Y023067D01*
X004773Y022987D02*
X004773Y022907D01*
X004453Y022907D01*
X004453Y022827D02*
X004453Y022987D01*
X004533Y023067D01*
X004693Y023067D01*
X004773Y022987D01*
X004693Y022746D02*
X004533Y022746D01*
X004453Y022827D01*
X004269Y022746D02*
X004189Y022827D01*
X004189Y023147D01*
X004109Y023067D02*
X004269Y023067D01*
X003873Y023446D02*
X003793Y023527D01*
X003793Y023767D01*
X003649Y025046D02*
X003649Y025527D01*
X003409Y025287D01*
X003729Y025287D01*
X003925Y025447D02*
X004005Y025527D01*
X004165Y025527D01*
X004245Y025447D01*
X003925Y025127D01*
X004005Y025046D01*
X004165Y025046D01*
X004245Y025127D01*
X004245Y025447D01*
X003925Y025447D02*
X003925Y025127D01*
X003214Y025287D02*
X002893Y025287D01*
X002698Y025527D02*
X002698Y025046D01*
X002378Y025046D02*
X002378Y025527D01*
X002538Y025367D01*
X002698Y025527D01*
X002182Y025447D02*
X002182Y025287D01*
X002102Y025207D01*
X001862Y025207D01*
X001862Y025046D02*
X001862Y025527D01*
X002102Y025527D01*
X002182Y025447D01*
X001667Y025447D02*
X001587Y025527D01*
X001427Y025527D01*
X001346Y025447D01*
X001346Y025127D01*
X001427Y025046D01*
X001587Y025046D01*
X001667Y025127D01*
X001602Y024567D02*
X001442Y024567D01*
X001362Y024487D01*
X001362Y024327D01*
X001442Y024246D01*
X001602Y024246D01*
X001682Y024407D02*
X001362Y024407D01*
X001602Y024567D02*
X001682Y024487D01*
X001682Y024407D01*
X001878Y024246D02*
X001878Y024567D01*
X002118Y024567D01*
X002198Y024487D01*
X002198Y024246D01*
X002246Y023927D02*
X002407Y023767D01*
X002567Y023927D01*
X002567Y023446D01*
X002207Y023227D02*
X002367Y023067D01*
X002367Y022746D01*
X002367Y022987D02*
X002046Y022987D01*
X002046Y023067D02*
X002207Y023227D01*
X002246Y023446D02*
X002246Y023927D01*
X002046Y023067D02*
X002046Y022746D01*
X001007Y024246D02*
X001007Y024727D01*
X001167Y024727D02*
X000846Y024727D01*
X008378Y025167D02*
X008458Y025086D01*
X008538Y025086D01*
X008618Y025167D01*
X008618Y025567D01*
X008538Y025567D02*
X008698Y025567D01*
X008893Y025567D02*
X008893Y025327D01*
X009053Y025407D01*
X009133Y025407D01*
X009214Y025327D01*
X009214Y025167D01*
X009133Y025086D01*
X008973Y025086D01*
X008893Y025167D01*
X008893Y025567D02*
X009214Y025567D01*
X009925Y025327D02*
X010245Y025327D01*
X010956Y025487D02*
X010956Y025167D01*
X011036Y025086D01*
X011196Y025086D01*
X011276Y025167D01*
X011276Y025327D01*
X011116Y025327D01*
X011276Y025487D02*
X011196Y025567D01*
X011036Y025567D01*
X010956Y025487D01*
X011471Y025567D02*
X011471Y025086D01*
X011471Y025247D02*
X011712Y025247D01*
X011792Y025327D01*
X011792Y025487D01*
X011712Y025567D01*
X011471Y025567D01*
X011987Y025567D02*
X012147Y025567D01*
X012067Y025567D02*
X012067Y025086D01*
X011987Y025086D02*
X012147Y025086D01*
X012331Y025167D02*
X012331Y025487D01*
X012411Y025567D01*
X012571Y025567D01*
X012651Y025487D01*
X012651Y025167D01*
X012571Y025086D01*
X012411Y025086D01*
X012331Y025167D01*
X011373Y021335D02*
X014483Y021335D01*
X018446Y018971D02*
X018526Y019051D01*
X018846Y019051D01*
X018926Y018971D01*
X018926Y018811D01*
X018846Y018731D01*
X018526Y018731D01*
X018446Y018811D01*
X018446Y018971D01*
X018446Y018547D02*
X018446Y018387D01*
X018446Y018467D02*
X018926Y018467D01*
X018926Y018387D02*
X018926Y018547D01*
X018686Y018192D02*
X018526Y018192D01*
X018446Y018112D01*
X018446Y017871D01*
X018926Y017871D01*
X018766Y017871D02*
X018766Y018112D01*
X018686Y018192D01*
X018686Y017676D02*
X018686Y017516D01*
X018686Y017676D02*
X018846Y017676D01*
X018926Y017596D01*
X018926Y017436D01*
X018846Y017356D01*
X018526Y017356D01*
X018446Y017436D01*
X018446Y017596D01*
X018526Y017676D01*
X018686Y016645D02*
X018686Y016325D01*
X018686Y015614D02*
X018686Y015293D01*
X018446Y015533D01*
X018926Y015533D01*
X018846Y015018D02*
X018446Y015018D01*
X018446Y014938D02*
X018446Y015098D01*
X018846Y015018D02*
X018926Y014938D01*
X018926Y014858D01*
X018846Y014778D01*
X018846Y010551D02*
X018526Y010551D01*
X018446Y010471D01*
X018446Y010311D01*
X018526Y010231D01*
X018846Y010231D01*
X018926Y010311D01*
X018926Y010471D01*
X018846Y010551D01*
X018926Y010047D02*
X018926Y009887D01*
X018926Y009967D02*
X018446Y009967D01*
X018446Y009887D02*
X018446Y010047D01*
X018526Y009692D02*
X018686Y009692D01*
X018766Y009612D01*
X018766Y009371D01*
X018926Y009371D02*
X018446Y009371D01*
X018446Y009612D01*
X018526Y009692D01*
X018526Y009176D02*
X018446Y009096D01*
X018446Y008936D01*
X018526Y008856D01*
X018846Y008856D01*
X018926Y008936D01*
X018926Y009096D01*
X018846Y009176D01*
X018686Y009176D01*
X018686Y009016D01*
X018686Y008145D02*
X018686Y007825D01*
X018606Y007114D02*
X018686Y007033D01*
X018766Y007114D01*
X018846Y007114D01*
X018926Y007033D01*
X018926Y006873D01*
X018846Y006793D01*
X018686Y006953D02*
X018686Y007033D01*
X018606Y007114D02*
X018526Y007114D01*
X018446Y007033D01*
X018446Y006873D01*
X018526Y006793D01*
X018446Y006598D02*
X018446Y006438D01*
X018446Y006518D02*
X018846Y006518D01*
X018926Y006438D01*
X018926Y006358D01*
X018846Y006278D01*
X017271Y000967D02*
X017111Y000967D01*
X017031Y000887D01*
X017031Y000567D01*
X017111Y000486D01*
X017271Y000486D01*
X017351Y000567D01*
X017351Y000887D02*
X017271Y000967D01*
X016835Y000887D02*
X016755Y000967D01*
X016595Y000967D01*
X016515Y000887D01*
X016332Y000967D02*
X016171Y000967D01*
X016252Y000967D02*
X016252Y000486D01*
X016332Y000486D02*
X016171Y000486D01*
X015976Y000727D02*
X015656Y000727D01*
X015460Y000807D02*
X015460Y000887D01*
X015380Y000967D01*
X015220Y000967D01*
X015140Y000887D01*
X014945Y000967D02*
X014785Y000967D01*
X014865Y000967D02*
X014865Y000567D01*
X014785Y000486D01*
X014705Y000486D01*
X014625Y000567D01*
X015140Y000486D02*
X015460Y000807D01*
X015460Y000486D02*
X015140Y000486D01*
X016515Y000486D02*
X016835Y000807D01*
X016835Y000887D01*
X016835Y000486D02*
X016515Y000486D01*
X014535Y004430D02*
X014535Y007540D01*
X012756Y003399D02*
X012256Y003399D01*
X011373Y004078D02*
X009640Y004078D01*
X005906Y002956D02*
X005906Y002456D01*
X005656Y002206D01*
X005156Y002206D01*
X004906Y002456D01*
X004656Y002206D01*
X004156Y002206D01*
X003906Y002456D01*
X003656Y002206D01*
X003156Y002206D01*
X002906Y002456D01*
X002906Y002956D01*
X003156Y003206D01*
X003656Y003206D01*
X003906Y002956D01*
X004156Y003206D01*
X004656Y003206D01*
X004906Y002956D01*
X005156Y003206D01*
X005656Y003206D01*
X005906Y002956D01*
X014535Y013030D02*
X014535Y016140D01*
D13*
X014380Y016057D02*
X014380Y016012D01*
X014335Y015967D01*
X014380Y015922D01*
X014380Y015877D01*
X014335Y015831D01*
X014244Y015831D01*
X014199Y015877D01*
X014085Y015877D02*
X014040Y015831D01*
X013905Y015831D01*
X013905Y016102D01*
X014040Y016102D01*
X014085Y016057D01*
X014085Y016012D01*
X014040Y015967D01*
X013905Y015967D01*
X013790Y015967D02*
X013745Y015922D01*
X013610Y015922D01*
X013610Y015831D02*
X013610Y016102D01*
X013745Y016102D01*
X013790Y016057D01*
X013790Y015967D01*
X013496Y016102D02*
X013315Y015831D01*
X013201Y015831D02*
X013021Y015831D01*
X013201Y016012D01*
X013201Y016057D01*
X013156Y016102D01*
X013066Y016102D01*
X013021Y016057D01*
X012906Y016057D02*
X012906Y016012D01*
X012861Y015967D01*
X012726Y015967D01*
X012612Y015967D02*
X012567Y015922D01*
X012431Y015922D01*
X012431Y015831D02*
X012431Y016102D01*
X012567Y016102D01*
X012612Y016057D01*
X012612Y015967D01*
X012726Y016102D02*
X012726Y015831D01*
X012861Y015831D01*
X012906Y015877D01*
X012906Y015922D01*
X012861Y015967D01*
X012906Y016057D02*
X012861Y016102D01*
X012726Y016102D01*
X012726Y016831D02*
X012861Y016831D01*
X012906Y016877D01*
X012906Y016922D01*
X012861Y016967D01*
X012726Y016967D01*
X012612Y016967D02*
X012612Y017057D01*
X012567Y017102D01*
X012431Y017102D01*
X012431Y016831D01*
X012431Y016922D02*
X012567Y016922D01*
X012612Y016967D01*
X012726Y017102D02*
X012861Y017102D01*
X012906Y017057D01*
X012906Y017012D01*
X012861Y016967D01*
X013021Y016967D02*
X013201Y016967D01*
X013156Y017102D02*
X013156Y016831D01*
X013315Y016831D02*
X013496Y017102D01*
X013610Y017102D02*
X013745Y017102D01*
X013790Y017057D01*
X013790Y016967D01*
X013745Y016922D01*
X013610Y016922D01*
X013610Y016831D02*
X013610Y017102D01*
X013905Y017102D02*
X013905Y016831D01*
X014040Y016831D01*
X014085Y016877D01*
X014085Y016922D01*
X014040Y016967D01*
X013905Y016967D01*
X013905Y017102D02*
X014040Y017102D01*
X014085Y017057D01*
X014085Y017012D01*
X014040Y016967D01*
X014199Y016967D02*
X014289Y017012D01*
X014335Y017012D01*
X014380Y016967D01*
X014380Y016877D01*
X014335Y016831D01*
X014244Y016831D01*
X014199Y016877D01*
X014199Y016967D02*
X014199Y017102D01*
X014380Y017102D01*
X014199Y017831D02*
X014199Y017877D01*
X014380Y018057D01*
X014380Y018102D01*
X014199Y018102D01*
X014085Y018057D02*
X014085Y018012D01*
X014040Y017967D01*
X013905Y017967D01*
X013790Y017967D02*
X013790Y018057D01*
X013745Y018102D01*
X013610Y018102D01*
X013610Y017831D01*
X013610Y017922D02*
X013745Y017922D01*
X013790Y017967D01*
X013905Y018102D02*
X014040Y018102D01*
X014085Y018057D01*
X014040Y017967D02*
X014085Y017922D01*
X014085Y017877D01*
X014040Y017831D01*
X013905Y017831D01*
X013905Y018102D01*
X013496Y018102D02*
X013315Y017831D01*
X013201Y017877D02*
X013201Y017922D01*
X013156Y017967D01*
X013021Y017967D01*
X013021Y017877D01*
X013066Y017831D01*
X013156Y017831D01*
X013201Y017877D01*
X013111Y018057D02*
X013021Y017967D01*
X012906Y018012D02*
X012861Y017967D01*
X012726Y017967D01*
X012612Y017967D02*
X012612Y018057D01*
X012567Y018102D01*
X012431Y018102D01*
X012431Y017831D01*
X012431Y017922D02*
X012567Y017922D01*
X012612Y017967D01*
X012726Y018102D02*
X012861Y018102D01*
X012906Y018057D01*
X012906Y018012D01*
X012861Y017967D02*
X012906Y017922D01*
X012906Y017877D01*
X012861Y017831D01*
X012726Y017831D01*
X012726Y018102D01*
X013111Y018057D02*
X013201Y018102D01*
X013156Y018831D02*
X013201Y018877D01*
X013156Y018831D02*
X013066Y018831D01*
X013021Y018877D01*
X013021Y019057D01*
X013066Y019102D01*
X013156Y019102D01*
X013201Y019057D01*
X013315Y018831D02*
X013496Y019102D01*
X013610Y019057D02*
X013610Y018877D01*
X013655Y018831D01*
X013745Y018831D01*
X013790Y018877D01*
X013790Y018967D01*
X013700Y018967D01*
X013610Y019057D02*
X013655Y019102D01*
X013745Y019102D01*
X013790Y019057D01*
X013905Y019102D02*
X014085Y018831D01*
X014085Y019102D01*
X014199Y019102D02*
X014335Y019102D01*
X014380Y019057D01*
X014380Y018877D01*
X014335Y018831D01*
X014199Y018831D01*
X014199Y019102D01*
X013905Y019102D02*
X013905Y018831D01*
X012906Y018877D02*
X012861Y018831D01*
X012771Y018831D01*
X012726Y018877D01*
X012726Y019057D01*
X012771Y019102D01*
X012861Y019102D01*
X012906Y019057D01*
X012681Y019231D02*
X012411Y019231D01*
X012411Y019367D01*
X012456Y019412D01*
X012546Y019412D01*
X012591Y019367D01*
X012591Y019231D01*
X012612Y019102D02*
X012612Y018922D01*
X012522Y018831D01*
X012431Y018922D01*
X012431Y019102D01*
X012456Y019526D02*
X012411Y019571D01*
X012411Y019661D01*
X012456Y019706D01*
X012456Y019821D02*
X012411Y019866D01*
X012411Y019956D01*
X012456Y020001D01*
X012636Y019821D01*
X012681Y019866D01*
X012681Y019956D01*
X012636Y020001D01*
X012456Y020001D01*
X012456Y019821D02*
X012636Y019821D01*
X012636Y019706D02*
X012681Y019661D01*
X012681Y019571D01*
X012636Y019526D01*
X012456Y019526D01*
X012681Y020115D02*
X012411Y020296D01*
X012411Y020410D02*
X012411Y020545D01*
X012456Y020590D01*
X012546Y020590D01*
X012591Y020545D01*
X012591Y020410D01*
X012681Y020410D02*
X012411Y020410D01*
X012456Y020705D02*
X012411Y020750D01*
X012411Y020840D01*
X012456Y020885D01*
X012501Y020999D02*
X012411Y021089D01*
X012681Y021089D01*
X012681Y020999D02*
X012681Y021180D01*
X012636Y020885D02*
X012681Y020840D01*
X012681Y020750D01*
X012636Y020705D01*
X012456Y020705D01*
X011581Y020750D02*
X011581Y020840D01*
X011536Y020885D01*
X011536Y020999D02*
X011581Y021044D01*
X011581Y021135D01*
X011536Y021180D01*
X011491Y021180D01*
X011446Y021135D01*
X011446Y021089D01*
X011446Y021135D02*
X011401Y021180D01*
X011356Y021180D01*
X011311Y021135D01*
X011311Y021044D01*
X011356Y020999D01*
X011356Y020885D02*
X011311Y020840D01*
X011311Y020750D01*
X011356Y020705D01*
X011536Y020705D01*
X011581Y020750D01*
X011446Y020590D02*
X011491Y020545D01*
X011491Y020410D01*
X011581Y020410D02*
X011311Y020410D01*
X011311Y020545D01*
X011356Y020590D01*
X011446Y020590D01*
X011311Y020296D02*
X011581Y020115D01*
X011581Y020001D02*
X011581Y019821D01*
X011401Y020001D01*
X011356Y020001D01*
X011311Y019956D01*
X011311Y019866D01*
X011356Y019821D01*
X011356Y019706D02*
X011311Y019661D01*
X011311Y019571D01*
X011356Y019526D01*
X011536Y019526D01*
X011581Y019571D01*
X011581Y019661D01*
X011536Y019706D01*
X011446Y019412D02*
X011491Y019367D01*
X011491Y019231D01*
X011581Y019231D02*
X011311Y019231D01*
X011311Y019367D01*
X011356Y019412D01*
X011446Y019412D01*
X010581Y019571D02*
X010581Y019661D01*
X010536Y019706D01*
X010581Y019571D02*
X010536Y019526D01*
X010356Y019526D01*
X010311Y019571D01*
X010311Y019661D01*
X010356Y019706D01*
X010446Y019821D02*
X010446Y020001D01*
X010311Y019956D02*
X010446Y019821D01*
X010581Y019956D02*
X010311Y019956D01*
X010581Y020115D02*
X010311Y020296D01*
X010311Y020410D02*
X010311Y020545D01*
X010356Y020590D01*
X010446Y020590D01*
X010491Y020545D01*
X010491Y020410D01*
X010581Y020410D02*
X010311Y020410D01*
X010356Y020705D02*
X010311Y020750D01*
X010311Y020840D01*
X010356Y020885D01*
X010311Y020999D02*
X010446Y020999D01*
X010401Y021089D01*
X010401Y021135D01*
X010446Y021180D01*
X010536Y021180D01*
X010581Y021135D01*
X010581Y021044D01*
X010536Y020999D01*
X010536Y020885D02*
X010581Y020840D01*
X010581Y020750D01*
X010536Y020705D01*
X010356Y020705D01*
X010311Y020999D02*
X010311Y021180D01*
X009581Y020999D02*
X009536Y020999D01*
X009356Y021180D01*
X009311Y021180D01*
X009311Y020999D01*
X009356Y020885D02*
X009311Y020840D01*
X009311Y020750D01*
X009356Y020705D01*
X009536Y020705D01*
X009581Y020750D01*
X009581Y020840D01*
X009536Y020885D01*
X009446Y020590D02*
X009491Y020545D01*
X009491Y020410D01*
X009581Y020410D02*
X009311Y020410D01*
X009311Y020545D01*
X009356Y020590D01*
X009446Y020590D01*
X009311Y020296D02*
X009581Y020115D01*
X009536Y020001D02*
X009491Y020001D01*
X009446Y019956D01*
X009446Y019821D01*
X009536Y019821D01*
X009581Y019866D01*
X009581Y019956D01*
X009536Y020001D01*
X009356Y019911D02*
X009446Y019821D01*
X009356Y019911D02*
X009311Y020001D01*
X009356Y019706D02*
X009311Y019661D01*
X009311Y019571D01*
X009356Y019526D01*
X009536Y019526D01*
X009581Y019571D01*
X009581Y019661D01*
X009536Y019706D01*
X009446Y019412D02*
X009491Y019367D01*
X009491Y019231D01*
X009581Y019231D02*
X009311Y019231D01*
X009311Y019367D01*
X009356Y019412D01*
X009446Y019412D01*
X010311Y019367D02*
X010311Y019231D01*
X010581Y019231D01*
X010491Y019231D02*
X010491Y019367D01*
X010446Y019412D01*
X010356Y019412D01*
X010311Y019367D01*
X008581Y019322D02*
X008491Y019412D01*
X008311Y019412D01*
X008356Y019526D02*
X008536Y019526D01*
X008581Y019571D01*
X008581Y019661D01*
X008536Y019706D01*
X008536Y019821D02*
X008581Y019866D01*
X008581Y019956D01*
X008536Y020001D01*
X008581Y020115D02*
X008311Y020296D01*
X008356Y020410D02*
X008536Y020410D01*
X008581Y020455D01*
X008581Y020545D01*
X008536Y020590D01*
X008446Y020590D01*
X008446Y020500D01*
X008356Y020410D02*
X008311Y020455D01*
X008311Y020545D01*
X008356Y020590D01*
X008311Y020705D02*
X008581Y020885D01*
X008311Y020885D01*
X008311Y020999D02*
X008311Y021135D01*
X008356Y021180D01*
X008536Y021180D01*
X008581Y021135D01*
X008581Y020999D01*
X008311Y020999D01*
X008311Y020705D02*
X008581Y020705D01*
X008356Y020001D02*
X008311Y019956D01*
X008311Y019866D01*
X008356Y019821D01*
X008536Y019821D01*
X008356Y019706D02*
X008311Y019661D01*
X008311Y019571D01*
X008356Y019526D01*
X008311Y019231D02*
X008491Y019231D01*
X008581Y019322D01*
X004880Y015802D02*
X004789Y015757D01*
X004699Y015667D01*
X004835Y015667D01*
X004880Y015622D01*
X004880Y015577D01*
X004835Y015531D01*
X004744Y015531D01*
X004699Y015577D01*
X004699Y015667D01*
X004585Y015712D02*
X004540Y015667D01*
X004405Y015667D01*
X004290Y015667D02*
X004245Y015622D01*
X004110Y015622D01*
X004110Y015531D02*
X004110Y015802D01*
X004245Y015802D01*
X004290Y015757D01*
X004290Y015667D01*
X004405Y015802D02*
X004405Y015531D01*
X004540Y015531D01*
X004585Y015577D01*
X004585Y015622D01*
X004540Y015667D01*
X004585Y015712D02*
X004585Y015757D01*
X004540Y015802D01*
X004405Y015802D01*
X003996Y015802D02*
X003815Y015531D01*
X003701Y015757D02*
X003521Y015577D01*
X003521Y015531D01*
X003406Y015577D02*
X003361Y015531D01*
X003226Y015531D01*
X003226Y015802D01*
X003361Y015802D01*
X003406Y015757D01*
X003406Y015712D01*
X003361Y015667D01*
X003226Y015667D01*
X003112Y015667D02*
X003112Y015757D01*
X003067Y015802D01*
X002931Y015802D01*
X002931Y015531D01*
X002931Y015622D02*
X003067Y015622D01*
X003112Y015667D01*
X003361Y015667D02*
X003406Y015622D01*
X003406Y015577D01*
X003521Y015802D02*
X003701Y015802D01*
X003701Y015757D01*
X003672Y016611D02*
X003717Y016657D01*
X003717Y016837D01*
X003672Y016882D01*
X003537Y016882D01*
X003537Y016611D01*
X003672Y016611D01*
X003422Y016611D02*
X003422Y016882D01*
X003242Y016882D02*
X003242Y016611D01*
X003128Y016657D02*
X003128Y016747D01*
X003038Y016747D01*
X003128Y016837D02*
X003083Y016882D01*
X002993Y016882D01*
X002948Y016837D01*
X002948Y016657D01*
X002993Y016611D01*
X003083Y016611D01*
X003128Y016657D01*
X003242Y016882D02*
X003422Y016611D01*
X003458Y017611D02*
X003638Y017611D01*
X003548Y017611D02*
X003548Y017882D01*
X003458Y017792D01*
X003344Y017837D02*
X003299Y017882D01*
X003209Y017882D01*
X003164Y017837D01*
X003164Y017657D01*
X003209Y017611D01*
X003299Y017611D01*
X003344Y017657D01*
X003049Y017747D02*
X003004Y017702D01*
X002869Y017702D01*
X002869Y017611D02*
X002869Y017882D01*
X003004Y017882D01*
X003049Y017837D01*
X003049Y017747D01*
X003209Y018511D02*
X003299Y018511D01*
X003344Y018557D01*
X003458Y018557D02*
X003503Y018511D01*
X003593Y018511D01*
X003638Y018557D01*
X003638Y018602D01*
X003593Y018647D01*
X003548Y018647D01*
X003593Y018647D02*
X003638Y018692D01*
X003638Y018737D01*
X003593Y018782D01*
X003503Y018782D01*
X003458Y018737D01*
X003344Y018737D02*
X003299Y018782D01*
X003209Y018782D01*
X003164Y018737D01*
X003164Y018557D01*
X003209Y018511D01*
X003049Y018647D02*
X003004Y018602D01*
X002869Y018602D01*
X002869Y018511D02*
X002869Y018782D01*
X003004Y018782D01*
X003049Y018737D01*
X003049Y018647D01*
X003753Y018511D02*
X003933Y018782D01*
X004048Y018782D02*
X004183Y018782D01*
X004228Y018737D01*
X004228Y018647D01*
X004183Y018602D01*
X004048Y018602D01*
X004048Y018511D02*
X004048Y018782D01*
X004342Y018737D02*
X004342Y018557D01*
X004387Y018511D01*
X004477Y018511D01*
X004522Y018557D01*
X004637Y018511D02*
X004817Y018692D01*
X004817Y018737D01*
X004772Y018782D01*
X004682Y018782D01*
X004637Y018737D01*
X004522Y018737D02*
X004477Y018782D01*
X004387Y018782D01*
X004342Y018737D01*
X004637Y018511D02*
X004817Y018511D01*
X004772Y017882D02*
X004817Y017837D01*
X004637Y017657D01*
X004682Y017611D01*
X004772Y017611D01*
X004817Y017657D01*
X004817Y017837D01*
X004772Y017882D02*
X004682Y017882D01*
X004637Y017837D01*
X004637Y017657D01*
X004522Y017657D02*
X004477Y017611D01*
X004387Y017611D01*
X004342Y017657D01*
X004342Y017837D01*
X004387Y017882D01*
X004477Y017882D01*
X004522Y017837D01*
X004228Y017837D02*
X004228Y017747D01*
X004183Y017702D01*
X004048Y017702D01*
X004048Y017611D02*
X004048Y017882D01*
X004183Y017882D01*
X004228Y017837D01*
X003933Y017882D02*
X003753Y017611D01*
X003753Y019611D02*
X003933Y019882D01*
X004048Y019882D02*
X004183Y019882D01*
X004228Y019837D01*
X004228Y019747D01*
X004183Y019702D01*
X004048Y019702D01*
X004048Y019611D02*
X004048Y019882D01*
X004342Y019837D02*
X004342Y019657D01*
X004387Y019611D01*
X004477Y019611D01*
X004522Y019657D01*
X004637Y019747D02*
X004817Y019747D01*
X004772Y019882D02*
X004772Y019611D01*
X004637Y019747D02*
X004772Y019882D01*
X004522Y019837D02*
X004477Y019882D01*
X004387Y019882D01*
X004342Y019837D01*
X004387Y020611D02*
X004477Y020611D01*
X004522Y020657D01*
X004637Y020657D02*
X004682Y020611D01*
X004772Y020611D01*
X004817Y020657D01*
X004817Y020702D01*
X004772Y020747D01*
X004637Y020747D01*
X004637Y020657D01*
X004637Y020747D02*
X004727Y020837D01*
X004817Y020882D01*
X004522Y020837D02*
X004477Y020882D01*
X004387Y020882D01*
X004342Y020837D01*
X004342Y020657D01*
X004387Y020611D01*
X004228Y020747D02*
X004183Y020702D01*
X004048Y020702D01*
X004048Y020611D02*
X004048Y020882D01*
X004183Y020882D01*
X004228Y020837D01*
X004228Y020747D01*
X003933Y020882D02*
X003753Y020611D01*
X003638Y020837D02*
X003458Y020657D01*
X003458Y020611D01*
X003344Y020657D02*
X003299Y020611D01*
X003209Y020611D01*
X003164Y020657D01*
X003164Y020837D01*
X003209Y020882D01*
X003299Y020882D01*
X003344Y020837D01*
X003458Y020882D02*
X003638Y020882D01*
X003638Y020837D01*
X003049Y020837D02*
X003049Y020747D01*
X003004Y020702D01*
X002869Y020702D01*
X002869Y020611D02*
X002869Y020882D01*
X003004Y020882D01*
X003049Y020837D01*
X003004Y019882D02*
X002869Y019882D01*
X002869Y019611D01*
X002869Y019702D02*
X003004Y019702D01*
X003049Y019747D01*
X003049Y019837D01*
X003004Y019882D01*
X003164Y019837D02*
X003164Y019657D01*
X003209Y019611D01*
X003299Y019611D01*
X003344Y019657D01*
X003458Y019657D02*
X003503Y019611D01*
X003593Y019611D01*
X003638Y019657D01*
X003638Y019747D01*
X003593Y019792D01*
X003548Y019792D01*
X003458Y019747D01*
X003458Y019882D01*
X003638Y019882D01*
X003344Y019837D02*
X003299Y019882D01*
X003209Y019882D01*
X003164Y019837D01*
X000912Y021331D02*
X000731Y021331D01*
X000822Y021331D02*
X000822Y021602D01*
X000731Y021512D01*
X002931Y014802D02*
X003067Y014802D01*
X003112Y014757D01*
X003112Y014667D01*
X003067Y014622D01*
X002931Y014622D01*
X002931Y014531D02*
X002931Y014802D01*
X003226Y014802D02*
X003226Y014531D01*
X003361Y014531D01*
X003406Y014577D01*
X003406Y014622D01*
X003361Y014667D01*
X003226Y014667D01*
X003226Y014802D02*
X003361Y014802D01*
X003406Y014757D01*
X003406Y014712D01*
X003361Y014667D01*
X003521Y014667D02*
X003611Y014712D01*
X003656Y014712D01*
X003701Y014667D01*
X003701Y014577D01*
X003656Y014531D01*
X003566Y014531D01*
X003521Y014577D01*
X003521Y014667D02*
X003521Y014802D01*
X003701Y014802D01*
X003815Y014531D02*
X003996Y014802D01*
X004110Y014802D02*
X004110Y014531D01*
X004110Y014622D02*
X004245Y014622D01*
X004290Y014667D01*
X004290Y014757D01*
X004245Y014802D01*
X004110Y014802D01*
X004405Y014802D02*
X004405Y014531D01*
X004540Y014531D01*
X004585Y014577D01*
X004585Y014622D01*
X004540Y014667D01*
X004405Y014667D01*
X004405Y014802D02*
X004540Y014802D01*
X004585Y014757D01*
X004585Y014712D01*
X004540Y014667D01*
X004699Y014667D02*
X004880Y014667D01*
X004835Y014802D02*
X004835Y014531D01*
X004699Y014667D02*
X004835Y014802D01*
X004835Y013802D02*
X004744Y013802D01*
X004699Y013757D01*
X004585Y013757D02*
X004585Y013712D01*
X004540Y013667D01*
X004405Y013667D01*
X004290Y013667D02*
X004245Y013622D01*
X004110Y013622D01*
X004110Y013531D02*
X004110Y013802D01*
X004245Y013802D01*
X004290Y013757D01*
X004290Y013667D01*
X004405Y013802D02*
X004540Y013802D01*
X004585Y013757D01*
X004540Y013667D02*
X004585Y013622D01*
X004585Y013577D01*
X004540Y013531D01*
X004405Y013531D01*
X004405Y013802D01*
X004699Y013531D02*
X004880Y013712D01*
X004880Y013757D01*
X004835Y013802D01*
X004880Y013531D02*
X004699Y013531D01*
X004744Y012902D02*
X004835Y012902D01*
X004880Y012857D01*
X004699Y012677D01*
X004744Y012631D01*
X004835Y012631D01*
X004880Y012677D01*
X004880Y012857D01*
X004744Y012902D02*
X004699Y012857D01*
X004699Y012677D01*
X004585Y012677D02*
X004540Y012631D01*
X004405Y012631D01*
X004405Y012902D01*
X004540Y012902D01*
X004585Y012857D01*
X004585Y012812D01*
X004540Y012767D01*
X004405Y012767D01*
X004290Y012767D02*
X004245Y012722D01*
X004110Y012722D01*
X004110Y012631D02*
X004110Y012902D01*
X004245Y012902D01*
X004290Y012857D01*
X004290Y012767D01*
X004540Y012767D02*
X004585Y012722D01*
X004585Y012677D01*
X003996Y012902D02*
X003815Y012631D01*
X003701Y012631D02*
X003521Y012631D01*
X003611Y012631D02*
X003611Y012902D01*
X003521Y012812D01*
X003406Y012812D02*
X003361Y012767D01*
X003226Y012767D01*
X003112Y012767D02*
X003112Y012857D01*
X003067Y012902D01*
X002931Y012902D01*
X002931Y012631D01*
X002931Y012722D02*
X003067Y012722D01*
X003112Y012767D01*
X003226Y012902D02*
X003361Y012902D01*
X003406Y012857D01*
X003406Y012812D01*
X003361Y012767D02*
X003406Y012722D01*
X003406Y012677D01*
X003361Y012631D01*
X003226Y012631D01*
X003226Y012902D01*
X003226Y013531D02*
X003361Y013531D01*
X003406Y013577D01*
X003406Y013622D01*
X003361Y013667D01*
X003226Y013667D01*
X003112Y013667D02*
X003067Y013622D01*
X002931Y013622D01*
X002931Y013531D02*
X002931Y013802D01*
X003067Y013802D01*
X003112Y013757D01*
X003112Y013667D01*
X003226Y013802D02*
X003226Y013531D01*
X003361Y013667D02*
X003406Y013712D01*
X003406Y013757D01*
X003361Y013802D01*
X003226Y013802D01*
X003521Y013757D02*
X003566Y013802D01*
X003656Y013802D01*
X003701Y013757D01*
X003701Y013712D01*
X003656Y013667D01*
X003701Y013622D01*
X003701Y013577D01*
X003656Y013531D01*
X003566Y013531D01*
X003521Y013577D01*
X003611Y013667D02*
X003656Y013667D01*
X003815Y013531D02*
X003996Y013802D01*
X003672Y011882D02*
X003537Y011882D01*
X003537Y011611D01*
X003672Y011611D01*
X003717Y011657D01*
X003717Y011837D01*
X003672Y011882D01*
X003422Y011882D02*
X003422Y011611D01*
X003242Y011882D01*
X003242Y011611D01*
X003128Y011657D02*
X003128Y011747D01*
X003038Y011747D01*
X003128Y011837D02*
X003083Y011882D01*
X002993Y011882D01*
X002948Y011837D01*
X002948Y011657D01*
X002993Y011611D01*
X003083Y011611D01*
X003128Y011657D01*
X003067Y010802D02*
X003112Y010757D01*
X003112Y010667D01*
X003067Y010622D01*
X002931Y010622D01*
X002931Y010531D02*
X002931Y010802D01*
X003067Y010802D01*
X003226Y010712D02*
X003226Y010531D01*
X003226Y010667D02*
X003406Y010667D01*
X003406Y010712D02*
X003406Y010531D01*
X003521Y010531D02*
X003521Y010577D01*
X003701Y010757D01*
X003701Y010802D01*
X003521Y010802D01*
X003406Y010712D02*
X003316Y010802D01*
X003226Y010712D01*
X003815Y010531D02*
X003996Y010802D01*
X004110Y010802D02*
X004110Y010531D01*
X004110Y010622D02*
X004245Y010622D01*
X004290Y010667D01*
X004290Y010757D01*
X004245Y010802D01*
X004110Y010802D01*
X004405Y010712D02*
X004405Y010531D01*
X004405Y010667D02*
X004585Y010667D01*
X004585Y010712D02*
X004585Y010531D01*
X004699Y010577D02*
X004744Y010531D01*
X004835Y010531D01*
X004880Y010577D01*
X004880Y010622D01*
X004835Y010667D01*
X004699Y010667D01*
X004699Y010577D01*
X004699Y010667D02*
X004789Y010757D01*
X004880Y010802D01*
X004585Y010712D02*
X004495Y010802D01*
X004405Y010712D01*
X004495Y009802D02*
X004405Y009712D01*
X004405Y009531D01*
X004405Y009667D02*
X004585Y009667D01*
X004585Y009712D02*
X004585Y009531D01*
X004699Y009667D02*
X004880Y009667D01*
X004835Y009802D02*
X004835Y009531D01*
X004699Y009667D02*
X004835Y009802D01*
X004585Y009712D02*
X004495Y009802D01*
X004290Y009757D02*
X004290Y009667D01*
X004245Y009622D01*
X004110Y009622D01*
X004110Y009531D02*
X004110Y009802D01*
X004245Y009802D01*
X004290Y009757D01*
X003996Y009802D02*
X003815Y009531D01*
X003701Y009577D02*
X003656Y009531D01*
X003566Y009531D01*
X003521Y009577D01*
X003521Y009667D02*
X003611Y009712D01*
X003656Y009712D01*
X003701Y009667D01*
X003701Y009577D01*
X003521Y009667D02*
X003521Y009802D01*
X003701Y009802D01*
X003406Y009712D02*
X003406Y009531D01*
X003406Y009667D02*
X003226Y009667D01*
X003226Y009712D02*
X003316Y009802D01*
X003406Y009712D01*
X003226Y009712D02*
X003226Y009531D01*
X003112Y009667D02*
X003067Y009622D01*
X002931Y009622D01*
X002931Y009531D02*
X002931Y009802D01*
X003067Y009802D01*
X003112Y009757D01*
X003112Y009667D01*
X003067Y008802D02*
X003112Y008757D01*
X003112Y008667D01*
X003067Y008622D01*
X002931Y008622D01*
X002931Y008531D02*
X002931Y008802D01*
X003067Y008802D01*
X003226Y008712D02*
X003226Y008531D01*
X003226Y008667D02*
X003406Y008667D01*
X003406Y008712D02*
X003406Y008531D01*
X003521Y008577D02*
X003566Y008531D01*
X003656Y008531D01*
X003701Y008577D01*
X003701Y008622D01*
X003656Y008667D01*
X003611Y008667D01*
X003656Y008667D02*
X003701Y008712D01*
X003701Y008757D01*
X003656Y008802D01*
X003566Y008802D01*
X003521Y008757D01*
X003406Y008712D02*
X003316Y008802D01*
X003226Y008712D01*
X003815Y008531D02*
X003996Y008802D01*
X004110Y008802D02*
X004110Y008531D01*
X004110Y008622D02*
X004245Y008622D01*
X004290Y008667D01*
X004290Y008757D01*
X004245Y008802D01*
X004110Y008802D01*
X004405Y008712D02*
X004405Y008531D01*
X004405Y008667D02*
X004585Y008667D01*
X004585Y008712D02*
X004585Y008531D01*
X004699Y008531D02*
X004880Y008712D01*
X004880Y008757D01*
X004835Y008802D01*
X004744Y008802D01*
X004699Y008757D01*
X004585Y008712D02*
X004495Y008802D01*
X004405Y008712D01*
X004699Y008531D02*
X004880Y008531D01*
X004835Y007902D02*
X004880Y007857D01*
X004699Y007677D01*
X004744Y007631D01*
X004835Y007631D01*
X004880Y007677D01*
X004880Y007857D01*
X004835Y007902D02*
X004744Y007902D01*
X004699Y007857D01*
X004699Y007677D01*
X004585Y007631D02*
X004585Y007812D01*
X004495Y007902D01*
X004405Y007812D01*
X004405Y007631D01*
X004405Y007767D02*
X004585Y007767D01*
X004290Y007767D02*
X004290Y007857D01*
X004245Y007902D01*
X004110Y007902D01*
X004110Y007631D01*
X004110Y007722D02*
X004245Y007722D01*
X004290Y007767D01*
X003996Y007902D02*
X003815Y007631D01*
X003701Y007631D02*
X003521Y007631D01*
X003611Y007631D02*
X003611Y007902D01*
X003521Y007812D01*
X003406Y007812D02*
X003316Y007902D01*
X003226Y007812D01*
X003226Y007631D01*
X003226Y007767D02*
X003406Y007767D01*
X003406Y007812D02*
X003406Y007631D01*
X003112Y007767D02*
X003067Y007722D01*
X002931Y007722D01*
X002931Y007631D02*
X002931Y007902D01*
X003067Y007902D01*
X003112Y007857D01*
X003112Y007767D01*
X003083Y006882D02*
X002993Y006882D01*
X002948Y006837D01*
X002948Y006657D01*
X002993Y006611D01*
X003083Y006611D01*
X003128Y006657D01*
X003128Y006747D01*
X003038Y006747D01*
X003128Y006837D02*
X003083Y006882D01*
X003242Y006882D02*
X003242Y006611D01*
X003422Y006611D02*
X003242Y006882D01*
X003422Y006882D02*
X003422Y006611D01*
X003537Y006611D02*
X003537Y006882D01*
X003672Y006882D01*
X003717Y006837D01*
X003717Y006657D01*
X003672Y006611D01*
X003537Y006611D01*
X003593Y005882D02*
X003458Y005882D01*
X003458Y005611D01*
X003593Y005611D01*
X003638Y005657D01*
X003638Y005837D01*
X003593Y005882D01*
X003344Y005882D02*
X003164Y005611D01*
X003049Y005611D02*
X002959Y005702D01*
X003004Y005702D02*
X002869Y005702D01*
X002869Y005611D02*
X002869Y005882D01*
X003004Y005882D01*
X003049Y005837D01*
X003049Y005747D01*
X003004Y005702D01*
X003164Y005882D02*
X003344Y005611D01*
X003753Y005611D02*
X003933Y005882D01*
X004048Y005882D02*
X004228Y005882D01*
X004138Y005882D02*
X004138Y005611D01*
X004342Y005611D02*
X004522Y005882D01*
X004637Y005882D02*
X004772Y005882D01*
X004817Y005837D01*
X004817Y005657D01*
X004772Y005611D01*
X004637Y005611D01*
X004637Y005882D01*
X004522Y005611D02*
X004342Y005882D01*
X004387Y004882D02*
X004342Y004837D01*
X004342Y004657D01*
X004387Y004611D01*
X004477Y004611D01*
X004522Y004657D01*
X004637Y004611D02*
X004817Y004611D01*
X004637Y004611D02*
X004637Y004882D01*
X004522Y004837D02*
X004477Y004882D01*
X004387Y004882D01*
X004228Y004837D02*
X004183Y004882D01*
X004093Y004882D01*
X004048Y004837D01*
X004048Y004792D01*
X004093Y004747D01*
X004183Y004747D01*
X004228Y004702D01*
X004228Y004657D01*
X004183Y004611D01*
X004093Y004611D01*
X004048Y004657D01*
X003933Y004882D02*
X003753Y004611D01*
X003638Y004611D02*
X003638Y004792D01*
X003548Y004882D01*
X003458Y004792D01*
X003458Y004611D01*
X003344Y004657D02*
X003344Y004837D01*
X003299Y004882D01*
X003164Y004882D01*
X003164Y004611D01*
X003299Y004611D01*
X003344Y004657D01*
X003458Y004747D02*
X003638Y004747D01*
X003049Y004702D02*
X003049Y004657D01*
X003004Y004611D01*
X002914Y004611D01*
X002869Y004657D01*
X002914Y004747D02*
X003004Y004747D01*
X003049Y004702D01*
X003049Y004837D02*
X003004Y004882D01*
X002914Y004882D01*
X002869Y004837D01*
X002869Y004792D01*
X002914Y004747D01*
X003031Y004102D02*
X003031Y003922D01*
X003122Y003831D01*
X003212Y003922D01*
X003212Y004102D01*
X003326Y004057D02*
X003326Y003877D01*
X003371Y003831D01*
X003461Y003831D01*
X003506Y003877D01*
X003621Y003877D02*
X003666Y003831D01*
X003756Y003831D01*
X003801Y003877D01*
X003801Y004057D02*
X003756Y004102D01*
X003666Y004102D01*
X003621Y004057D01*
X003621Y003877D01*
X003506Y004057D02*
X003461Y004102D01*
X003371Y004102D01*
X003326Y004057D01*
X004210Y004057D02*
X004210Y004012D01*
X004255Y003967D01*
X004345Y003967D01*
X004390Y003922D01*
X004390Y003877D01*
X004345Y003831D01*
X004255Y003831D01*
X004210Y003877D01*
X004210Y004057D02*
X004255Y004102D01*
X004345Y004102D01*
X004390Y004057D01*
X004505Y004102D02*
X004505Y003831D01*
X004685Y003831D01*
X004799Y003831D02*
X004980Y003831D01*
X005094Y003831D02*
X005094Y004102D01*
X005274Y004102D01*
X005389Y004057D02*
X005389Y003877D01*
X005434Y003831D01*
X005524Y003831D01*
X005569Y003877D01*
X005569Y004057D02*
X005524Y004102D01*
X005434Y004102D01*
X005389Y004057D01*
X005184Y003967D02*
X005094Y003967D01*
X005094Y003831D02*
X005274Y003831D01*
X005683Y004102D02*
X005864Y004102D01*
X005773Y004102D02*
X005773Y003831D01*
X004799Y003831D02*
X004799Y004102D01*
X004685Y004102D02*
X004505Y004102D01*
X004505Y003967D02*
X004595Y003967D01*
X003672Y001782D02*
X003537Y001782D01*
X003537Y001511D01*
X003672Y001511D01*
X003717Y001557D01*
X003717Y001737D01*
X003672Y001782D01*
X003422Y001782D02*
X003422Y001511D01*
X003242Y001782D01*
X003242Y001511D01*
X003128Y001557D02*
X003128Y001647D01*
X003038Y001647D01*
X003128Y001737D02*
X003083Y001782D01*
X002993Y001782D01*
X002948Y001737D01*
X002948Y001557D01*
X002993Y001511D01*
X003083Y001511D01*
X003128Y001557D01*
X001806Y000781D02*
X001626Y000781D01*
X001716Y000781D02*
X001716Y001052D01*
X001626Y000962D01*
X001512Y001052D02*
X001422Y001052D01*
X001467Y001052D02*
X001467Y000827D01*
X001422Y000781D01*
X001377Y000781D01*
X001331Y000827D01*
X008411Y004231D02*
X008681Y004412D01*
X008411Y004412D01*
X008456Y004526D02*
X008636Y004526D01*
X008681Y004571D01*
X008681Y004661D01*
X008636Y004706D01*
X008681Y004821D02*
X008411Y005001D01*
X008411Y005115D02*
X008681Y005296D01*
X008411Y005296D01*
X008456Y005410D02*
X008636Y005410D01*
X008681Y005455D01*
X008681Y005545D01*
X008636Y005590D01*
X008456Y005590D02*
X008411Y005545D01*
X008411Y005455D01*
X008456Y005410D01*
X008411Y005115D02*
X008681Y005115D01*
X008456Y004706D02*
X008411Y004661D01*
X008411Y004571D01*
X008456Y004526D01*
X008411Y004231D02*
X008681Y004231D01*
X009411Y004231D02*
X009681Y004412D01*
X009411Y004412D01*
X009456Y004526D02*
X009636Y004526D01*
X009681Y004571D01*
X009681Y004661D01*
X009636Y004706D01*
X009681Y004821D02*
X009411Y005001D01*
X009411Y005115D02*
X009681Y005296D01*
X009411Y005296D01*
X009456Y005410D02*
X009636Y005410D01*
X009681Y005455D01*
X009681Y005545D01*
X009636Y005590D01*
X009456Y005590D02*
X009411Y005545D01*
X009411Y005455D01*
X009456Y005410D01*
X009411Y005115D02*
X009681Y005115D01*
X009456Y004706D02*
X009411Y004661D01*
X009411Y004571D01*
X009456Y004526D01*
X009411Y004231D02*
X009681Y004231D01*
X010311Y004277D02*
X010356Y004231D01*
X010401Y004231D01*
X010446Y004277D01*
X010446Y004367D01*
X010491Y004412D01*
X010536Y004412D01*
X010581Y004367D01*
X010581Y004277D01*
X010536Y004231D01*
X010356Y004412D02*
X010311Y004367D01*
X010311Y004277D01*
X010311Y004526D02*
X010311Y004661D01*
X010356Y004706D01*
X010536Y004706D01*
X010581Y004661D01*
X010581Y004526D01*
X010311Y004526D01*
X010401Y004821D02*
X010311Y004911D01*
X010401Y005001D01*
X010581Y005001D01*
X010581Y005115D02*
X010311Y005296D01*
X010356Y005410D02*
X010311Y005455D01*
X010311Y005545D01*
X010356Y005590D01*
X010446Y005545D02*
X010491Y005590D01*
X010536Y005590D01*
X010581Y005545D01*
X010581Y005455D01*
X010536Y005410D01*
X010446Y005455D02*
X010446Y005545D01*
X010446Y005455D02*
X010401Y005410D01*
X010356Y005410D01*
X010356Y005705D02*
X010536Y005705D01*
X010581Y005750D01*
X010581Y005840D01*
X010536Y005885D01*
X010581Y005999D02*
X010581Y006180D01*
X010581Y005999D02*
X010311Y005999D01*
X010356Y005885D02*
X010311Y005840D01*
X010311Y005750D01*
X010356Y005705D01*
X010446Y005001D02*
X010446Y004821D01*
X010401Y004821D02*
X010581Y004821D01*
X011411Y004821D02*
X011411Y004956D01*
X011456Y005001D01*
X011636Y005001D01*
X011681Y004956D01*
X011681Y004821D01*
X011411Y004821D01*
X011411Y004706D02*
X011681Y004526D01*
X011681Y004412D02*
X011591Y004322D01*
X011591Y004367D02*
X011591Y004231D01*
X011681Y004231D02*
X011411Y004231D01*
X011411Y004367D01*
X011456Y004412D01*
X011546Y004412D01*
X011591Y004367D01*
X011411Y004526D02*
X011681Y004706D01*
X011681Y005115D02*
X011411Y005296D01*
X011411Y005410D02*
X011411Y005590D01*
X011411Y005500D02*
X011681Y005500D01*
X011681Y005705D02*
X011411Y005885D01*
X011411Y005999D02*
X011411Y006135D01*
X011456Y006180D01*
X011636Y006180D01*
X011681Y006135D01*
X011681Y005999D01*
X011411Y005999D01*
X011681Y005885D02*
X011411Y005705D01*
X012411Y005750D02*
X012456Y005705D01*
X012636Y005705D01*
X012681Y005750D01*
X012681Y005840D01*
X012636Y005885D01*
X012636Y005999D02*
X012681Y006044D01*
X012681Y006135D01*
X012636Y006180D01*
X012726Y006331D02*
X012726Y006512D01*
X012816Y006602D01*
X012906Y006512D01*
X012906Y006331D01*
X013021Y006377D02*
X013201Y006557D01*
X013201Y006377D01*
X013156Y006331D01*
X013066Y006331D01*
X013021Y006377D01*
X013021Y006557D01*
X013066Y006602D01*
X013156Y006602D01*
X013201Y006557D01*
X013315Y006331D02*
X013496Y006602D01*
X013610Y006602D02*
X013745Y006602D01*
X013790Y006557D01*
X013790Y006467D01*
X013745Y006422D01*
X013610Y006422D01*
X013610Y006331D02*
X013610Y006602D01*
X013905Y006512D02*
X013995Y006602D01*
X014085Y006512D01*
X014085Y006331D01*
X014199Y006331D02*
X014380Y006331D01*
X014289Y006331D02*
X014289Y006602D01*
X014199Y006512D01*
X014085Y006467D02*
X013905Y006467D01*
X013905Y006512D02*
X013905Y006331D01*
X013905Y007231D02*
X013905Y007412D01*
X013995Y007502D01*
X014085Y007412D01*
X014085Y007231D01*
X014199Y007277D02*
X014244Y007231D01*
X014335Y007231D01*
X014380Y007277D01*
X014380Y007322D01*
X014335Y007367D01*
X014289Y007367D01*
X014335Y007367D02*
X014380Y007412D01*
X014380Y007457D01*
X014335Y007502D01*
X014244Y007502D01*
X014199Y007457D01*
X014085Y007367D02*
X013905Y007367D01*
X013790Y007367D02*
X013745Y007322D01*
X013610Y007322D01*
X013610Y007231D02*
X013610Y007502D01*
X013745Y007502D01*
X013790Y007457D01*
X013790Y007367D01*
X013496Y007502D02*
X013315Y007231D01*
X013201Y007231D02*
X013021Y007231D01*
X013201Y007412D01*
X013201Y007457D01*
X013156Y007502D01*
X013066Y007502D01*
X013021Y007457D01*
X012906Y007412D02*
X012906Y007231D01*
X012906Y007367D02*
X012726Y007367D01*
X012726Y007412D02*
X012816Y007502D01*
X012906Y007412D01*
X012726Y007412D02*
X012726Y007231D01*
X012612Y007367D02*
X012567Y007322D01*
X012431Y007322D01*
X012431Y007231D02*
X012431Y007502D01*
X012567Y007502D01*
X012612Y007457D01*
X012612Y007367D01*
X012567Y006602D02*
X012431Y006602D01*
X012431Y006331D01*
X012431Y006422D02*
X012567Y006422D01*
X012612Y006467D01*
X012612Y006557D01*
X012567Y006602D01*
X012726Y006467D02*
X012906Y006467D01*
X012456Y006180D02*
X012411Y006135D01*
X012411Y006044D01*
X012456Y005999D01*
X012636Y005999D01*
X012456Y005885D02*
X012411Y005840D01*
X012411Y005750D01*
X012411Y005590D02*
X012591Y005590D01*
X012681Y005500D01*
X012591Y005410D01*
X012411Y005410D01*
X012411Y005296D02*
X012681Y005115D01*
X012636Y005001D02*
X012681Y004956D01*
X012681Y004821D01*
X012411Y004821D01*
X012411Y004956D01*
X012456Y005001D01*
X012636Y005001D01*
X012681Y004706D02*
X012411Y004706D01*
X012411Y004526D02*
X012681Y004706D01*
X012681Y004526D02*
X012411Y004526D01*
X012456Y004412D02*
X012411Y004367D01*
X012411Y004277D01*
X012456Y004231D01*
X012636Y004231D01*
X012681Y004277D01*
X012681Y004367D01*
X012636Y004412D01*
X012546Y004412D01*
X012546Y004322D01*
X012431Y008231D02*
X012431Y008502D01*
X012567Y008502D01*
X012612Y008457D01*
X012612Y008367D01*
X012567Y008322D01*
X012431Y008322D01*
X012726Y008367D02*
X012906Y008367D01*
X012906Y008412D02*
X012906Y008231D01*
X013021Y008367D02*
X013201Y008367D01*
X013156Y008502D02*
X013021Y008367D01*
X012906Y008412D02*
X012816Y008502D01*
X012726Y008412D01*
X012726Y008231D01*
X013156Y008231D02*
X013156Y008502D01*
X013315Y008231D02*
X013496Y008502D01*
X013610Y008502D02*
X013745Y008502D01*
X013790Y008457D01*
X013790Y008367D01*
X013745Y008322D01*
X013610Y008322D01*
X013610Y008231D02*
X013610Y008502D01*
X013905Y008412D02*
X013905Y008231D01*
X013905Y008367D02*
X014085Y008367D01*
X014085Y008412D02*
X014085Y008231D01*
X014199Y008277D02*
X014244Y008231D01*
X014335Y008231D01*
X014380Y008277D01*
X014380Y008367D01*
X014335Y008412D01*
X014289Y008412D01*
X014199Y008367D01*
X014199Y008502D01*
X014380Y008502D01*
X014085Y008412D02*
X013995Y008502D01*
X013905Y008412D01*
X013905Y009131D02*
X013905Y009312D01*
X013995Y009402D01*
X014085Y009312D01*
X014085Y009131D01*
X014199Y009131D02*
X014199Y009177D01*
X014380Y009357D01*
X014380Y009402D01*
X014199Y009402D01*
X014085Y009267D02*
X013905Y009267D01*
X013790Y009267D02*
X013745Y009222D01*
X013610Y009222D01*
X013610Y009131D02*
X013610Y009402D01*
X013745Y009402D01*
X013790Y009357D01*
X013790Y009267D01*
X013496Y009402D02*
X013315Y009131D01*
X013201Y009177D02*
X013201Y009222D01*
X013156Y009267D01*
X013021Y009267D01*
X013021Y009177D01*
X013066Y009131D01*
X013156Y009131D01*
X013201Y009177D01*
X013111Y009357D02*
X013021Y009267D01*
X012906Y009267D02*
X012726Y009267D01*
X012726Y009312D02*
X012816Y009402D01*
X012906Y009312D01*
X012906Y009131D01*
X012726Y009131D02*
X012726Y009312D01*
X012612Y009357D02*
X012567Y009402D01*
X012431Y009402D01*
X012431Y009131D01*
X012431Y009222D02*
X012567Y009222D01*
X012612Y009267D01*
X012612Y009357D01*
X013111Y009357D02*
X013201Y009402D01*
X013156Y010231D02*
X013201Y010277D01*
X013156Y010231D02*
X013066Y010231D01*
X013021Y010277D01*
X013021Y010457D01*
X013066Y010502D01*
X013156Y010502D01*
X013201Y010457D01*
X013315Y010231D02*
X013496Y010502D01*
X013610Y010457D02*
X013610Y010277D01*
X013655Y010231D01*
X013745Y010231D01*
X013790Y010277D01*
X013790Y010367D01*
X013700Y010367D01*
X013610Y010457D02*
X013655Y010502D01*
X013745Y010502D01*
X013790Y010457D01*
X013905Y010502D02*
X013905Y010231D01*
X014085Y010231D02*
X013905Y010502D01*
X014085Y010502D02*
X014085Y010231D01*
X014199Y010231D02*
X014335Y010231D01*
X014380Y010277D01*
X014380Y010457D01*
X014335Y010502D01*
X014199Y010502D01*
X014199Y010231D01*
X012906Y010277D02*
X012861Y010231D01*
X012771Y010231D01*
X012726Y010277D01*
X012726Y010457D01*
X012771Y010502D01*
X012861Y010502D01*
X012906Y010457D01*
X012612Y010502D02*
X012612Y010322D01*
X012522Y010231D01*
X012431Y010322D01*
X012431Y010502D01*
X012431Y014831D02*
X012431Y015102D01*
X012567Y015102D01*
X012612Y015057D01*
X012612Y014967D01*
X012567Y014922D01*
X012431Y014922D01*
X012726Y014967D02*
X012861Y014967D01*
X012906Y014922D01*
X012906Y014877D01*
X012861Y014831D01*
X012726Y014831D01*
X012726Y015102D01*
X012861Y015102D01*
X012906Y015057D01*
X012906Y015012D01*
X012861Y014967D01*
X013021Y015057D02*
X013066Y015102D01*
X013156Y015102D01*
X013201Y015057D01*
X013021Y014877D01*
X013066Y014831D01*
X013156Y014831D01*
X013201Y014877D01*
X013201Y015057D01*
X013021Y015057D02*
X013021Y014877D01*
X013315Y014831D02*
X013496Y015102D01*
X013610Y015102D02*
X013745Y015102D01*
X013790Y015057D01*
X013790Y014967D01*
X013745Y014922D01*
X013610Y014922D01*
X013610Y014831D02*
X013610Y015102D01*
X013905Y015102D02*
X013905Y014831D01*
X014040Y014831D01*
X014085Y014877D01*
X014085Y014922D01*
X014040Y014967D01*
X013905Y014967D01*
X013905Y015102D02*
X014040Y015102D01*
X014085Y015057D01*
X014085Y015012D01*
X014040Y014967D01*
X014199Y015012D02*
X014289Y015102D01*
X014289Y014831D01*
X014199Y014831D02*
X014380Y014831D01*
X014085Y015877D02*
X014085Y015922D01*
X014040Y015967D01*
X014199Y016057D02*
X014244Y016102D01*
X014335Y016102D01*
X014380Y016057D01*
X014335Y015967D02*
X014289Y015967D01*
X013156Y017102D02*
X013021Y016967D01*
X012726Y016831D02*
X012726Y017102D01*
D14*
X006276Y003075D02*
X006276Y002928D01*
X006276Y003002D02*
X006056Y003002D01*
X006130Y002928D01*
X006166Y002854D02*
X006203Y002818D01*
X006203Y002707D01*
X006276Y002707D02*
X006056Y002707D01*
X006056Y002818D01*
X006093Y002854D01*
X006166Y002854D01*
X006056Y002633D02*
X006056Y002560D01*
X006056Y002597D02*
X006240Y002597D01*
X006276Y002560D01*
X006276Y002523D01*
X006240Y002486D01*
D15*
X007549Y011976D03*
X008849Y013566D03*
X009269Y013616D03*
X009279Y013806D03*
X009699Y013856D03*
X009699Y013566D03*
X009989Y013476D03*
X009999Y013486D03*
X010079Y013866D03*
X010079Y013876D03*
X010259Y014486D03*
X009639Y015336D03*
X008459Y013886D03*
X008459Y013876D03*
X007539Y013936D03*
X007539Y013946D03*
X007539Y013956D03*
X007539Y013966D03*
X007539Y013976D03*
X007539Y013986D03*
X007539Y013996D03*
X007539Y014006D03*
X007539Y014016D03*
X007539Y014026D03*
X007539Y014036D03*
X007539Y014046D03*
X007539Y014056D03*
X007539Y014066D03*
X007539Y014076D03*
X007539Y014086D03*
X007539Y014096D03*
X007539Y014106D03*
X007539Y014116D03*
X007539Y014126D03*
X007559Y014296D03*
X007569Y014356D03*
X007569Y014366D03*
X008959Y012696D03*
X009589Y012696D03*
X009769Y012776D03*
X010979Y013706D03*
X010979Y013716D03*
X010979Y013726D03*
X010989Y013756D03*
X010989Y013766D03*
X010989Y013776D03*
X010989Y013786D03*
X010989Y013796D03*
X010999Y013856D03*
X010999Y013866D03*
X010999Y013876D03*
X010999Y013886D03*
X010999Y013896D03*
X010999Y013906D03*
X010999Y014156D03*
X010999Y014166D03*
X010999Y014176D03*
X010999Y014186D03*
X010999Y014196D03*
X010999Y014206D03*
X010989Y014266D03*
X010989Y014276D03*
X010989Y014286D03*
X010989Y014296D03*
X010979Y014336D03*
X010979Y014346D03*
D16*
X010959Y014436D03*
X010949Y014476D03*
X010939Y014506D03*
X010939Y014516D03*
X010929Y014536D03*
X010929Y014546D03*
X010929Y014556D03*
X010919Y014576D03*
X010909Y014596D03*
X010909Y014606D03*
X010899Y014636D03*
X010959Y013626D03*
X010939Y013556D03*
X010939Y013546D03*
X010929Y013526D03*
X010929Y013516D03*
X010929Y013506D03*
X010919Y013486D03*
X010909Y013456D03*
X010899Y013426D03*
X009969Y013456D03*
X010069Y013896D03*
X010069Y013906D03*
X009699Y013846D03*
X009269Y013836D03*
X009269Y013596D03*
X008569Y013456D03*
X008479Y013916D03*
X008299Y014496D03*
X007659Y014666D03*
X007649Y014646D03*
X007649Y014636D03*
X007639Y014616D03*
X007629Y014596D03*
X007629Y014586D03*
X007629Y014576D03*
X007619Y014566D03*
X007619Y014556D03*
X007619Y014546D03*
X007609Y014526D03*
X007609Y014516D03*
X007549Y013816D03*
X007549Y013806D03*
X007549Y013796D03*
X007549Y013786D03*
X007549Y013776D03*
X007549Y013766D03*
X007549Y012916D03*
X007549Y012906D03*
X007549Y012896D03*
X007549Y012886D03*
X007549Y012876D03*
X007549Y012866D03*
X007549Y012856D03*
X007549Y012846D03*
X007549Y012836D03*
X007549Y012826D03*
X007549Y012816D03*
X007549Y012806D03*
X007549Y012796D03*
X007549Y012786D03*
X007549Y012776D03*
X007549Y012766D03*
X007549Y012756D03*
X007549Y012746D03*
X007549Y012736D03*
X007549Y012726D03*
X007549Y012716D03*
X007549Y012706D03*
X007549Y012696D03*
X007549Y012686D03*
X007549Y012676D03*
X007549Y012666D03*
X007549Y012656D03*
X007549Y012646D03*
X007549Y012636D03*
X007549Y012626D03*
X007549Y012616D03*
X007549Y012606D03*
X007549Y012596D03*
X007549Y012586D03*
X007549Y012576D03*
X007549Y012566D03*
X007549Y012556D03*
X007549Y012546D03*
X007549Y012536D03*
X007549Y012526D03*
X007549Y012516D03*
X007549Y012506D03*
X007549Y012496D03*
X007549Y012486D03*
X007549Y012476D03*
X007549Y012466D03*
X007549Y012456D03*
X007549Y012446D03*
X007549Y012436D03*
X007549Y012426D03*
X007549Y012416D03*
X007549Y012406D03*
X007549Y012396D03*
X007549Y012386D03*
X007549Y012376D03*
X007549Y012366D03*
X007549Y012356D03*
X007549Y012346D03*
X007549Y012336D03*
X007549Y012326D03*
X007549Y012316D03*
X007549Y012306D03*
X007549Y012296D03*
X007549Y012286D03*
X007549Y012276D03*
X007549Y012266D03*
X007549Y012256D03*
X007549Y012246D03*
X007549Y012236D03*
X007549Y012226D03*
X007549Y012216D03*
X007549Y012206D03*
X007549Y012196D03*
X007549Y012186D03*
X007549Y012176D03*
X007549Y012166D03*
X007549Y012156D03*
X007549Y012146D03*
X007549Y012136D03*
X007549Y012126D03*
X007549Y012116D03*
X007549Y012106D03*
X007549Y012096D03*
X007549Y012086D03*
X007549Y012076D03*
X007549Y012066D03*
X007549Y012056D03*
X007549Y012046D03*
X007549Y012036D03*
X007549Y012026D03*
X007549Y012016D03*
X007549Y012006D03*
X007549Y011996D03*
X007549Y011986D03*
X008829Y012756D03*
X008939Y012706D03*
X009639Y015326D03*
D17*
X008369Y014596D03*
X008719Y013826D03*
X008849Y013736D03*
X008849Y013726D03*
X008849Y013676D03*
X008959Y013586D03*
X008969Y013596D03*
X008959Y013836D03*
X008719Y013596D03*
X009349Y013656D03*
X009579Y013596D03*
X009699Y013516D03*
X009699Y013696D03*
X009699Y013706D03*
X009699Y013716D03*
X009699Y013726D03*
X009579Y013826D03*
X009169Y012596D03*
X009279Y012136D03*
X007899Y013726D03*
X007909Y013756D03*
X007919Y013786D03*
X010639Y013746D03*
D18*
X010299Y013246D03*
X010289Y013236D03*
X010279Y013226D03*
X010629Y012956D03*
X010609Y012926D03*
X010599Y012916D03*
X010589Y012906D03*
X010579Y012896D03*
X009279Y012146D03*
X008269Y013226D03*
X008259Y013236D03*
X007949Y012916D03*
X007959Y012906D03*
X007589Y013466D03*
X007589Y013476D03*
X007589Y013486D03*
X008329Y014476D03*
X007909Y015096D03*
X007919Y015106D03*
X007929Y015116D03*
X008819Y015146D03*
X008899Y015326D03*
X009269Y015166D03*
X009639Y015286D03*
X009269Y015916D03*
X010599Y015136D03*
X010609Y015126D03*
X010619Y015116D03*
X010629Y015106D03*
X010639Y015086D03*
X010649Y015076D03*
X009259Y013886D03*
D19*
X009269Y013476D03*
X009269Y012956D03*
X009269Y012156D03*
X008279Y012626D03*
X007659Y013196D03*
X008269Y015426D03*
X010289Y015416D03*
X010279Y012636D03*
D20*
X009279Y012166D03*
X007719Y013026D03*
X008449Y015526D03*
X009869Y014106D03*
X010089Y014396D03*
X010099Y015526D03*
D21*
X008549Y015566D03*
X009269Y012996D03*
X009279Y012176D03*
D22*
X009279Y012186D03*
X008569Y014376D03*
D23*
X009269Y013036D03*
X009269Y012196D03*
D24*
X009269Y012206D03*
D25*
X009279Y012216D03*
X009269Y013086D03*
D26*
X009269Y013106D03*
X009279Y012226D03*
X009269Y015836D03*
D27*
X009269Y015826D03*
X009279Y014676D03*
X009269Y013126D03*
X009279Y012236D03*
D28*
X009274Y012246D03*
X009274Y013156D03*
D29*
X009269Y012256D03*
D30*
X009274Y012266D03*
X009274Y013216D03*
X009264Y014706D03*
D31*
X009274Y014996D03*
X009274Y013236D03*
X009274Y012276D03*
D32*
X009279Y012286D03*
X009269Y013266D03*
X009279Y014916D03*
X009279Y014926D03*
D33*
X009284Y014876D03*
X009284Y014866D03*
X009254Y014726D03*
X009274Y015766D03*
X009274Y013286D03*
X009274Y012296D03*
D34*
X009274Y012306D03*
X009274Y013316D03*
X009284Y014786D03*
X009284Y014796D03*
X009284Y014806D03*
X009274Y015756D03*
D35*
X009274Y013356D03*
X009274Y012316D03*
D36*
X009274Y012326D03*
X009274Y013386D03*
X009274Y014236D03*
D37*
X009274Y013426D03*
X009274Y012336D03*
D38*
X009274Y012346D03*
D39*
X009274Y012356D03*
D40*
X009269Y012366D03*
D41*
X009279Y012376D03*
D42*
X009274Y012386D03*
X009274Y014076D03*
X009274Y014086D03*
X009274Y015676D03*
D43*
X009274Y012396D03*
D44*
X009274Y012406D03*
X009274Y015656D03*
D45*
X009274Y015646D03*
X009274Y014286D03*
X009274Y012416D03*
D46*
X009274Y012426D03*
X009274Y014296D03*
D47*
X009274Y015626D03*
X009274Y012436D03*
D48*
X009274Y012446D03*
X009274Y014306D03*
D49*
X009269Y012456D03*
D50*
X009274Y013026D03*
X008654Y012466D03*
X009894Y012466D03*
X009284Y014636D03*
D51*
X008619Y015586D03*
X009269Y015876D03*
X008609Y012476D03*
X009929Y012476D03*
D52*
X009984Y012486D03*
X008564Y012486D03*
X009994Y015566D03*
X009274Y015886D03*
D53*
X010019Y015556D03*
X008539Y012496D03*
X007759Y012936D03*
X007759Y012946D03*
D54*
X007764Y012926D03*
X010004Y012496D03*
D55*
X010029Y012506D03*
X009269Y012986D03*
X008509Y012506D03*
X007749Y012966D03*
X008489Y014396D03*
D56*
X007734Y012996D03*
X008484Y012516D03*
D57*
X007739Y012986D03*
X009279Y013976D03*
X009289Y014616D03*
X008499Y015546D03*
X010059Y012516D03*
D58*
X010084Y012526D03*
X008674Y014106D03*
X007724Y013016D03*
X008464Y012526D03*
D59*
X008444Y012536D03*
X007714Y013036D03*
X008444Y014416D03*
X008424Y015516D03*
X009654Y015026D03*
X010114Y015516D03*
X010124Y012546D03*
X010104Y012536D03*
D60*
X010144Y012556D03*
X008424Y012546D03*
X008404Y012556D03*
X007704Y013066D03*
X010144Y015506D03*
D61*
X010164Y015496D03*
X009674Y015036D03*
X008944Y015206D03*
X008384Y015496D03*
X008364Y015486D03*
X009274Y013966D03*
X008384Y012566D03*
X007694Y013086D03*
X007694Y013096D03*
X010164Y012566D03*
D62*
X009274Y014166D03*
X008874Y015036D03*
X008334Y015466D03*
X009674Y015046D03*
X010194Y015476D03*
X008364Y012576D03*
X007684Y013116D03*
D63*
X008404Y014616D03*
X008844Y013656D03*
X009214Y012576D03*
X009324Y012576D03*
D64*
X010179Y012576D03*
X008419Y014426D03*
X008349Y015476D03*
X007689Y013106D03*
X010179Y015486D03*
D65*
X010209Y015466D03*
X010139Y014416D03*
X008939Y015216D03*
X008319Y015456D03*
X007679Y013136D03*
X007679Y013126D03*
X008329Y012596D03*
X008349Y012586D03*
X010199Y012586D03*
D66*
X009854Y013636D03*
X009864Y013656D03*
X009864Y013666D03*
X009874Y013696D03*
X009874Y013706D03*
X009874Y013716D03*
X009874Y013726D03*
X009874Y013736D03*
X009864Y013766D03*
X009864Y013776D03*
X009704Y013756D03*
X009534Y013766D03*
X009534Y013776D03*
X009524Y013746D03*
X009524Y013736D03*
X009524Y013726D03*
X009524Y013716D03*
X009524Y013706D03*
X009524Y013696D03*
X009524Y013686D03*
X009524Y013676D03*
X009524Y013666D03*
X009534Y013656D03*
X009534Y013646D03*
X009694Y013976D03*
X010304Y014226D03*
X009644Y015416D03*
X008384Y014606D03*
X008684Y013776D03*
X008674Y013756D03*
X008674Y013746D03*
X008674Y013676D03*
X008674Y013666D03*
X008684Y013656D03*
X008684Y013646D03*
X009014Y013656D03*
X009014Y013666D03*
X009014Y013676D03*
X009024Y013696D03*
X009024Y013706D03*
X009024Y013716D03*
X009024Y013726D03*
X009014Y013756D03*
X009014Y013766D03*
X009004Y013786D03*
X009194Y012586D03*
D67*
X009349Y012586D03*
X009699Y013666D03*
X009869Y013676D03*
X009869Y013686D03*
X009869Y013746D03*
X009869Y013756D03*
X010169Y014606D03*
X009279Y015106D03*
X009019Y013746D03*
X009019Y013736D03*
X009019Y013686D03*
X008849Y013666D03*
X008669Y013686D03*
X008669Y013696D03*
X008669Y013706D03*
X008669Y013716D03*
X008669Y013726D03*
X008669Y013736D03*
X008679Y013766D03*
D68*
X008694Y013626D03*
X008704Y013616D03*
X008714Y013606D03*
X008984Y013606D03*
X008984Y013816D03*
X008974Y013826D03*
X009274Y014156D03*
X009564Y013816D03*
X009554Y013806D03*
X009704Y013736D03*
X009694Y013686D03*
X009564Y013606D03*
X009554Y013616D03*
X009824Y013596D03*
X009834Y013606D03*
X009844Y013806D03*
X009834Y013816D03*
X009824Y013826D03*
X009374Y012596D03*
X008874Y015446D03*
X009274Y015926D03*
D69*
X008934Y015226D03*
X008864Y015046D03*
X008304Y015446D03*
X009684Y015056D03*
X010224Y015456D03*
X009264Y013466D03*
X010214Y012596D03*
X010234Y012606D03*
X007674Y013146D03*
D70*
X007669Y013156D03*
X007669Y013166D03*
X008309Y012606D03*
X009269Y013956D03*
X008399Y014436D03*
X008929Y015236D03*
X010239Y015446D03*
X010249Y012616D03*
D71*
X010554Y013936D03*
X010544Y013956D03*
X010534Y013966D03*
X010524Y013986D03*
X010514Y013996D03*
X010504Y014006D03*
X010494Y014026D03*
X010484Y014036D03*
X010474Y014046D03*
X009144Y012606D03*
X008454Y013166D03*
X008754Y013576D03*
X008254Y014216D03*
X008054Y014026D03*
X008044Y014016D03*
X008034Y014006D03*
X008024Y013986D03*
X008014Y013976D03*
X008004Y013956D03*
X007994Y013946D03*
X007984Y013926D03*
X007904Y013696D03*
D72*
X007899Y013706D03*
X007939Y013836D03*
X007969Y013896D03*
X007969Y013906D03*
X007979Y013916D03*
X007989Y013936D03*
X008009Y013966D03*
X008029Y013996D03*
X008349Y014586D03*
X009269Y012916D03*
X009399Y012606D03*
X010089Y013166D03*
X009589Y013586D03*
X010299Y014216D03*
X010219Y014576D03*
X010529Y013976D03*
X010549Y013946D03*
X010559Y013926D03*
X010569Y013916D03*
X010569Y013906D03*
X010579Y013896D03*
X010589Y013876D03*
X010599Y013856D03*
X010609Y013826D03*
X010639Y013696D03*
X009649Y015406D03*
D73*
X009684Y015066D03*
X010264Y015436D03*
X010274Y015426D03*
X008854Y015056D03*
X008284Y015436D03*
X008594Y013986D03*
X007664Y013186D03*
X007664Y013176D03*
X008294Y012616D03*
X010264Y012626D03*
D74*
X010299Y013106D03*
X010309Y013116D03*
X010319Y013126D03*
X010299Y013356D03*
X010309Y013366D03*
X010319Y013376D03*
X010329Y013386D03*
X010369Y013416D03*
X010379Y013426D03*
X010389Y013436D03*
X010399Y013446D03*
X010409Y013456D03*
X010419Y013466D03*
X010429Y013476D03*
X010439Y013486D03*
X010629Y013666D03*
X010429Y014086D03*
X010419Y014096D03*
X010409Y014106D03*
X010399Y014116D03*
X010239Y014556D03*
X010069Y013666D03*
X009429Y012616D03*
X009119Y012616D03*
X008259Y013096D03*
X008249Y013106D03*
X008239Y013116D03*
X008209Y013386D03*
X008199Y013396D03*
X008189Y013406D03*
X008179Y013416D03*
X008169Y013426D03*
X008159Y013436D03*
X008149Y013446D03*
X008109Y014086D03*
X008119Y014096D03*
X008129Y014106D03*
X008329Y014566D03*
X009649Y015396D03*
D75*
X010384Y014126D03*
X010504Y013546D03*
X010494Y013536D03*
X010484Y013526D03*
X010474Y013516D03*
X010464Y013506D03*
X010454Y013496D03*
X010284Y013096D03*
X010274Y013086D03*
X010264Y013076D03*
X010254Y013066D03*
X009094Y012626D03*
X008304Y013056D03*
X008294Y013066D03*
X008284Y013076D03*
X008274Y013086D03*
X008134Y013456D03*
X008124Y013466D03*
X008114Y013476D03*
X008104Y013486D03*
X008094Y013496D03*
X008084Y013506D03*
X008074Y013516D03*
X008064Y013526D03*
X008054Y013536D03*
X007914Y013666D03*
X008144Y014116D03*
D76*
X008159Y014126D03*
X008259Y014206D03*
X008319Y014556D03*
X007919Y013656D03*
X008019Y013566D03*
X008029Y013556D03*
X008039Y013546D03*
X008319Y013046D03*
X008329Y013036D03*
X008339Y013026D03*
X008849Y013526D03*
X009449Y012626D03*
X009699Y013526D03*
X009699Y013896D03*
X010289Y014206D03*
X010369Y014136D03*
X010539Y013576D03*
X010529Y013566D03*
X010519Y013556D03*
X010239Y013056D03*
X010229Y013046D03*
X010219Y013036D03*
X010189Y013016D03*
X009269Y015116D03*
X009429Y015206D03*
X008879Y015426D03*
D77*
X008924Y015246D03*
X009274Y015906D03*
X009694Y015076D03*
X010304Y015406D03*
X010164Y014426D03*
X009934Y014116D03*
X009274Y013946D03*
X008614Y014116D03*
X007654Y013216D03*
X007654Y013206D03*
X008264Y012636D03*
X010294Y012646D03*
X008254Y015416D03*
D78*
X008174Y014136D03*
X007924Y013646D03*
X007934Y013636D03*
X007944Y013626D03*
X007954Y013616D03*
X007964Y013606D03*
X007994Y013586D03*
X008004Y013576D03*
X008424Y013176D03*
X008354Y013016D03*
X008384Y012996D03*
X009074Y012636D03*
X008844Y013896D03*
X009644Y015386D03*
X010254Y014546D03*
X010264Y014536D03*
X010354Y014146D03*
X010624Y013656D03*
X010574Y013606D03*
X010564Y013596D03*
X010554Y013586D03*
X010204Y013026D03*
X010174Y013006D03*
D79*
X010159Y012996D03*
X010149Y012986D03*
X010129Y012976D03*
X010119Y012966D03*
X010119Y013176D03*
X010589Y013616D03*
X010599Y013626D03*
X010609Y013636D03*
X010619Y013646D03*
X010339Y014156D03*
X010269Y014526D03*
X009469Y012636D03*
X008439Y012956D03*
X008409Y012976D03*
X008399Y012986D03*
X008369Y013006D03*
X008459Y013606D03*
X008449Y013646D03*
X008439Y013656D03*
X007979Y013596D03*
X008189Y014146D03*
X008209Y014156D03*
D80*
X008849Y015066D03*
X008919Y015256D03*
X008239Y015406D03*
X008229Y015396D03*
X008209Y015386D03*
X009619Y015216D03*
X010319Y015396D03*
X010329Y015386D03*
X010309Y012656D03*
X008249Y012646D03*
X008239Y012656D03*
X007649Y013226D03*
X007649Y013236D03*
D81*
X008424Y012966D03*
X008454Y012946D03*
X008464Y012936D03*
X008484Y012926D03*
X008514Y012906D03*
X008474Y013566D03*
X008474Y013576D03*
X008464Y013586D03*
X008464Y013596D03*
X008454Y013616D03*
X008454Y013626D03*
X008454Y013636D03*
X008844Y013536D03*
X008844Y013886D03*
X009304Y014596D03*
X009644Y015376D03*
X008874Y015416D03*
X008304Y014546D03*
X008294Y014536D03*
X009694Y013536D03*
X010084Y013626D03*
X010094Y013646D03*
X010094Y013656D03*
X010104Y012956D03*
X010094Y012946D03*
X010074Y012936D03*
X010064Y012926D03*
X009054Y012646D03*
D82*
X009489Y012646D03*
X010009Y012896D03*
X010029Y012906D03*
X010049Y012916D03*
X010069Y013586D03*
X010069Y013596D03*
X010079Y013606D03*
X010079Y013616D03*
X010089Y013636D03*
X009699Y013886D03*
X010079Y014156D03*
X010279Y014516D03*
X008429Y013766D03*
X008429Y013756D03*
X008429Y013746D03*
X008479Y013556D03*
X008489Y013546D03*
X008489Y013536D03*
X008499Y012916D03*
X008529Y012896D03*
X008549Y012886D03*
X008289Y014526D03*
D83*
X008274Y014196D03*
X008464Y014156D03*
X008434Y013786D03*
X008434Y013776D03*
X008494Y013526D03*
X008504Y013516D03*
X008564Y012876D03*
X008584Y012866D03*
X008604Y012856D03*
X009034Y012656D03*
X009964Y012866D03*
X009974Y012876D03*
X009994Y012886D03*
X010104Y013756D03*
X010274Y014196D03*
D84*
X010279Y014506D03*
X010099Y013776D03*
X010099Y013766D03*
X010059Y013576D03*
X010049Y013556D03*
X009699Y013546D03*
X009699Y013876D03*
X009939Y012856D03*
X009919Y012846D03*
X009509Y012656D03*
X008399Y013186D03*
X008439Y013796D03*
X008439Y013806D03*
X008289Y014516D03*
X008879Y015406D03*
X009269Y015126D03*
X009639Y015366D03*
D85*
X009694Y015086D03*
X010344Y015376D03*
X009274Y013486D03*
X008374Y014446D03*
X008844Y015076D03*
X008194Y015376D03*
X007644Y013246D03*
X008224Y012666D03*
X010324Y012666D03*
X010334Y012676D03*
D86*
X009879Y012826D03*
X010029Y013526D03*
X010039Y013536D03*
X010099Y013796D03*
X009269Y013756D03*
X008669Y012826D03*
X008679Y012816D03*
X008649Y012836D03*
X009009Y012666D03*
X008529Y013486D03*
X008519Y013496D03*
X008449Y013826D03*
X008449Y013836D03*
X009639Y015356D03*
D87*
X008844Y013876D03*
X008844Y013546D03*
X008514Y013506D03*
X008444Y013816D03*
X008624Y012846D03*
X009534Y012666D03*
X009904Y012836D03*
X010044Y013546D03*
X010054Y013566D03*
X010094Y013786D03*
D88*
X010179Y014436D03*
X010359Y015366D03*
X009619Y015226D03*
X008919Y015266D03*
X008179Y015366D03*
X008169Y015356D03*
X009269Y013936D03*
X008199Y012686D03*
X008209Y012676D03*
X007639Y013256D03*
X007639Y013266D03*
X010349Y012686D03*
D89*
X009864Y012816D03*
X009554Y012676D03*
X008994Y012676D03*
X008704Y012806D03*
X008844Y013556D03*
X008844Y013866D03*
X008454Y013846D03*
X009274Y013786D03*
X009274Y013776D03*
X010024Y013516D03*
X010094Y013806D03*
X010094Y013816D03*
X010094Y013826D03*
X010094Y013836D03*
X010274Y014496D03*
X008884Y015396D03*
D90*
X008884Y015386D03*
X009264Y015136D03*
X008494Y014146D03*
X008284Y014186D03*
X008454Y013866D03*
X008844Y013856D03*
X009274Y013796D03*
X009264Y013636D03*
X009264Y013626D03*
X008554Y013466D03*
X008754Y012786D03*
X008774Y012776D03*
X008974Y012686D03*
X009794Y012786D03*
X010084Y013856D03*
D91*
X010089Y013846D03*
X010049Y014146D03*
X010259Y014186D03*
X009699Y013866D03*
X009699Y013556D03*
X010009Y013496D03*
X010019Y013506D03*
X009839Y012806D03*
X009819Y012796D03*
X009569Y012686D03*
X009269Y013646D03*
X009269Y013766D03*
X008729Y012796D03*
X008539Y013476D03*
X008459Y013856D03*
X008289Y014506D03*
X009639Y015346D03*
D92*
X009624Y015236D03*
X009704Y015096D03*
X010374Y015356D03*
X010384Y015346D03*
X009264Y013926D03*
X009274Y013496D03*
X008184Y012696D03*
X007634Y013276D03*
X008834Y015086D03*
X008154Y015346D03*
X010374Y012706D03*
X010364Y012696D03*
D93*
X010389Y012716D03*
X010399Y012726D03*
X009269Y013916D03*
X009299Y014606D03*
X009259Y015196D03*
X008909Y015276D03*
X008359Y014456D03*
X008149Y015336D03*
X007629Y013306D03*
X007629Y013296D03*
X007629Y013286D03*
X008159Y012716D03*
X008169Y012706D03*
X010419Y015316D03*
X010409Y015326D03*
X010399Y015336D03*
D94*
X010934Y014526D03*
X010944Y014496D03*
X010944Y014486D03*
X010954Y014466D03*
X010954Y014456D03*
X010954Y014446D03*
X010964Y014426D03*
X010964Y014416D03*
X010964Y014406D03*
X010964Y014396D03*
X010974Y014386D03*
X010974Y014376D03*
X010974Y014366D03*
X010974Y014356D03*
X010984Y014326D03*
X010984Y014316D03*
X010984Y014306D03*
X010994Y014256D03*
X010994Y014246D03*
X010994Y014236D03*
X010994Y014226D03*
X010994Y014216D03*
X011004Y014146D03*
X011004Y014136D03*
X011004Y014126D03*
X011004Y014116D03*
X011004Y014106D03*
X011004Y014096D03*
X011004Y014086D03*
X011004Y014076D03*
X011004Y014066D03*
X011004Y014056D03*
X011004Y014046D03*
X011004Y014036D03*
X011004Y014026D03*
X011004Y014016D03*
X011004Y014006D03*
X011004Y013996D03*
X011004Y013986D03*
X011004Y013976D03*
X011004Y013966D03*
X011004Y013956D03*
X011004Y013946D03*
X011004Y013936D03*
X011004Y013926D03*
X011004Y013916D03*
X010994Y013846D03*
X010994Y013836D03*
X010994Y013826D03*
X010994Y013816D03*
X010994Y013806D03*
X010984Y013746D03*
X010984Y013736D03*
X010974Y013696D03*
X010974Y013686D03*
X010974Y013676D03*
X010964Y013666D03*
X010964Y013656D03*
X010964Y013646D03*
X010964Y013636D03*
X010954Y013616D03*
X010954Y013606D03*
X010954Y013596D03*
X010954Y013586D03*
X010944Y013576D03*
X010944Y013566D03*
X010934Y013536D03*
X010074Y013886D03*
X009984Y013466D03*
X009744Y012766D03*
X009604Y012706D03*
X008804Y012766D03*
X009264Y013606D03*
X009274Y013816D03*
X009274Y013826D03*
X008844Y013846D03*
X008474Y013906D03*
X008464Y013896D03*
X007594Y014456D03*
X007594Y014466D03*
X007594Y014476D03*
X007594Y014486D03*
X007604Y014496D03*
X007604Y014506D03*
X007614Y014536D03*
X007584Y014446D03*
X007584Y014436D03*
X007584Y014426D03*
X007584Y014416D03*
X007574Y014406D03*
X007574Y014396D03*
X007574Y014386D03*
X007574Y014376D03*
X007564Y014346D03*
X007564Y014336D03*
X007564Y014326D03*
X007564Y014316D03*
X007564Y014306D03*
X007554Y014286D03*
X007554Y014276D03*
X007554Y014266D03*
X007554Y014256D03*
X007554Y014246D03*
X007554Y014236D03*
X007544Y014226D03*
X007544Y014216D03*
X007544Y014206D03*
X007544Y014196D03*
X007544Y014186D03*
X007544Y014176D03*
X007544Y014166D03*
X007544Y014156D03*
X007544Y014146D03*
X007544Y014136D03*
X007544Y013926D03*
X007544Y013916D03*
X007544Y013906D03*
X007544Y013896D03*
X007544Y013886D03*
X007544Y013876D03*
X007544Y013866D03*
X007544Y013856D03*
X007544Y013846D03*
X007544Y013836D03*
X007544Y013826D03*
X008884Y015376D03*
D95*
X008894Y015366D03*
X009264Y015146D03*
X009644Y015316D03*
X010064Y013916D03*
X009274Y013846D03*
X009274Y012926D03*
X008924Y012716D03*
X008904Y012726D03*
X009624Y012716D03*
X009714Y012756D03*
X010854Y013316D03*
X010864Y013346D03*
X010874Y013366D03*
X010874Y013376D03*
X010884Y013386D03*
X010884Y013396D03*
X010894Y013406D03*
X010894Y013416D03*
X010904Y013436D03*
X010904Y013446D03*
X010914Y013466D03*
X010914Y013476D03*
X010924Y013496D03*
X010924Y014566D03*
X010914Y014586D03*
X010904Y014616D03*
X010904Y014626D03*
X010894Y014646D03*
X010894Y014656D03*
X010884Y014666D03*
X010884Y014676D03*
X010874Y014686D03*
X010874Y014696D03*
X010864Y014716D03*
X010844Y014766D03*
X007694Y014746D03*
X007684Y014726D03*
X007684Y014716D03*
X007674Y014706D03*
X007674Y014696D03*
X007664Y014686D03*
X007664Y014676D03*
X007654Y014656D03*
X007644Y014626D03*
X007634Y014606D03*
X007554Y013756D03*
X007554Y013746D03*
X007554Y013736D03*
X007554Y013726D03*
X007554Y013716D03*
X007554Y013706D03*
X007554Y013696D03*
D96*
X007624Y013326D03*
X007624Y013316D03*
X008134Y012736D03*
X008144Y012726D03*
X009274Y012946D03*
X009274Y013506D03*
X010414Y012736D03*
X010424Y012746D03*
X009704Y015106D03*
X009624Y015246D03*
X008834Y015096D03*
X008134Y015326D03*
X008124Y015316D03*
X008114Y015306D03*
X010434Y015306D03*
X010444Y015296D03*
D97*
X010819Y014816D03*
X010819Y014806D03*
X010829Y014796D03*
X010829Y014786D03*
X010839Y014776D03*
X010849Y014756D03*
X010849Y014746D03*
X010859Y014736D03*
X010859Y014726D03*
X010869Y014706D03*
X010249Y014476D03*
X009719Y015196D03*
X009719Y015206D03*
X008889Y015356D03*
X008809Y015196D03*
X008489Y013926D03*
X009269Y013856D03*
X009269Y013586D03*
X009269Y013576D03*
X008859Y012746D03*
X009639Y012726D03*
X010819Y013246D03*
X010829Y013266D03*
X010839Y013276D03*
X010839Y013286D03*
X010849Y013296D03*
X010849Y013306D03*
X010859Y013326D03*
X010859Y013336D03*
X010869Y013356D03*
X007739Y014836D03*
X007729Y014816D03*
X007719Y014806D03*
X007719Y014796D03*
X007709Y014786D03*
X007709Y014776D03*
X007699Y014766D03*
X007699Y014756D03*
X007689Y014736D03*
X007559Y013686D03*
X007559Y013676D03*
X007559Y013666D03*
X007559Y013656D03*
D98*
X007564Y013646D03*
X007564Y013636D03*
X007564Y013626D03*
X007564Y013616D03*
X008304Y014176D03*
X008494Y013936D03*
X008594Y013446D03*
X008884Y012736D03*
X009654Y012736D03*
X009684Y012746D03*
X010054Y013926D03*
X010014Y014136D03*
X010244Y014176D03*
X010814Y014826D03*
X010804Y014836D03*
X010804Y014846D03*
X010794Y014856D03*
X010784Y014866D03*
X010784Y014876D03*
X010774Y014886D03*
X010774Y014896D03*
X010764Y014906D03*
X009644Y015306D03*
X010824Y013256D03*
X010814Y013236D03*
X010804Y013226D03*
X010804Y013216D03*
X010794Y013206D03*
X010794Y013196D03*
X010784Y013186D03*
X010774Y013166D03*
X010764Y013146D03*
X007754Y014856D03*
X007754Y014866D03*
X007764Y014876D03*
X007764Y014886D03*
X007774Y014896D03*
X007744Y014846D03*
X007734Y014826D03*
D99*
X008079Y015276D03*
X008089Y015286D03*
X008099Y015296D03*
X008829Y015106D03*
X008909Y015286D03*
X009259Y015186D03*
X009709Y015116D03*
X010449Y015286D03*
X010459Y012776D03*
X010449Y012766D03*
X010439Y012756D03*
X008119Y012746D03*
X008109Y012756D03*
X008099Y012766D03*
X007619Y013336D03*
X007619Y013346D03*
D100*
X007614Y013356D03*
X007614Y013366D03*
X008064Y012796D03*
X008074Y012786D03*
X008084Y012776D03*
X008824Y015116D03*
X008904Y015296D03*
X009634Y015256D03*
X010204Y014446D03*
X010474Y015266D03*
X010464Y015276D03*
X008064Y015266D03*
X008054Y015256D03*
X008044Y015246D03*
D101*
X008039Y015236D03*
X008349Y014466D03*
X007609Y013386D03*
X007609Y013376D03*
X008049Y012806D03*
X009279Y013516D03*
X009269Y013906D03*
X009999Y013976D03*
X009709Y015126D03*
X010489Y015256D03*
X010499Y015246D03*
X010509Y015236D03*
X010519Y015226D03*
X010489Y012806D03*
X010479Y012796D03*
X010469Y012786D03*
D102*
X010504Y012816D03*
X010514Y012826D03*
X010524Y012836D03*
X010534Y012846D03*
X010014Y013966D03*
X009984Y014126D03*
X009714Y015136D03*
X009634Y015266D03*
X009264Y015176D03*
X008904Y015306D03*
X008824Y015126D03*
X008564Y014126D03*
X008004Y015206D03*
X008014Y015216D03*
X008024Y015226D03*
X007604Y013406D03*
X007604Y013396D03*
X008004Y012856D03*
X008014Y012846D03*
X008024Y012836D03*
X008034Y012826D03*
X008044Y012816D03*
X010524Y015216D03*
X010534Y015206D03*
X010544Y015196D03*
X010554Y015186D03*
D103*
X010219Y014456D03*
X009709Y015146D03*
X008819Y015136D03*
X007999Y015196D03*
X007989Y015186D03*
X007979Y015176D03*
X007969Y015166D03*
X008529Y013976D03*
X008299Y013196D03*
X007989Y012876D03*
X007999Y012866D03*
X007599Y013416D03*
X007599Y013426D03*
X007599Y013436D03*
X009269Y013896D03*
X010239Y013186D03*
X010249Y013196D03*
X010259Y013206D03*
X010559Y012876D03*
X010549Y012866D03*
X010539Y012856D03*
D104*
X010574Y012886D03*
X010264Y013216D03*
X010224Y014166D03*
X010594Y015146D03*
X010584Y015156D03*
X010574Y015166D03*
X010564Y015176D03*
X009714Y015156D03*
X009634Y015276D03*
X008904Y015316D03*
X008324Y014166D03*
X007594Y013456D03*
X007594Y013446D03*
X007964Y012896D03*
X007974Y012886D03*
X008284Y013206D03*
X008274Y013216D03*
X009274Y013526D03*
X007934Y015126D03*
X007944Y015136D03*
X007954Y015146D03*
X007964Y015156D03*
D105*
X007904Y015086D03*
X007894Y015076D03*
X007874Y015046D03*
X007864Y015036D03*
X008514Y013966D03*
X008224Y013266D03*
X008234Y013256D03*
X008244Y013246D03*
X007584Y013496D03*
X007584Y013506D03*
X007584Y013516D03*
X008814Y015156D03*
X009714Y015166D03*
X010634Y015096D03*
X010654Y015066D03*
X010664Y015056D03*
X010034Y013956D03*
X010304Y013256D03*
X010634Y012966D03*
X010644Y012976D03*
X010654Y012986D03*
X010624Y012946D03*
X010614Y012936D03*
X009274Y012936D03*
X009274Y013536D03*
D106*
X007754Y012956D03*
X008524Y015556D03*
D107*
X008879Y015026D03*
X009279Y013456D03*
X009269Y012966D03*
X010119Y014406D03*
X007699Y013076D03*
D108*
X007744Y012976D03*
X010064Y014386D03*
X010044Y015546D03*
D109*
X010079Y015536D03*
X009639Y015016D03*
X008909Y015016D03*
X008469Y015536D03*
X008469Y014406D03*
X007729Y013006D03*
X009269Y012976D03*
D110*
X009269Y013546D03*
X008509Y013956D03*
X008219Y013276D03*
X007579Y013526D03*
X007579Y013536D03*
X007849Y015016D03*
X007859Y015026D03*
X007879Y015056D03*
X007889Y015066D03*
X010039Y013946D03*
X010329Y013276D03*
X010319Y013266D03*
X010659Y012996D03*
X010669Y013006D03*
X010679Y013016D03*
X010689Y013036D03*
X010699Y013046D03*
X010719Y013076D03*
X010689Y015026D03*
X010679Y015036D03*
X010669Y015046D03*
D111*
X009294Y014626D03*
X009274Y013006D03*
D112*
X009274Y013016D03*
X009274Y014176D03*
X009984Y014366D03*
X009924Y015586D03*
D113*
X009644Y015296D03*
X009714Y015176D03*
X009264Y015156D03*
X008894Y015336D03*
X008814Y015176D03*
X008814Y015166D03*
X007844Y015006D03*
X007834Y014996D03*
X007824Y014986D03*
X007824Y014976D03*
X007814Y014966D03*
X007804Y014946D03*
X008504Y013946D03*
X009264Y013876D03*
X010044Y013936D03*
X010234Y014466D03*
X010694Y015016D03*
X010704Y015006D03*
X010714Y014996D03*
X010714Y014986D03*
X010724Y014976D03*
X010744Y014946D03*
X010754Y013126D03*
X010744Y013116D03*
X010734Y013096D03*
X010724Y013086D03*
X010714Y013066D03*
X010704Y013056D03*
X010684Y013026D03*
X007574Y013546D03*
X007574Y013556D03*
X007574Y013566D03*
D114*
X007709Y013056D03*
X007709Y013046D03*
X008409Y015506D03*
X009269Y015896D03*
D115*
X009284Y014646D03*
X009274Y013046D03*
D116*
X009274Y013056D03*
X009274Y015856D03*
D117*
X009269Y013066D03*
D118*
X009274Y013076D03*
D119*
X009274Y013096D03*
D120*
X009269Y013556D03*
X009269Y013566D03*
X009269Y013866D03*
X008529Y014136D03*
X008319Y014486D03*
X007789Y014916D03*
X007789Y014926D03*
X007799Y014936D03*
X007809Y014956D03*
X007779Y014906D03*
X007569Y013606D03*
X007569Y013596D03*
X007569Y013586D03*
X007569Y013576D03*
X008809Y015186D03*
X008889Y015346D03*
X009719Y015186D03*
X010729Y014966D03*
X010739Y014956D03*
X010749Y014936D03*
X010759Y014926D03*
X010759Y014916D03*
X010779Y013176D03*
X010769Y013156D03*
X010759Y013136D03*
X010739Y013106D03*
D121*
X009274Y013116D03*
D122*
X008844Y013906D03*
X008264Y013336D03*
X008254Y013346D03*
X008244Y013356D03*
X008234Y013366D03*
X008224Y013376D03*
X008194Y013156D03*
X008204Y013146D03*
X008214Y013136D03*
X008224Y013126D03*
X007914Y013676D03*
X008064Y014036D03*
X008074Y014046D03*
X008084Y014056D03*
X008094Y014066D03*
X008104Y014076D03*
X010264Y013326D03*
X010274Y013336D03*
X010284Y013346D03*
X010344Y013396D03*
X010354Y013406D03*
X010364Y013166D03*
X010354Y013156D03*
X010344Y013146D03*
X010334Y013136D03*
X010634Y013676D03*
X010454Y014066D03*
X010444Y014076D03*
D123*
X009274Y013136D03*
D124*
X009274Y013146D03*
X009274Y015816D03*
D125*
X008879Y015436D03*
X008339Y014576D03*
X007909Y013686D03*
X008279Y013326D03*
X008289Y013316D03*
X008309Y013306D03*
X008319Y013296D03*
X008329Y013286D03*
X008169Y013186D03*
X008169Y013176D03*
X008179Y013166D03*
X008929Y013576D03*
X009609Y013576D03*
X009789Y013576D03*
X009699Y013906D03*
X010249Y013316D03*
X010239Y013306D03*
X010229Y013296D03*
X010219Y013286D03*
X010369Y013176D03*
X010639Y013686D03*
X010499Y014016D03*
X010469Y014056D03*
X010229Y014566D03*
D126*
X009274Y013166D03*
D127*
X009274Y013176D03*
X009274Y014206D03*
X009274Y015806D03*
D128*
X009274Y013186D03*
D129*
X009274Y013196D03*
D130*
X009274Y013206D03*
D131*
X009274Y013226D03*
D132*
X009274Y013246D03*
X009274Y014216D03*
X009264Y014716D03*
D133*
X009279Y014936D03*
X009279Y014946D03*
X009279Y014956D03*
X009279Y014966D03*
X009269Y013256D03*
D134*
X009274Y013276D03*
X009284Y014906D03*
D135*
X010514Y013286D03*
X008034Y013286D03*
D136*
X009269Y013296D03*
X009279Y014856D03*
D137*
X009284Y014846D03*
X009284Y014836D03*
X009274Y013306D03*
D138*
X009274Y013326D03*
X009274Y014746D03*
X009284Y014756D03*
X009284Y014766D03*
X009284Y014776D03*
D139*
X009269Y013336D03*
D140*
X009274Y013346D03*
X009274Y015746D03*
D141*
X009269Y013366D03*
D142*
X009269Y013376D03*
D143*
X009269Y013396D03*
D144*
X009274Y013406D03*
X009274Y015726D03*
D145*
X009269Y013416D03*
D146*
X009269Y013436D03*
D147*
X009524Y013446D03*
D148*
X009699Y013506D03*
X008839Y013506D03*
X008529Y013736D03*
D149*
X008734Y013836D03*
X008854Y013716D03*
X008844Y013706D03*
X008844Y013696D03*
X008844Y013686D03*
X008734Y013586D03*
X008844Y013516D03*
X009584Y013836D03*
X009804Y013836D03*
X009814Y013586D03*
X010204Y014586D03*
X010584Y013886D03*
X010594Y013866D03*
X010604Y013846D03*
X010604Y013836D03*
X010614Y013816D03*
X010614Y013806D03*
X010624Y013796D03*
X010624Y013786D03*
X010624Y013776D03*
X010634Y013766D03*
X010634Y013756D03*
X010644Y013736D03*
X010644Y013726D03*
X010644Y013716D03*
X010644Y013706D03*
X007964Y013886D03*
X007954Y013876D03*
X007954Y013866D03*
X007944Y013856D03*
X007944Y013846D03*
X007934Y013826D03*
X007934Y013816D03*
X007924Y013806D03*
X007924Y013796D03*
X007914Y013776D03*
X007914Y013766D03*
X007904Y013746D03*
X007904Y013736D03*
X007904Y013716D03*
D150*
X008249Y014226D03*
X008689Y013796D03*
X008689Y013786D03*
X008699Y013806D03*
X008709Y013816D03*
X008849Y013746D03*
X008989Y013806D03*
X008999Y013796D03*
X009009Y013776D03*
X009009Y013646D03*
X008999Y013636D03*
X008999Y013626D03*
X008989Y013616D03*
X008689Y013636D03*
X009529Y013756D03*
X009539Y013786D03*
X009549Y013796D03*
X009699Y013746D03*
X009699Y013676D03*
X009839Y013616D03*
X009849Y013626D03*
X009859Y013646D03*
X009859Y013786D03*
X009849Y013796D03*
X009549Y013626D03*
X009539Y013636D03*
X010189Y014596D03*
D151*
X010159Y014616D03*
X010309Y014236D03*
X010209Y013746D03*
X009219Y013656D03*
D152*
X009274Y013656D03*
X008414Y014626D03*
X010204Y013666D03*
D153*
X008854Y013756D03*
D154*
X008839Y013916D03*
X008239Y014236D03*
X009699Y013916D03*
X009699Y013766D03*
D155*
X009559Y013986D03*
X009269Y014696D03*
D156*
X009269Y014016D03*
X009269Y014006D03*
X009269Y013996D03*
X009269Y015666D03*
D157*
X009274Y014056D03*
X009274Y014046D03*
X009274Y014036D03*
X009274Y014026D03*
D158*
X009269Y014066D03*
D159*
X009269Y014096D03*
D160*
X009274Y014186D03*
D161*
X009274Y014196D03*
D162*
X009279Y014226D03*
D163*
X009274Y014246D03*
D164*
X009274Y014256D03*
X009274Y015696D03*
D165*
X009274Y014266D03*
D166*
X009279Y014276D03*
D167*
X009274Y014316D03*
D168*
X009274Y014326D03*
D169*
X009274Y014336D03*
D170*
X009274Y014346D03*
D171*
X009279Y014656D03*
X008699Y014356D03*
X009269Y015846D03*
D172*
X009899Y014356D03*
D173*
X008609Y014366D03*
X009269Y015866D03*
D174*
X010019Y014376D03*
D175*
X008524Y014386D03*
D176*
X009274Y014666D03*
D177*
X009269Y014686D03*
D178*
X009269Y014736D03*
X009279Y014816D03*
X009279Y014826D03*
D179*
X009279Y014886D03*
X009279Y014896D03*
D180*
X009279Y014976D03*
X009279Y014986D03*
D181*
X009279Y015006D03*
X009269Y015786D03*
D182*
X008589Y015576D03*
X009959Y015576D03*
D183*
X009874Y015596D03*
X008664Y015596D03*
D184*
X009274Y015606D03*
D185*
X009269Y015616D03*
D186*
X009269Y015636D03*
D187*
X009274Y015686D03*
D188*
X009269Y015706D03*
D189*
X009269Y015716D03*
D190*
X009274Y015736D03*
D191*
X009274Y015776D03*
D192*
X009269Y015796D03*
M02*
