G75*
G70*
%OFA0B0*%
%FSLAX24Y24*%
%IPPOS*%
%LPD*%
%AMOC8*
5,1,8,0,0,1.08239X$1,22.5*
%
%ADD10OC8,0.0640*%
%ADD11C,0.0740*%
%ADD12C,0.0100*%
%ADD13C,0.0160*%
D10*
X001206Y001706D03*
X001206Y002706D03*
X001206Y003706D03*
X001206Y004706D03*
X001206Y005706D03*
X001206Y006706D03*
X001206Y007706D03*
X001206Y008706D03*
X001206Y009706D03*
X001206Y010706D03*
X001206Y011706D03*
X001206Y012706D03*
X001206Y013706D03*
X001206Y014706D03*
X001206Y015706D03*
X001206Y016706D03*
X001206Y017706D03*
X001206Y018706D03*
X001206Y019706D03*
X001206Y020706D03*
X002206Y020706D03*
X002206Y019706D03*
X002206Y018706D03*
X002206Y017706D03*
X002206Y016706D03*
X002206Y015706D03*
X002206Y014706D03*
X002206Y013706D03*
X002206Y012706D03*
X002206Y011706D03*
X002206Y010706D03*
X002206Y009706D03*
X002206Y008706D03*
X002206Y007706D03*
X002206Y006706D03*
X002206Y005706D03*
X002206Y004706D03*
X002206Y003706D03*
X002206Y002706D03*
X002206Y001706D03*
X008506Y001806D03*
X008506Y002806D03*
X009506Y002806D03*
X009506Y001806D03*
X010506Y001806D03*
X010506Y002806D03*
X011506Y002806D03*
X011506Y001806D03*
X012506Y001806D03*
X012506Y002806D03*
X015806Y006406D03*
X015806Y007406D03*
X015806Y008406D03*
X015806Y009406D03*
X015806Y010406D03*
X016806Y010406D03*
X016806Y009406D03*
X016806Y008406D03*
X016806Y007406D03*
X016806Y006406D03*
X016806Y015006D03*
X016806Y016006D03*
X016806Y017006D03*
X016806Y018006D03*
X016806Y019006D03*
X015806Y019006D03*
X015806Y018006D03*
X015806Y017006D03*
X015806Y016006D03*
X015806Y015006D03*
X012506Y022606D03*
X012506Y023606D03*
X011506Y023606D03*
X011506Y022606D03*
X010506Y022606D03*
X010506Y023606D03*
X009506Y023606D03*
X009506Y022606D03*
X008506Y022606D03*
X008506Y023606D03*
D11*
X005406Y002706D03*
X004406Y002706D03*
X003406Y002706D03*
D12*
X000516Y000416D02*
X000516Y025593D01*
X019067Y025593D01*
X019067Y000416D01*
X000516Y000416D01*
X000546Y000416D02*
X000546Y025593D01*
X000516Y025526D02*
X019067Y025526D01*
X019026Y025593D02*
X019026Y000416D01*
X019067Y000446D02*
X000516Y000446D01*
X000516Y000566D02*
X019067Y000566D01*
X019067Y000686D02*
X000516Y000686D01*
X000516Y000806D02*
X019067Y000806D01*
X019067Y000926D02*
X000516Y000926D01*
X000516Y001046D02*
X019067Y001046D01*
X019067Y001166D02*
X000516Y001166D01*
X000516Y001286D02*
X000877Y001286D01*
X000906Y001257D02*
X000906Y000416D01*
X000786Y000416D02*
X000786Y001377D01*
X000757Y001406D02*
X000516Y001406D01*
X000516Y001526D02*
X000676Y001526D01*
X000676Y001487D02*
X000987Y001176D01*
X001426Y001176D01*
X001736Y001487D01*
X001736Y001926D01*
X001426Y002236D01*
X000987Y002236D01*
X000676Y001926D01*
X000676Y001487D01*
X000676Y001646D02*
X000516Y001646D01*
X000516Y001766D02*
X000676Y001766D01*
X000676Y001886D02*
X000516Y001886D01*
X000516Y002006D02*
X000757Y002006D01*
X000786Y002036D02*
X000786Y002490D01*
X000790Y002486D02*
X000516Y002486D01*
X000516Y002366D02*
X000910Y002366D01*
X000906Y002370D02*
X000906Y002156D01*
X000877Y002126D02*
X000516Y002126D01*
X000516Y002246D02*
X001917Y002246D01*
X001866Y002297D02*
X001866Y002003D01*
X001870Y002006D02*
X001656Y002006D01*
X001626Y002036D02*
X001626Y002490D01*
X001623Y002486D02*
X001677Y002486D01*
X001676Y002487D02*
X001987Y002176D01*
X002426Y002176D01*
X002736Y002487D01*
X002736Y002926D01*
X002456Y003206D01*
X003098Y003206D01*
X003078Y003198D02*
X002915Y003035D01*
X002826Y002822D01*
X002826Y025593D01*
X002706Y025593D02*
X002706Y020956D01*
X002696Y020966D02*
X019067Y020966D01*
X019067Y020846D02*
X002736Y020846D01*
X002736Y020926D02*
X002736Y020487D01*
X002456Y020206D01*
X002736Y019926D01*
X002736Y019487D01*
X002456Y019206D01*
X002736Y018926D01*
X002736Y018487D01*
X002456Y018206D01*
X015276Y018206D01*
X015276Y018226D02*
X015276Y017787D01*
X015557Y017506D01*
X015276Y017226D01*
X015276Y016787D01*
X015557Y016506D01*
X015276Y016226D01*
X015276Y015787D01*
X015557Y015506D01*
X015276Y015226D01*
X015276Y014787D01*
X015587Y014476D01*
X016026Y014476D01*
X016306Y014757D01*
X016587Y014476D01*
X017026Y014476D01*
X017336Y014787D01*
X017336Y015226D01*
X017056Y015506D01*
X017336Y015787D01*
X017336Y016226D01*
X017056Y016506D01*
X017336Y016787D01*
X017336Y017226D01*
X017056Y017506D01*
X017336Y017787D01*
X017336Y018226D01*
X017026Y018536D01*
X016587Y018536D01*
X016306Y018256D01*
X016056Y018506D01*
X016336Y018787D01*
X016336Y019226D01*
X016026Y019536D01*
X015587Y019536D01*
X015276Y019226D01*
X015276Y018787D01*
X015557Y018506D01*
X015276Y018226D01*
X015306Y018256D02*
X015306Y018757D01*
X015276Y018806D02*
X002736Y018806D01*
X002736Y018686D02*
X015377Y018686D01*
X015426Y018637D02*
X015426Y018376D01*
X015377Y018326D02*
X002576Y018326D01*
X002586Y018337D02*
X002586Y018076D01*
X002576Y018086D02*
X015276Y018086D01*
X015276Y017966D02*
X002696Y017966D01*
X002706Y017956D02*
X002706Y018457D01*
X002696Y018446D02*
X015497Y018446D01*
X015546Y018496D02*
X015546Y018517D01*
X015497Y018566D02*
X002736Y018566D01*
X002736Y018926D02*
X015276Y018926D01*
X015276Y019046D02*
X002616Y019046D01*
X002586Y019076D02*
X002586Y019337D01*
X002536Y019286D02*
X015337Y019286D01*
X015306Y019256D02*
X015306Y025593D01*
X015186Y025593D02*
X015186Y000416D01*
X015066Y000416D02*
X015066Y025593D01*
X014946Y025593D02*
X014946Y000416D01*
X014826Y000416D02*
X014826Y025593D01*
X014706Y025593D02*
X014706Y000416D01*
X014586Y000416D02*
X014586Y025593D01*
X014466Y025593D02*
X014466Y000416D01*
X014346Y000416D02*
X014346Y025593D01*
X014226Y025593D02*
X014226Y000416D01*
X014106Y000416D02*
X014106Y025593D01*
X013986Y025593D02*
X013986Y000416D01*
X013866Y000416D02*
X013866Y025593D01*
X013746Y025593D02*
X013746Y000416D01*
X013626Y000416D02*
X013626Y025593D01*
X013506Y025593D02*
X013506Y000416D01*
X013386Y000416D02*
X013386Y025593D01*
X013266Y025593D02*
X013266Y000416D01*
X013146Y000416D02*
X013146Y025593D01*
X013026Y025593D02*
X013026Y023836D01*
X013036Y023826D02*
X012726Y024136D01*
X012287Y024136D01*
X012006Y023856D01*
X011726Y024136D01*
X011287Y024136D01*
X011006Y023856D01*
X010726Y024136D01*
X010287Y024136D01*
X010006Y023856D01*
X009726Y024136D01*
X009287Y024136D01*
X008976Y023826D01*
X008976Y023387D01*
X009257Y023106D01*
X009006Y022856D01*
X008726Y023136D01*
X008287Y023136D01*
X007976Y022826D01*
X007976Y022387D01*
X008287Y022076D01*
X008726Y022076D01*
X009006Y022357D01*
X009287Y022076D01*
X009726Y022076D01*
X010006Y022357D01*
X010287Y022076D01*
X010726Y022076D01*
X011006Y022357D01*
X011287Y022076D01*
X011726Y022076D01*
X012006Y022357D01*
X012287Y022076D01*
X012726Y022076D01*
X013036Y022387D01*
X013036Y022826D01*
X012756Y023106D01*
X013036Y023387D01*
X013036Y023826D01*
X013016Y023846D02*
X019067Y023846D01*
X019067Y023726D02*
X013036Y023726D01*
X013036Y023606D02*
X019067Y023606D01*
X019067Y023486D02*
X013036Y023486D01*
X013026Y023377D02*
X013026Y022836D01*
X013036Y022766D02*
X019067Y022766D01*
X019067Y022646D02*
X013036Y022646D01*
X013036Y022526D02*
X019067Y022526D01*
X019067Y022406D02*
X013036Y022406D01*
X013026Y022377D02*
X013026Y003036D01*
X013036Y003026D02*
X012726Y003336D01*
X012287Y003336D01*
X012006Y003056D01*
X011726Y003336D01*
X011287Y003336D01*
X011006Y003056D01*
X010726Y003336D01*
X010287Y003336D01*
X010006Y003056D01*
X009726Y003336D01*
X009287Y003336D01*
X009006Y003056D01*
X008726Y003336D01*
X008287Y003336D01*
X007976Y003026D01*
X007976Y002587D01*
X008257Y002306D01*
X007976Y002026D01*
X007976Y001587D01*
X008287Y001276D01*
X008726Y001276D01*
X009006Y001557D01*
X009287Y001276D01*
X009726Y001276D01*
X010006Y001557D01*
X010287Y001276D01*
X010726Y001276D01*
X011006Y001557D01*
X011287Y001276D01*
X011726Y001276D01*
X012036Y001587D01*
X012036Y002026D01*
X011756Y002306D01*
X012006Y002557D01*
X012287Y002276D01*
X012726Y002276D01*
X013036Y002587D01*
X013036Y003026D01*
X013036Y002966D02*
X019067Y002966D01*
X019067Y002846D02*
X013036Y002846D01*
X013036Y002726D02*
X019067Y002726D01*
X019067Y002606D02*
X013036Y002606D01*
X013026Y002577D02*
X013026Y000416D01*
X012906Y000416D02*
X012906Y001570D01*
X012863Y001526D02*
X019067Y001526D01*
X019067Y001406D02*
X012743Y001406D01*
X012786Y001450D02*
X012786Y000416D01*
X012666Y000416D02*
X012666Y001356D01*
X012693Y001356D02*
X012956Y001620D01*
X012956Y001756D01*
X012557Y001756D01*
X012557Y001856D01*
X012956Y001856D01*
X012956Y001993D01*
X012693Y002256D01*
X012556Y002256D01*
X012556Y001857D01*
X012456Y001857D01*
X012456Y001856D02*
X012456Y001756D01*
X012556Y001756D01*
X012556Y001356D01*
X012693Y001356D01*
X012556Y001406D02*
X012456Y001406D01*
X012456Y001356D02*
X012456Y001756D01*
X012056Y001756D01*
X012056Y001620D01*
X012320Y001356D01*
X012456Y001356D01*
X012426Y001356D02*
X012426Y000416D01*
X012306Y000416D02*
X012306Y001370D01*
X012270Y001406D02*
X011856Y001406D01*
X011826Y001377D02*
X011826Y000416D01*
X011706Y000416D02*
X011706Y001276D01*
X011736Y001286D02*
X019067Y001286D01*
X019067Y001646D02*
X012956Y001646D01*
X012906Y001756D02*
X012906Y001856D01*
X012956Y001886D02*
X019067Y001886D01*
X019067Y001766D02*
X012557Y001766D01*
X012546Y001756D02*
X012546Y000416D01*
X012186Y000416D02*
X012186Y001490D01*
X012150Y001526D02*
X011976Y001526D01*
X011946Y001497D02*
X011946Y000416D01*
X012066Y000416D02*
X012066Y001610D01*
X012056Y001646D02*
X012036Y001646D01*
X012066Y001756D02*
X012066Y001856D01*
X012056Y001856D02*
X012456Y001856D01*
X012456Y001857D02*
X012456Y002256D01*
X012320Y002256D01*
X012056Y001993D01*
X012056Y001856D01*
X012056Y001886D02*
X012036Y001886D01*
X012036Y001766D02*
X012456Y001766D01*
X012426Y001756D02*
X012426Y001856D01*
X012456Y001886D02*
X012556Y001886D01*
X012546Y001857D02*
X012546Y002276D01*
X012556Y002246D02*
X012456Y002246D01*
X012426Y002256D02*
X012426Y002276D01*
X012306Y002276D02*
X012306Y002243D01*
X012310Y002246D02*
X011816Y002246D01*
X011826Y002236D02*
X011826Y002377D01*
X011816Y002366D02*
X012197Y002366D01*
X012186Y002377D02*
X012186Y002123D01*
X012190Y002126D02*
X011936Y002126D01*
X011946Y002116D02*
X011946Y002497D01*
X011936Y002486D02*
X012077Y002486D01*
X012066Y002497D02*
X012066Y002003D01*
X012070Y002006D02*
X012036Y002006D01*
X012186Y001856D02*
X012186Y001756D01*
X012306Y001756D02*
X012306Y001856D01*
X012456Y002006D02*
X012556Y002006D01*
X012556Y002126D02*
X012456Y002126D01*
X012666Y002256D02*
X012666Y002276D01*
X012703Y002246D02*
X019067Y002246D01*
X019067Y002126D02*
X012823Y002126D01*
X012786Y002163D02*
X012786Y002337D01*
X012816Y002366D02*
X019067Y002366D01*
X019067Y002486D02*
X012936Y002486D01*
X012906Y002457D02*
X012906Y002043D01*
X012943Y002006D02*
X019067Y002006D01*
X019067Y003086D02*
X012976Y003086D01*
X012906Y003156D02*
X012906Y022257D01*
X012936Y022286D02*
X019067Y022286D01*
X019067Y022166D02*
X012816Y022166D01*
X012786Y022137D02*
X012786Y003276D01*
X012736Y003326D02*
X019067Y003326D01*
X019067Y003206D02*
X012856Y003206D01*
X012666Y003336D02*
X012666Y022076D01*
X012546Y022076D02*
X012546Y003336D01*
X012426Y003336D02*
X012426Y022076D01*
X012306Y022076D02*
X012306Y003336D01*
X012277Y003326D02*
X011736Y003326D01*
X011706Y003336D02*
X011706Y022076D01*
X011586Y022076D02*
X011586Y003336D01*
X011466Y003336D02*
X011466Y022076D01*
X011346Y022076D02*
X011346Y003336D01*
X011277Y003326D02*
X010736Y003326D01*
X010746Y003316D02*
X010746Y022097D01*
X010816Y022166D02*
X011197Y022166D01*
X011226Y022137D02*
X011226Y003276D01*
X011157Y003206D02*
X010856Y003206D01*
X010866Y003196D02*
X010866Y022217D01*
X010936Y022286D02*
X011077Y022286D01*
X011106Y022257D02*
X011106Y003156D01*
X011037Y003086D02*
X010976Y003086D01*
X010986Y003076D02*
X010986Y022337D01*
X010626Y022076D02*
X010626Y003336D01*
X010506Y003336D02*
X010506Y022076D01*
X010386Y022076D02*
X010386Y003336D01*
X010277Y003326D02*
X009736Y003326D01*
X009666Y003336D02*
X009666Y022076D01*
X009546Y022076D02*
X009546Y003336D01*
X009426Y003336D02*
X009426Y022076D01*
X009306Y022076D02*
X009306Y003336D01*
X009277Y003326D02*
X008736Y003326D01*
X008706Y003336D02*
X008706Y022076D01*
X008586Y022076D02*
X008586Y003336D01*
X008466Y003336D02*
X008466Y022076D01*
X008346Y022076D02*
X008346Y003336D01*
X008277Y003326D02*
X002576Y003326D01*
X002586Y003337D02*
X002586Y003076D01*
X002576Y003086D02*
X002966Y003086D01*
X002946Y003067D02*
X002946Y025593D01*
X003066Y025593D02*
X003066Y003187D01*
X003078Y003198D02*
X003291Y003286D01*
X003522Y003286D01*
X003735Y003198D01*
X003898Y003035D01*
X003906Y003015D01*
X003915Y003035D01*
X004078Y003198D01*
X004291Y003286D01*
X004522Y003286D01*
X004735Y003198D01*
X004898Y003035D01*
X004906Y003015D01*
X004915Y003035D01*
X005078Y003198D01*
X005291Y003286D01*
X005522Y003286D01*
X005735Y003198D01*
X005898Y003035D01*
X005986Y002822D01*
X005986Y002591D01*
X005898Y002378D01*
X005735Y002215D01*
X005522Y002126D01*
X008077Y002126D01*
X008106Y002156D02*
X008106Y002457D01*
X008077Y002486D02*
X005943Y002486D01*
X005946Y002495D02*
X005946Y000416D01*
X005826Y000416D02*
X005826Y002306D01*
X005767Y002246D02*
X008197Y002246D01*
X008226Y002276D02*
X008226Y002337D01*
X008197Y002366D02*
X005887Y002366D01*
X005706Y002203D02*
X005706Y000416D01*
X005586Y000416D02*
X005586Y002153D01*
X005522Y002126D02*
X005291Y002126D01*
X004522Y002126D01*
X004735Y002215D01*
X004898Y002378D01*
X004906Y002398D01*
X004915Y002378D01*
X005078Y002215D01*
X005291Y002126D01*
X005346Y002126D02*
X005346Y000416D01*
X005226Y000416D02*
X005226Y002153D01*
X005106Y002203D02*
X005106Y000416D01*
X004986Y000416D02*
X004986Y002306D01*
X005046Y002246D02*
X004767Y002246D01*
X004746Y002226D02*
X004746Y000416D01*
X004626Y000416D02*
X004626Y002170D01*
X004522Y002126D02*
X004291Y002126D01*
X003522Y002126D01*
X003735Y002215D01*
X003898Y002378D01*
X003906Y002398D01*
X003915Y002378D01*
X004078Y002215D01*
X004291Y002126D01*
X004266Y002137D02*
X004266Y000416D01*
X004146Y000416D02*
X004146Y002186D01*
X004046Y002246D02*
X003767Y002246D01*
X003786Y002266D02*
X003786Y000416D01*
X003666Y000416D02*
X003666Y002186D01*
X003546Y002137D02*
X003546Y000416D01*
X003426Y000416D02*
X003426Y002126D01*
X003522Y002126D02*
X003291Y002126D01*
X002423Y002126D01*
X002393Y002156D02*
X002256Y002156D01*
X002256Y001757D01*
X002156Y001757D01*
X002156Y001756D02*
X002156Y001656D01*
X001756Y001656D01*
X001756Y001520D01*
X002020Y001256D01*
X002156Y001256D01*
X002156Y001656D01*
X002256Y001656D01*
X002256Y001256D01*
X002393Y001256D01*
X002656Y001520D01*
X002656Y001656D01*
X002257Y001656D01*
X002257Y001756D01*
X002656Y001756D01*
X002656Y001893D01*
X002393Y002156D01*
X002346Y002156D02*
X002346Y002176D01*
X002256Y002126D02*
X002156Y002126D01*
X002156Y002156D02*
X002020Y002156D01*
X001756Y001893D01*
X001756Y001756D01*
X002156Y001756D01*
X002156Y001757D02*
X002156Y002156D01*
X002106Y002156D02*
X002106Y002176D01*
X001986Y002177D02*
X001986Y002123D01*
X001990Y002126D02*
X001536Y002126D01*
X001506Y002156D02*
X001506Y002370D01*
X001503Y002366D02*
X001797Y002366D01*
X001746Y002417D02*
X001746Y000416D01*
X001626Y000416D02*
X001626Y001377D01*
X001656Y001406D02*
X001870Y001406D01*
X001866Y001410D02*
X001866Y000416D01*
X001986Y000416D02*
X001986Y001290D01*
X001990Y001286D02*
X001536Y001286D01*
X001506Y001257D02*
X001506Y000416D01*
X001386Y000416D02*
X001386Y001176D01*
X001266Y001176D02*
X001266Y000416D01*
X001146Y000416D02*
X001146Y001176D01*
X001026Y001176D02*
X001026Y000416D01*
X000666Y000416D02*
X000666Y025593D01*
X000786Y025593D02*
X000786Y021036D01*
X000837Y021086D02*
X000516Y021086D01*
X000516Y020966D02*
X000717Y020966D01*
X000676Y020926D02*
X000676Y020487D01*
X000957Y020206D01*
X000676Y019926D01*
X000676Y019487D01*
X000957Y019206D01*
X000676Y018926D01*
X000676Y018487D01*
X000957Y018206D01*
X000516Y018206D01*
X000516Y018086D02*
X000837Y018086D01*
X000786Y018036D02*
X000786Y018377D01*
X000837Y018326D02*
X000516Y018326D01*
X000516Y018446D02*
X000717Y018446D01*
X000676Y018566D02*
X000516Y018566D01*
X000516Y018686D02*
X000676Y018686D01*
X000676Y018806D02*
X000516Y018806D01*
X000516Y018926D02*
X000677Y018926D01*
X000786Y019036D02*
X000786Y019377D01*
X000757Y019406D02*
X000516Y019406D01*
X000516Y019286D02*
X000877Y019286D01*
X000906Y019257D02*
X000906Y019156D01*
X000917Y019166D02*
X000516Y019166D01*
X000516Y019046D02*
X000797Y019046D01*
X000676Y019526D02*
X000516Y019526D01*
X000516Y019646D02*
X000676Y019646D01*
X000676Y019766D02*
X000516Y019766D01*
X000516Y019886D02*
X000676Y019886D01*
X000757Y020006D02*
X000516Y020006D01*
X000516Y020126D02*
X000877Y020126D01*
X000906Y020156D02*
X000906Y020257D01*
X000917Y020246D02*
X000516Y020246D01*
X000516Y020366D02*
X000797Y020366D01*
X000786Y020377D02*
X000786Y020036D01*
X000677Y020486D02*
X000516Y020486D01*
X000516Y020606D02*
X000676Y020606D01*
X000676Y020726D02*
X000516Y020726D01*
X000516Y020846D02*
X000676Y020846D01*
X000676Y020926D02*
X000987Y021236D01*
X001426Y021236D01*
X001706Y020956D01*
X001987Y021236D01*
X002426Y021236D01*
X002736Y020926D01*
X002736Y020726D02*
X019067Y020726D01*
X019067Y020606D02*
X002736Y020606D01*
X002736Y020486D02*
X019067Y020486D01*
X019067Y020366D02*
X002616Y020366D01*
X002586Y020337D02*
X002586Y020076D01*
X002536Y020126D02*
X019067Y020126D01*
X019067Y020006D02*
X002656Y020006D01*
X002706Y019956D02*
X002706Y020457D01*
X002496Y020246D02*
X019067Y020246D01*
X019067Y019886D02*
X002736Y019886D01*
X002736Y019766D02*
X019067Y019766D01*
X019067Y019646D02*
X002736Y019646D01*
X002736Y019526D02*
X015577Y019526D01*
X015546Y019496D02*
X015546Y025593D01*
X015426Y025593D02*
X015426Y019376D01*
X015457Y019406D02*
X002656Y019406D01*
X002706Y019457D02*
X002706Y018956D01*
X002496Y019166D02*
X015276Y019166D01*
X015666Y019536D02*
X015666Y025593D01*
X015786Y025593D02*
X015786Y019536D01*
X015906Y019536D02*
X015906Y025593D01*
X016026Y025593D02*
X016026Y019536D01*
X016036Y019526D02*
X019067Y019526D01*
X019067Y019406D02*
X017043Y019406D01*
X016993Y019456D02*
X016856Y019456D01*
X016856Y019057D01*
X016756Y019057D01*
X016756Y019056D02*
X016756Y018956D01*
X016356Y018956D01*
X016356Y018820D01*
X016620Y018556D01*
X016756Y018556D01*
X016756Y018956D01*
X016856Y018956D01*
X016856Y018556D01*
X016993Y018556D01*
X017256Y018820D01*
X017256Y018956D01*
X016857Y018956D01*
X016857Y019056D01*
X017256Y019056D01*
X017256Y019193D01*
X016993Y019456D01*
X016986Y019456D02*
X016986Y025593D01*
X016866Y025593D02*
X016866Y019456D01*
X016856Y019406D02*
X016756Y019406D01*
X016756Y019456D02*
X016620Y019456D01*
X016356Y019193D01*
X016356Y019056D01*
X016756Y019056D01*
X016756Y019057D02*
X016756Y019456D01*
X016746Y019456D02*
X016746Y025593D01*
X016626Y025593D02*
X016626Y019456D01*
X016570Y019406D02*
X016156Y019406D01*
X016146Y019416D02*
X016146Y025593D01*
X016266Y025593D02*
X016266Y019296D01*
X016276Y019286D02*
X016450Y019286D01*
X016506Y019343D02*
X016506Y025593D01*
X016386Y025593D02*
X016386Y019223D01*
X016356Y019166D02*
X016336Y019166D01*
X016336Y019046D02*
X016756Y019046D01*
X016746Y019056D02*
X016746Y018956D01*
X016756Y018926D02*
X016856Y018926D01*
X016866Y018956D02*
X016866Y019056D01*
X016857Y019046D02*
X019067Y019046D01*
X019067Y018926D02*
X017256Y018926D01*
X017226Y018956D02*
X017226Y019056D01*
X017256Y019166D02*
X019067Y019166D01*
X019067Y019286D02*
X017163Y019286D01*
X017106Y019343D02*
X017106Y025593D01*
X017226Y025593D02*
X017226Y019223D01*
X017106Y019056D02*
X017106Y018956D01*
X016986Y018956D02*
X016986Y019056D01*
X016856Y019166D02*
X016756Y019166D01*
X016756Y019286D02*
X016856Y019286D01*
X016626Y019056D02*
X016626Y018956D01*
X016506Y018956D02*
X016506Y019056D01*
X016386Y019056D02*
X016386Y018956D01*
X016356Y018926D02*
X016336Y018926D01*
X016336Y018806D02*
X016370Y018806D01*
X016386Y018790D02*
X016386Y018336D01*
X016377Y018326D02*
X016236Y018326D01*
X016266Y018296D02*
X016266Y018717D01*
X016236Y018686D02*
X016490Y018686D01*
X016506Y018670D02*
X016506Y018456D01*
X016497Y018446D02*
X016116Y018446D01*
X016146Y018416D02*
X016146Y018597D01*
X016116Y018566D02*
X016610Y018566D01*
X016626Y018556D02*
X016626Y018536D01*
X016746Y018536D02*
X016746Y018556D01*
X016756Y018566D02*
X016856Y018566D01*
X016866Y018556D02*
X016866Y018536D01*
X016986Y018536D02*
X016986Y018556D01*
X017003Y018566D02*
X019067Y018566D01*
X019067Y018446D02*
X017116Y018446D01*
X017106Y018456D02*
X017106Y018670D01*
X017123Y018686D02*
X019067Y018686D01*
X019067Y018806D02*
X017243Y018806D01*
X017226Y018790D02*
X017226Y018336D01*
X017236Y018326D02*
X019067Y018326D01*
X019067Y018206D02*
X017336Y018206D01*
X017336Y018086D02*
X019067Y018086D01*
X019067Y017966D02*
X017336Y017966D01*
X017336Y017846D02*
X019067Y017846D01*
X019067Y017726D02*
X017276Y017726D01*
X017226Y017677D02*
X017226Y017336D01*
X017196Y017366D02*
X019067Y017366D01*
X019067Y017246D02*
X017316Y017246D01*
X017336Y017126D02*
X019067Y017126D01*
X019067Y017006D02*
X017336Y017006D01*
X017336Y016886D02*
X019067Y016886D01*
X019067Y016766D02*
X017316Y016766D01*
X017226Y016677D02*
X017226Y016336D01*
X017276Y016286D02*
X019067Y016286D01*
X019067Y016166D02*
X017336Y016166D01*
X017336Y016046D02*
X019067Y016046D01*
X019067Y015926D02*
X017336Y015926D01*
X017336Y015806D02*
X019067Y015806D01*
X019067Y015686D02*
X017236Y015686D01*
X017226Y015677D02*
X017226Y015336D01*
X017236Y015326D02*
X019067Y015326D01*
X019067Y015206D02*
X017336Y015206D01*
X017336Y015086D02*
X019067Y015086D01*
X019067Y014966D02*
X017336Y014966D01*
X017336Y014846D02*
X019067Y014846D01*
X019067Y014726D02*
X017276Y014726D01*
X017226Y014677D02*
X017226Y010623D01*
X017203Y010646D02*
X019067Y010646D01*
X019067Y010526D02*
X017256Y010526D01*
X017256Y010593D02*
X016993Y010856D01*
X016856Y010856D01*
X016856Y010457D01*
X016756Y010457D01*
X016756Y010456D02*
X016756Y010356D01*
X016356Y010356D01*
X016356Y010220D01*
X016620Y009956D01*
X016756Y009956D01*
X016756Y010356D01*
X016856Y010356D01*
X016856Y009956D01*
X016993Y009956D01*
X017256Y010220D01*
X017256Y010356D01*
X016857Y010356D01*
X016857Y010456D01*
X017256Y010456D01*
X017256Y010593D01*
X017226Y010456D02*
X017226Y010356D01*
X017256Y010286D02*
X019067Y010286D01*
X019067Y010166D02*
X017203Y010166D01*
X017226Y010190D02*
X017226Y009736D01*
X017276Y009686D02*
X019067Y009686D01*
X019067Y009566D02*
X017336Y009566D01*
X017336Y009626D02*
X017026Y009936D01*
X016587Y009936D01*
X016306Y009656D01*
X016056Y009906D01*
X016336Y010187D01*
X016336Y010626D01*
X016026Y010936D01*
X015587Y010936D01*
X015276Y010626D01*
X015276Y010187D01*
X015557Y009906D01*
X015276Y009626D01*
X015276Y009187D01*
X015557Y008906D01*
X015276Y008626D01*
X015276Y008187D01*
X015557Y007906D01*
X015276Y007626D01*
X015276Y007187D01*
X015557Y006906D01*
X015276Y006626D01*
X015276Y006187D01*
X015587Y005876D01*
X016026Y005876D01*
X016306Y006157D01*
X016587Y005876D01*
X017026Y005876D01*
X017336Y006187D01*
X017336Y006626D01*
X017056Y006906D01*
X017336Y007187D01*
X017336Y007626D01*
X017056Y007906D01*
X017336Y008187D01*
X017336Y008626D01*
X017056Y008906D01*
X017336Y009187D01*
X017336Y009626D01*
X017336Y009446D02*
X019067Y009446D01*
X019067Y009326D02*
X017336Y009326D01*
X017336Y009206D02*
X019067Y009206D01*
X019067Y009086D02*
X017236Y009086D01*
X017226Y009077D02*
X017226Y008736D01*
X017236Y008726D02*
X019067Y008726D01*
X019067Y008606D02*
X017336Y008606D01*
X017336Y008486D02*
X019067Y008486D01*
X019067Y008366D02*
X017336Y008366D01*
X017336Y008246D02*
X019067Y008246D01*
X019067Y008126D02*
X017276Y008126D01*
X017226Y008077D02*
X017226Y007736D01*
X017196Y007766D02*
X019067Y007766D01*
X019067Y007646D02*
X017316Y007646D01*
X017336Y007526D02*
X019067Y007526D01*
X019067Y007406D02*
X017336Y007406D01*
X017336Y007286D02*
X019067Y007286D01*
X019067Y007166D02*
X017316Y007166D01*
X017226Y007077D02*
X017226Y006736D01*
X017276Y006686D02*
X019067Y006686D01*
X019067Y006566D02*
X017336Y006566D01*
X017336Y006446D02*
X019067Y006446D01*
X019067Y006326D02*
X017336Y006326D01*
X017336Y006206D02*
X019067Y006206D01*
X019067Y006086D02*
X017236Y006086D01*
X017226Y006077D02*
X017226Y000416D01*
X017106Y000416D02*
X017106Y005957D01*
X017116Y005966D02*
X019067Y005966D01*
X019067Y005846D02*
X002736Y005846D01*
X002736Y005926D02*
X002456Y006206D01*
X015276Y006206D01*
X015306Y006157D02*
X015306Y000416D01*
X015426Y000416D02*
X015426Y006037D01*
X015377Y006086D02*
X002576Y006086D01*
X002586Y006076D02*
X002586Y006337D01*
X002576Y006326D02*
X015276Y006326D01*
X015276Y006446D02*
X002696Y006446D01*
X002706Y006457D02*
X002706Y005956D01*
X002696Y005966D02*
X015497Y005966D01*
X015546Y005917D02*
X015546Y000416D01*
X015666Y000416D02*
X015666Y005876D01*
X015786Y005876D02*
X015786Y000416D01*
X015906Y000416D02*
X015906Y005876D01*
X016026Y005877D02*
X016026Y000416D01*
X016146Y000416D02*
X016146Y005997D01*
X016116Y005966D02*
X016497Y005966D01*
X016506Y005957D02*
X016506Y000416D01*
X016386Y000416D02*
X016386Y006077D01*
X016377Y006086D02*
X016236Y006086D01*
X016266Y006117D02*
X016266Y000416D01*
X016626Y000416D02*
X016626Y005876D01*
X016746Y005876D02*
X016746Y000416D01*
X016866Y000416D02*
X016866Y005876D01*
X016986Y005876D02*
X016986Y000416D01*
X017346Y000416D02*
X017346Y025593D01*
X017466Y025593D02*
X017466Y000416D01*
X017586Y000416D02*
X017586Y025593D01*
X017706Y025593D02*
X017706Y000416D01*
X017826Y000416D02*
X017826Y025593D01*
X017946Y025593D02*
X017946Y000416D01*
X018066Y000416D02*
X018066Y025593D01*
X018186Y025593D02*
X018186Y000416D01*
X018306Y000416D02*
X018306Y025593D01*
X018426Y025593D02*
X018426Y000416D01*
X018546Y000416D02*
X018546Y025593D01*
X018666Y025593D02*
X018666Y000416D01*
X018786Y000416D02*
X018786Y025593D01*
X018906Y025593D02*
X018906Y000416D01*
X019067Y003446D02*
X002696Y003446D01*
X002706Y003457D02*
X002706Y002956D01*
X002696Y002966D02*
X002886Y002966D01*
X002837Y002846D02*
X002736Y002846D01*
X002826Y002822D02*
X002826Y002591D01*
X002826Y000416D01*
X002706Y000416D02*
X002706Y002457D01*
X002736Y002486D02*
X002870Y002486D01*
X002826Y002591D02*
X002915Y002378D01*
X003078Y002215D01*
X003291Y002126D01*
X003306Y002126D02*
X003306Y000416D01*
X003186Y000416D02*
X003186Y002170D01*
X003066Y002226D02*
X003066Y000416D01*
X002946Y000416D02*
X002946Y002346D01*
X002926Y002366D02*
X002616Y002366D01*
X002586Y002337D02*
X002586Y001963D01*
X002543Y002006D02*
X007976Y002006D01*
X007986Y002036D02*
X007986Y002577D01*
X007976Y002606D02*
X005986Y002606D01*
X005986Y002726D02*
X007976Y002726D01*
X007976Y002846D02*
X005976Y002846D01*
X005946Y002918D02*
X005946Y025593D01*
X005826Y025593D02*
X005826Y003107D01*
X005847Y003086D02*
X008037Y003086D01*
X007986Y003036D02*
X007986Y022377D01*
X007976Y022406D02*
X000516Y022406D01*
X000516Y022286D02*
X008077Y022286D01*
X008106Y022257D02*
X008106Y003156D01*
X008157Y003206D02*
X005715Y003206D01*
X005706Y003210D02*
X005706Y025593D01*
X005586Y025593D02*
X005586Y003260D01*
X005466Y003286D02*
X005466Y025593D01*
X005346Y025593D02*
X005346Y003286D01*
X005226Y003260D02*
X005226Y025593D01*
X005106Y025593D02*
X005106Y003210D01*
X005098Y003206D02*
X004715Y003206D01*
X004746Y003187D02*
X004746Y025593D01*
X004626Y025593D02*
X004626Y003243D01*
X004506Y003286D02*
X004506Y025593D01*
X004386Y025593D02*
X004386Y003286D01*
X004266Y003276D02*
X004266Y025593D01*
X004146Y025593D02*
X004146Y003227D01*
X004098Y003206D02*
X003715Y003206D01*
X003666Y003227D02*
X003666Y025593D01*
X003546Y025593D02*
X003546Y003276D01*
X003426Y003286D02*
X003426Y025593D01*
X003306Y025593D02*
X003306Y003286D01*
X003186Y003243D02*
X003186Y025593D01*
X002586Y025593D02*
X002586Y021076D01*
X002576Y021086D02*
X019067Y021086D01*
X019067Y021206D02*
X002456Y021206D01*
X002466Y021196D02*
X002466Y025593D01*
X002346Y025593D02*
X002346Y021236D01*
X002226Y021236D02*
X002226Y025593D01*
X002106Y025593D02*
X002106Y021236D01*
X001986Y021236D02*
X001986Y025593D01*
X001866Y025593D02*
X001866Y021116D01*
X001837Y021086D02*
X001576Y021086D01*
X001626Y021036D02*
X001626Y025593D01*
X001506Y025593D02*
X001506Y021156D01*
X001456Y021206D02*
X001957Y021206D01*
X001746Y020996D02*
X001746Y025593D01*
X001386Y025593D02*
X001386Y021236D01*
X001266Y021236D02*
X001266Y025593D01*
X001146Y025593D02*
X001146Y021236D01*
X001026Y021236D02*
X001026Y025593D01*
X000906Y025593D02*
X000906Y021156D01*
X000957Y021206D02*
X000516Y021206D01*
X000516Y021326D02*
X019067Y021326D01*
X019067Y021446D02*
X000516Y021446D01*
X000516Y021566D02*
X019067Y021566D01*
X019067Y021686D02*
X000516Y021686D01*
X000516Y021806D02*
X019067Y021806D01*
X019067Y021926D02*
X000516Y021926D01*
X000516Y022046D02*
X019067Y022046D01*
X019067Y022886D02*
X012976Y022886D01*
X012906Y022956D02*
X012906Y023257D01*
X012896Y023246D02*
X019067Y023246D01*
X019067Y023126D02*
X012776Y023126D01*
X012786Y023137D02*
X012786Y023076D01*
X012856Y023006D02*
X019067Y023006D01*
X019067Y023366D02*
X013016Y023366D01*
X012906Y023956D02*
X012906Y025593D01*
X012786Y025593D02*
X012786Y024076D01*
X012776Y024086D02*
X019067Y024086D01*
X019067Y023966D02*
X012896Y023966D01*
X012666Y024136D02*
X012666Y025593D01*
X012546Y025593D02*
X012546Y024136D01*
X012426Y024136D02*
X012426Y025593D01*
X012306Y025593D02*
X012306Y024136D01*
X012237Y024086D02*
X011776Y024086D01*
X011826Y024036D02*
X011826Y025593D01*
X011706Y025593D02*
X011706Y024136D01*
X011586Y024136D02*
X011586Y025593D01*
X011466Y025593D02*
X011466Y024136D01*
X011346Y024136D02*
X011346Y025593D01*
X011226Y025593D02*
X011226Y024076D01*
X011237Y024086D02*
X010776Y024086D01*
X010746Y024116D02*
X010746Y025593D01*
X010626Y025593D02*
X010626Y024136D01*
X010506Y024136D02*
X010506Y025593D01*
X010386Y025593D02*
X010386Y024136D01*
X010266Y024116D02*
X010266Y025593D01*
X010146Y025593D02*
X010146Y023996D01*
X010117Y023966D02*
X009896Y023966D01*
X009906Y023956D02*
X009906Y025593D01*
X009786Y025593D02*
X009786Y024076D01*
X009776Y024086D02*
X010237Y024086D01*
X010026Y023876D02*
X010026Y025593D01*
X009666Y025593D02*
X009666Y024136D01*
X009546Y024136D02*
X009546Y025593D01*
X009426Y025593D02*
X009426Y024136D01*
X009306Y024136D02*
X009306Y025593D01*
X009186Y025593D02*
X009186Y024036D01*
X009237Y024086D02*
X000516Y024086D01*
X000516Y023966D02*
X008230Y023966D01*
X008226Y023963D02*
X008226Y025593D01*
X008106Y025593D02*
X008106Y023843D01*
X008110Y023846D02*
X000516Y023846D01*
X000516Y023726D02*
X008056Y023726D01*
X008056Y023793D02*
X008056Y023656D01*
X008456Y023656D01*
X008456Y023556D01*
X008556Y023556D01*
X008556Y023156D01*
X008693Y023156D01*
X008956Y023420D01*
X008956Y023556D01*
X008557Y023556D01*
X008557Y023656D01*
X008956Y023656D01*
X008956Y023793D01*
X008693Y024056D01*
X008556Y024056D01*
X008556Y023657D01*
X008456Y023657D01*
X008456Y024056D01*
X008320Y024056D01*
X008056Y023793D01*
X008106Y023656D02*
X008106Y023556D01*
X008056Y023556D02*
X008056Y023420D01*
X008320Y023156D01*
X008456Y023156D01*
X008456Y023556D01*
X008056Y023556D01*
X008056Y023486D02*
X000516Y023486D01*
X000516Y023366D02*
X008110Y023366D01*
X008106Y023370D02*
X008106Y022956D01*
X008157Y023006D02*
X000516Y023006D01*
X000516Y022886D02*
X008037Y022886D01*
X007986Y022836D02*
X007986Y025593D01*
X007866Y025593D02*
X007866Y000416D01*
X007746Y000416D02*
X007746Y025593D01*
X007626Y025593D02*
X007626Y000416D01*
X007506Y000416D02*
X007506Y025593D01*
X007386Y025593D02*
X007386Y000416D01*
X007266Y000416D02*
X007266Y025593D01*
X007146Y025593D02*
X007146Y000416D01*
X007026Y000416D02*
X007026Y025593D01*
X006906Y025593D02*
X006906Y000416D01*
X006786Y000416D02*
X006786Y025593D01*
X006666Y025593D02*
X006666Y000416D01*
X006546Y000416D02*
X006546Y025593D01*
X006426Y025593D02*
X006426Y000416D01*
X006306Y000416D02*
X006306Y025593D01*
X006186Y025593D02*
X006186Y000416D01*
X006066Y000416D02*
X006066Y025593D01*
X004986Y025593D02*
X004986Y003107D01*
X004966Y003086D02*
X004847Y003086D01*
X004866Y003067D02*
X004866Y025593D01*
X004026Y025593D02*
X004026Y003147D01*
X003966Y003086D02*
X003847Y003086D01*
X003786Y003147D02*
X003786Y025593D01*
X003906Y025593D02*
X003906Y003015D01*
X003906Y002398D02*
X003906Y000416D01*
X004026Y000416D02*
X004026Y002266D01*
X003926Y002366D02*
X003887Y002366D01*
X004386Y002126D02*
X004386Y000416D01*
X004506Y000416D02*
X004506Y002126D01*
X004866Y002346D02*
X004866Y000416D01*
X005466Y000416D02*
X005466Y002126D01*
X004926Y002366D02*
X004887Y002366D01*
X005927Y002966D02*
X007976Y002966D01*
X008226Y003276D02*
X008226Y022137D01*
X008197Y022166D02*
X000516Y022166D01*
X000516Y022526D02*
X007976Y022526D01*
X007976Y022646D02*
X000516Y022646D01*
X000516Y022766D02*
X007976Y022766D01*
X008226Y023076D02*
X008226Y023250D01*
X008230Y023246D02*
X000516Y023246D01*
X000516Y023126D02*
X008277Y023126D01*
X008346Y023136D02*
X008346Y023156D01*
X008466Y023136D02*
X008466Y023556D01*
X008456Y023606D02*
X000516Y023606D01*
X000516Y024206D02*
X019067Y024206D01*
X019067Y024326D02*
X000516Y024326D01*
X000516Y024446D02*
X019067Y024446D01*
X019067Y024566D02*
X000516Y024566D01*
X000516Y024686D02*
X019067Y024686D01*
X019067Y024806D02*
X000516Y024806D01*
X000516Y024926D02*
X019067Y024926D01*
X019067Y025046D02*
X000516Y025046D01*
X000516Y025166D02*
X019067Y025166D01*
X019067Y025286D02*
X000516Y025286D01*
X000516Y025406D02*
X019067Y025406D01*
X016856Y018806D02*
X016756Y018806D01*
X016756Y018686D02*
X016856Y018686D01*
X016306Y017757D02*
X016557Y017506D01*
X016306Y017256D01*
X016056Y017506D01*
X016306Y017757D01*
X016276Y017726D02*
X016337Y017726D01*
X016386Y017677D02*
X016386Y017336D01*
X016417Y017366D02*
X016196Y017366D01*
X016146Y017416D02*
X016146Y017597D01*
X016156Y017606D02*
X016457Y017606D01*
X016506Y017557D02*
X016506Y017456D01*
X016537Y017486D02*
X016076Y017486D01*
X016266Y017296D02*
X016266Y017717D01*
X016306Y016757D02*
X016557Y016506D01*
X016306Y016256D01*
X016056Y016506D01*
X016306Y016757D01*
X016266Y016717D02*
X016266Y016296D01*
X016276Y016286D02*
X016337Y016286D01*
X016386Y016336D02*
X016386Y016677D01*
X016417Y016646D02*
X016196Y016646D01*
X016146Y016597D02*
X016146Y016416D01*
X016156Y016406D02*
X016457Y016406D01*
X016506Y016456D02*
X016506Y016557D01*
X016537Y016526D02*
X016076Y016526D01*
X015546Y016496D02*
X015546Y016517D01*
X015537Y016526D02*
X002736Y016526D01*
X002736Y016487D02*
X002736Y016926D01*
X002456Y017206D01*
X002736Y017487D01*
X002736Y017926D01*
X002456Y018206D01*
X002466Y018196D02*
X002466Y018217D01*
X002736Y017846D02*
X015276Y017846D01*
X015306Y017757D02*
X015306Y017256D01*
X015297Y017246D02*
X002496Y017246D01*
X002466Y017217D02*
X002466Y017196D01*
X002536Y017126D02*
X015276Y017126D01*
X015276Y017006D02*
X002656Y017006D01*
X002706Y016956D02*
X002706Y017457D01*
X002736Y017486D02*
X015537Y017486D01*
X015546Y017496D02*
X015546Y017517D01*
X015457Y017606D02*
X002736Y017606D01*
X002736Y017726D02*
X015337Y017726D01*
X015426Y017637D02*
X015426Y017376D01*
X015417Y017366D02*
X002616Y017366D01*
X002586Y017337D02*
X002586Y017076D01*
X002736Y016886D02*
X015276Y016886D01*
X015297Y016766D02*
X002736Y016766D01*
X002736Y016646D02*
X015417Y016646D01*
X015426Y016637D02*
X015426Y016376D01*
X015457Y016406D02*
X002656Y016406D01*
X002706Y016457D02*
X002706Y015956D01*
X002736Y015926D02*
X015276Y015926D01*
X015276Y015806D02*
X002736Y015806D01*
X002736Y015686D02*
X015377Y015686D01*
X015426Y015637D02*
X015426Y015376D01*
X015377Y015326D02*
X002576Y015326D01*
X002586Y015337D02*
X002586Y015076D01*
X002576Y015086D02*
X015276Y015086D01*
X015276Y014966D02*
X002696Y014966D01*
X002706Y014956D02*
X002706Y015457D01*
X002696Y015446D02*
X015497Y015446D01*
X015546Y015496D02*
X015546Y015517D01*
X015497Y015566D02*
X002736Y015566D01*
X002736Y015487D02*
X002736Y015926D01*
X002456Y016206D01*
X002736Y016487D01*
X002586Y016337D02*
X002586Y016076D01*
X002616Y016046D02*
X015276Y016046D01*
X015276Y016166D02*
X002496Y016166D01*
X002466Y016196D02*
X002466Y016217D01*
X002536Y016286D02*
X015337Y016286D01*
X015306Y016256D02*
X015306Y016757D01*
X015306Y015757D02*
X015306Y015256D01*
X015276Y015206D02*
X002456Y015206D01*
X002736Y015487D01*
X002466Y015217D02*
X002466Y015196D01*
X002456Y015206D02*
X002736Y014926D01*
X002736Y014487D01*
X002456Y014206D01*
X002736Y013926D01*
X002736Y013487D01*
X002456Y013206D01*
X002736Y012926D01*
X002736Y012487D01*
X002456Y012206D01*
X019067Y012206D01*
X019067Y012086D02*
X002576Y012086D01*
X002586Y012076D02*
X002586Y012337D01*
X002576Y012326D02*
X019067Y012326D01*
X019067Y012446D02*
X002696Y012446D01*
X002706Y012457D02*
X002706Y011956D01*
X002696Y011966D02*
X019067Y011966D01*
X019067Y011846D02*
X002736Y011846D01*
X002736Y011926D02*
X002456Y012206D01*
X002466Y012196D02*
X002466Y012217D01*
X002736Y011926D02*
X002736Y011487D01*
X002456Y011206D01*
X002736Y010926D01*
X002736Y010487D01*
X002456Y010206D01*
X002736Y009926D01*
X002736Y009487D01*
X002456Y009206D01*
X002736Y008926D01*
X002736Y008487D01*
X002456Y008206D01*
X002736Y007926D01*
X002736Y007487D01*
X002456Y007206D01*
X002736Y006926D01*
X002736Y006487D01*
X002456Y006206D01*
X002466Y006196D02*
X002466Y006217D01*
X002736Y005926D02*
X002736Y005487D01*
X002456Y005206D01*
X002736Y004926D01*
X002736Y004487D01*
X002456Y004206D01*
X002736Y003926D01*
X002736Y003487D01*
X002456Y003206D01*
X002466Y003196D02*
X002466Y003217D01*
X002736Y003566D02*
X019067Y003566D01*
X019067Y003686D02*
X002736Y003686D01*
X002736Y003806D02*
X019067Y003806D01*
X019067Y003926D02*
X002736Y003926D01*
X002706Y003956D02*
X002706Y004457D01*
X002656Y004406D02*
X019067Y004406D01*
X019067Y004286D02*
X002536Y004286D01*
X002586Y004337D02*
X002586Y004076D01*
X002616Y004046D02*
X019067Y004046D01*
X019067Y004166D02*
X002496Y004166D01*
X002466Y004196D02*
X002466Y004217D01*
X002736Y004526D02*
X019067Y004526D01*
X019067Y004646D02*
X002736Y004646D01*
X002736Y004766D02*
X019067Y004766D01*
X019067Y004886D02*
X002736Y004886D01*
X002706Y004956D02*
X002706Y005457D01*
X002736Y005486D02*
X019067Y005486D01*
X019067Y005366D02*
X002616Y005366D01*
X002586Y005337D02*
X002586Y005076D01*
X002536Y005126D02*
X019067Y005126D01*
X019067Y005006D02*
X002656Y005006D01*
X002466Y005196D02*
X002466Y005217D01*
X002496Y005246D02*
X019067Y005246D01*
X019067Y005606D02*
X002736Y005606D01*
X002736Y005726D02*
X019067Y005726D01*
X019067Y006806D02*
X017156Y006806D01*
X017106Y006856D02*
X017106Y006957D01*
X017076Y006926D02*
X019067Y006926D01*
X019067Y007046D02*
X017196Y007046D01*
X016557Y006906D02*
X016306Y006656D01*
X016056Y006906D01*
X016306Y007157D01*
X016557Y006906D01*
X016537Y006926D02*
X016076Y006926D01*
X016146Y006997D02*
X016146Y006816D01*
X016156Y006806D02*
X016457Y006806D01*
X016506Y006856D02*
X016506Y006957D01*
X016417Y007046D02*
X016196Y007046D01*
X016266Y007117D02*
X016266Y006696D01*
X016276Y006686D02*
X016337Y006686D01*
X016386Y006736D02*
X016386Y007077D01*
X016306Y007656D02*
X016056Y007906D01*
X016306Y008157D01*
X016557Y007906D01*
X016306Y007656D01*
X016266Y007696D02*
X016266Y008117D01*
X016276Y008126D02*
X016337Y008126D01*
X016386Y008077D02*
X016386Y007736D01*
X016417Y007766D02*
X016196Y007766D01*
X016146Y007816D02*
X016146Y007997D01*
X016156Y008006D02*
X016457Y008006D01*
X016506Y007957D02*
X016506Y007856D01*
X016537Y007886D02*
X016076Y007886D01*
X015546Y007896D02*
X015546Y007917D01*
X015537Y007886D02*
X002736Y007886D01*
X002706Y007956D02*
X002706Y008457D01*
X002736Y008486D02*
X015276Y008486D01*
X015276Y008366D02*
X002616Y008366D01*
X002586Y008337D02*
X002586Y008076D01*
X002536Y008126D02*
X015337Y008126D01*
X015306Y008157D02*
X015306Y007656D01*
X015297Y007646D02*
X002736Y007646D01*
X002736Y007526D02*
X015276Y007526D01*
X015276Y007406D02*
X002656Y007406D01*
X002706Y007457D02*
X002706Y006956D01*
X002736Y006926D02*
X015537Y006926D01*
X015546Y006917D02*
X015546Y006896D01*
X015457Y006806D02*
X002736Y006806D01*
X002736Y006686D02*
X015337Y006686D01*
X015306Y006656D02*
X015306Y007157D01*
X015297Y007166D02*
X002496Y007166D01*
X002466Y007196D02*
X002466Y007217D01*
X002536Y007286D02*
X015276Y007286D01*
X015417Y007046D02*
X002616Y007046D01*
X002586Y007076D02*
X002586Y007337D01*
X002736Y007766D02*
X015417Y007766D01*
X015426Y007776D02*
X015426Y008037D01*
X015457Y008006D02*
X002656Y008006D01*
X002466Y008196D02*
X002466Y008217D01*
X002496Y008246D02*
X015276Y008246D01*
X015276Y008606D02*
X002736Y008606D01*
X002736Y008726D02*
X015377Y008726D01*
X015426Y008776D02*
X015426Y009037D01*
X015377Y009086D02*
X002576Y009086D01*
X002586Y009076D02*
X002586Y009337D01*
X002576Y009326D02*
X015276Y009326D01*
X015276Y009206D02*
X002456Y009206D01*
X002466Y009196D02*
X002466Y009217D01*
X002696Y009446D02*
X015276Y009446D01*
X015276Y009566D02*
X002736Y009566D01*
X002706Y009457D02*
X002706Y008956D01*
X002696Y008966D02*
X015497Y008966D01*
X015546Y008917D02*
X015546Y008896D01*
X015497Y008846D02*
X002736Y008846D01*
X002736Y009686D02*
X015337Y009686D01*
X015306Y009656D02*
X015306Y010157D01*
X015297Y010166D02*
X002496Y010166D01*
X002466Y010196D02*
X002466Y010217D01*
X002536Y010286D02*
X015276Y010286D01*
X015276Y010406D02*
X002656Y010406D01*
X002706Y010457D02*
X002706Y009956D01*
X002736Y009926D02*
X015537Y009926D01*
X015546Y009917D02*
X015546Y009896D01*
X015457Y009806D02*
X002736Y009806D01*
X002616Y010046D02*
X015417Y010046D01*
X015426Y010037D02*
X015426Y009776D01*
X015306Y009157D02*
X015306Y008656D01*
X016056Y008906D02*
X016306Y008656D01*
X016557Y008906D01*
X016306Y009157D01*
X016056Y008906D01*
X016116Y008846D02*
X016497Y008846D01*
X016506Y008856D02*
X016506Y008957D01*
X016497Y008966D02*
X016116Y008966D01*
X016146Y008997D02*
X016146Y008816D01*
X016236Y008726D02*
X016377Y008726D01*
X016386Y008736D02*
X016386Y009077D01*
X016377Y009086D02*
X016236Y009086D01*
X016266Y009117D02*
X016266Y008696D01*
X017106Y008856D02*
X017106Y008957D01*
X017116Y008966D02*
X019067Y008966D01*
X019067Y008846D02*
X017116Y008846D01*
X017156Y008006D02*
X019067Y008006D01*
X019067Y007886D02*
X017076Y007886D01*
X017106Y007856D02*
X017106Y007957D01*
X017156Y009806D02*
X019067Y009806D01*
X019067Y009926D02*
X017036Y009926D01*
X016986Y009936D02*
X016986Y009956D01*
X016866Y009956D02*
X016866Y009936D01*
X016856Y010046D02*
X016756Y010046D01*
X016746Y009956D02*
X016746Y009936D01*
X016626Y009936D02*
X016626Y009956D01*
X016577Y009926D02*
X016076Y009926D01*
X016146Y009997D02*
X016146Y009816D01*
X016156Y009806D02*
X016457Y009806D01*
X016506Y009856D02*
X016506Y010070D01*
X016530Y010046D02*
X016196Y010046D01*
X016266Y010117D02*
X016266Y009696D01*
X016276Y009686D02*
X016337Y009686D01*
X016386Y009736D02*
X016386Y010190D01*
X016410Y010166D02*
X016316Y010166D01*
X016336Y010286D02*
X016356Y010286D01*
X016386Y010356D02*
X016386Y010456D01*
X016356Y010456D02*
X016756Y010456D01*
X016756Y010457D02*
X016756Y010856D01*
X016620Y010856D01*
X016356Y010593D01*
X016356Y010456D01*
X016336Y010406D02*
X016756Y010406D01*
X016746Y010356D02*
X016746Y010456D01*
X016756Y010526D02*
X016856Y010526D01*
X016866Y010456D02*
X016866Y010356D01*
X016857Y010406D02*
X019067Y010406D01*
X019067Y010046D02*
X017083Y010046D01*
X017106Y010070D02*
X017106Y009856D01*
X016856Y010166D02*
X016756Y010166D01*
X016756Y010286D02*
X016856Y010286D01*
X016986Y010356D02*
X016986Y010456D01*
X017106Y010456D02*
X017106Y010356D01*
X016856Y010646D02*
X016756Y010646D01*
X016756Y010766D02*
X016856Y010766D01*
X016866Y010856D02*
X016866Y014476D01*
X016746Y014476D02*
X016746Y010856D01*
X016626Y010856D02*
X016626Y014476D01*
X016577Y014486D02*
X016036Y014486D01*
X016026Y014477D02*
X016026Y010936D01*
X016076Y010886D02*
X019067Y010886D01*
X019067Y010766D02*
X017083Y010766D01*
X017106Y010743D02*
X017106Y014557D01*
X017156Y014606D02*
X019067Y014606D01*
X019067Y014486D02*
X017036Y014486D01*
X016986Y014476D02*
X016986Y010856D01*
X016626Y010456D02*
X016626Y010356D01*
X016506Y010356D02*
X016506Y010456D01*
X016356Y010526D02*
X016336Y010526D01*
X016386Y010623D02*
X016386Y014677D01*
X016337Y014726D02*
X016276Y014726D01*
X016266Y014717D02*
X016266Y010696D01*
X016316Y010646D02*
X016410Y010646D01*
X016506Y010743D02*
X016506Y014557D01*
X016457Y014606D02*
X016156Y014606D01*
X016146Y014597D02*
X016146Y010816D01*
X016196Y010766D02*
X016530Y010766D01*
X015906Y010936D02*
X015906Y014476D01*
X015786Y014476D02*
X015786Y010936D01*
X015666Y010936D02*
X015666Y014476D01*
X015577Y014486D02*
X002736Y014486D01*
X002706Y014457D02*
X002706Y013956D01*
X002656Y014006D02*
X019067Y014006D01*
X019067Y013886D02*
X002736Y013886D01*
X002736Y013766D02*
X019067Y013766D01*
X019067Y013646D02*
X002736Y013646D01*
X002736Y013526D02*
X019067Y013526D01*
X019067Y013406D02*
X002656Y013406D01*
X002706Y013457D02*
X002706Y012956D01*
X002736Y012926D02*
X019067Y012926D01*
X019067Y012806D02*
X002736Y012806D01*
X002736Y012686D02*
X019067Y012686D01*
X019067Y012566D02*
X002736Y012566D01*
X002616Y013046D02*
X019067Y013046D01*
X019067Y013166D02*
X002496Y013166D01*
X002466Y013196D02*
X002466Y013217D01*
X002536Y013286D02*
X019067Y013286D01*
X019067Y014126D02*
X002536Y014126D01*
X002586Y014076D02*
X002586Y014337D01*
X002616Y014366D02*
X019067Y014366D01*
X019067Y014246D02*
X002496Y014246D01*
X002466Y014217D02*
X002466Y014196D01*
X002736Y014606D02*
X015457Y014606D01*
X015426Y014637D02*
X015426Y010776D01*
X015417Y010766D02*
X002736Y010766D01*
X002736Y010646D02*
X015297Y010646D01*
X015306Y010656D02*
X015306Y014757D01*
X015337Y014726D02*
X002736Y014726D01*
X002736Y014846D02*
X015276Y014846D01*
X015546Y014517D02*
X015546Y010896D01*
X015537Y010886D02*
X002736Y010886D01*
X002706Y010956D02*
X002706Y011457D01*
X002736Y011486D02*
X019067Y011486D01*
X019067Y011366D02*
X002616Y011366D01*
X002586Y011337D02*
X002586Y011076D01*
X002536Y011126D02*
X019067Y011126D01*
X019067Y011006D02*
X002656Y011006D01*
X002466Y011196D02*
X002466Y011217D01*
X002496Y011246D02*
X019067Y011246D01*
X019067Y011606D02*
X002736Y011606D01*
X002736Y011726D02*
X019067Y011726D01*
X016306Y015256D02*
X016056Y015506D01*
X016306Y015757D01*
X016557Y015506D01*
X016306Y015256D01*
X016266Y015296D02*
X016266Y015717D01*
X016236Y015686D02*
X016377Y015686D01*
X016386Y015677D02*
X016386Y015336D01*
X016377Y015326D02*
X016236Y015326D01*
X016146Y015416D02*
X016146Y015597D01*
X016116Y015566D02*
X016497Y015566D01*
X016506Y015557D02*
X016506Y015456D01*
X016497Y015446D02*
X016116Y015446D01*
X017106Y015456D02*
X017106Y015557D01*
X017116Y015566D02*
X019067Y015566D01*
X019067Y015446D02*
X017116Y015446D01*
X017156Y016406D02*
X019067Y016406D01*
X019067Y016526D02*
X017076Y016526D01*
X017106Y016557D02*
X017106Y016456D01*
X017196Y016646D02*
X019067Y016646D01*
X019067Y017486D02*
X017076Y017486D01*
X017106Y017456D02*
X017106Y017557D01*
X017156Y017606D02*
X019067Y017606D01*
X015276Y010526D02*
X002736Y010526D01*
X002586Y010337D02*
X002586Y010076D01*
X001957Y010206D02*
X001706Y009956D01*
X001456Y010206D01*
X001706Y010457D01*
X001957Y010206D01*
X001917Y010166D02*
X001496Y010166D01*
X001506Y010156D02*
X001506Y010257D01*
X001536Y010286D02*
X001877Y010286D01*
X001866Y010297D02*
X001866Y010116D01*
X001797Y010046D02*
X001616Y010046D01*
X001626Y010036D02*
X001626Y010377D01*
X001656Y010406D02*
X001757Y010406D01*
X001746Y010417D02*
X001746Y009996D01*
X001706Y009457D02*
X001957Y009206D01*
X001706Y008956D01*
X001456Y009206D01*
X001957Y009206D01*
X001866Y009116D02*
X001866Y009297D01*
X001837Y009326D02*
X001576Y009326D01*
X001626Y009377D02*
X001626Y009036D01*
X001576Y009086D02*
X001837Y009086D01*
X001746Y008996D02*
X001746Y009417D01*
X001717Y009446D02*
X001696Y009446D01*
X001706Y009457D02*
X001456Y009206D01*
X001506Y009156D02*
X001506Y009257D01*
X001696Y008966D02*
X001717Y008966D01*
X001706Y008457D02*
X001957Y008206D01*
X001706Y007956D01*
X001456Y008206D01*
X001706Y008457D01*
X001746Y008417D02*
X001746Y007996D01*
X001757Y008006D02*
X001656Y008006D01*
X001626Y008036D02*
X001626Y008377D01*
X001616Y008366D02*
X001797Y008366D01*
X001866Y008297D02*
X001866Y008116D01*
X001877Y008126D02*
X001536Y008126D01*
X001506Y008156D02*
X001506Y008257D01*
X001496Y008246D02*
X001917Y008246D01*
X001706Y007457D02*
X001957Y007206D01*
X001676Y006926D01*
X001676Y006487D01*
X001957Y006206D01*
X001456Y006206D01*
X001426Y006236D02*
X001706Y005956D01*
X001957Y006206D01*
X001866Y006116D02*
X001866Y006297D01*
X001837Y006326D02*
X001463Y006326D01*
X001506Y006370D02*
X001506Y006156D01*
X001576Y006086D02*
X001837Y006086D01*
X001746Y005996D02*
X001746Y006417D01*
X001717Y006446D02*
X001583Y006446D01*
X001626Y006490D02*
X001626Y006036D01*
X001696Y005966D02*
X001717Y005966D01*
X001426Y006236D02*
X000987Y006236D01*
X000676Y005926D01*
X000676Y005487D01*
X000957Y005206D01*
X000676Y004926D01*
X000676Y004487D01*
X000957Y004206D01*
X000676Y003926D01*
X000676Y003487D01*
X000987Y003176D01*
X001426Y003176D01*
X001706Y003457D01*
X001957Y003206D01*
X001456Y003206D01*
X001506Y003257D02*
X001506Y003043D01*
X001463Y003086D02*
X001837Y003086D01*
X001866Y003116D02*
X001866Y003297D01*
X001837Y003326D02*
X001576Y003326D01*
X001626Y003377D02*
X001626Y002923D01*
X001656Y002893D02*
X001393Y003156D01*
X001256Y003156D01*
X001256Y002757D01*
X001156Y002757D01*
X001156Y002756D02*
X001156Y002656D01*
X000756Y002656D01*
X000756Y002520D01*
X001020Y002256D01*
X001156Y002256D01*
X001156Y002656D01*
X001256Y002656D01*
X001256Y002256D01*
X001393Y002256D01*
X001656Y002520D01*
X001656Y002656D01*
X001257Y002656D01*
X001257Y002756D01*
X001656Y002756D01*
X001656Y002893D01*
X001676Y002926D02*
X001676Y002487D01*
X001676Y002606D02*
X001656Y002606D01*
X001626Y002656D02*
X001626Y002756D01*
X001676Y002726D02*
X001257Y002726D01*
X001266Y002756D02*
X001266Y002656D01*
X001256Y002606D02*
X001156Y002606D01*
X001146Y002656D02*
X001146Y002756D01*
X001156Y002756D02*
X000756Y002756D01*
X000756Y002893D01*
X001020Y003156D01*
X001156Y003156D01*
X001156Y002757D01*
X001156Y002726D02*
X000516Y002726D01*
X000516Y002606D02*
X000756Y002606D01*
X000786Y002656D02*
X000786Y002756D01*
X000756Y002846D02*
X000516Y002846D01*
X000516Y002966D02*
X000830Y002966D01*
X000786Y002923D02*
X000786Y003377D01*
X000837Y003326D02*
X000516Y003326D01*
X000516Y003206D02*
X000957Y003206D01*
X000906Y003257D02*
X000906Y003043D01*
X000950Y003086D02*
X000516Y003086D01*
X000516Y003446D02*
X000717Y003446D01*
X000676Y003566D02*
X000516Y003566D01*
X000516Y003686D02*
X000676Y003686D01*
X000676Y003806D02*
X000516Y003806D01*
X000516Y003926D02*
X000677Y003926D01*
X000786Y004036D02*
X000786Y004377D01*
X000757Y004406D02*
X000516Y004406D01*
X000516Y004286D02*
X000877Y004286D01*
X000906Y004257D02*
X000906Y004156D01*
X000917Y004166D02*
X000516Y004166D01*
X000516Y004046D02*
X000797Y004046D01*
X000676Y004526D02*
X000516Y004526D01*
X000516Y004646D02*
X000676Y004646D01*
X000676Y004766D02*
X000516Y004766D01*
X000516Y004886D02*
X000676Y004886D01*
X000757Y005006D02*
X000516Y005006D01*
X000516Y005126D02*
X000877Y005126D01*
X000906Y005156D02*
X000906Y005257D01*
X000917Y005246D02*
X000516Y005246D01*
X000516Y005366D02*
X000797Y005366D01*
X000786Y005377D02*
X000786Y005036D01*
X000677Y005486D02*
X000516Y005486D01*
X000516Y005606D02*
X000676Y005606D01*
X000676Y005726D02*
X000516Y005726D01*
X000516Y005846D02*
X000676Y005846D01*
X000717Y005966D02*
X000516Y005966D01*
X000516Y006086D02*
X000837Y006086D01*
X000786Y006036D02*
X000786Y006490D01*
X000756Y006520D02*
X000756Y006656D01*
X001156Y006656D01*
X001156Y006756D01*
X000756Y006756D01*
X000756Y006893D01*
X001020Y007156D01*
X001156Y007156D01*
X001156Y006757D01*
X001256Y006757D01*
X001256Y007156D01*
X001393Y007156D01*
X001656Y006893D01*
X001656Y006756D01*
X001257Y006756D01*
X001257Y006656D01*
X001656Y006656D01*
X001656Y006520D01*
X001393Y006256D01*
X001256Y006256D01*
X001256Y006656D01*
X001156Y006656D01*
X001156Y006256D01*
X001020Y006256D01*
X000756Y006520D01*
X000756Y006566D02*
X000516Y006566D01*
X000516Y006446D02*
X000830Y006446D01*
X000906Y006370D02*
X000906Y006156D01*
X000957Y006206D02*
X000516Y006206D01*
X000516Y006326D02*
X000950Y006326D01*
X001026Y006256D02*
X001026Y006236D01*
X001146Y006236D02*
X001146Y006256D01*
X001156Y006326D02*
X001256Y006326D01*
X001266Y006256D02*
X001266Y006236D01*
X001386Y006236D02*
X001386Y006256D01*
X001256Y006446D02*
X001156Y006446D01*
X001156Y006566D02*
X001256Y006566D01*
X001266Y006656D02*
X001266Y006756D01*
X001256Y006806D02*
X001156Y006806D01*
X001146Y006756D02*
X001146Y006656D01*
X001156Y006686D02*
X000516Y006686D01*
X000516Y006806D02*
X000756Y006806D01*
X000786Y006756D02*
X000786Y006656D01*
X000906Y006656D02*
X000906Y006756D01*
X001026Y006756D02*
X001026Y006656D01*
X001257Y006686D02*
X001676Y006686D01*
X001626Y006656D02*
X001626Y006756D01*
X001656Y006806D02*
X001676Y006806D01*
X001677Y006926D02*
X001623Y006926D01*
X001626Y006923D02*
X001626Y007377D01*
X001656Y007406D02*
X001757Y007406D01*
X001746Y007417D02*
X001746Y006996D01*
X001797Y007046D02*
X001503Y007046D01*
X001506Y007043D02*
X001506Y007257D01*
X001536Y007286D02*
X001877Y007286D01*
X001866Y007297D02*
X001866Y007116D01*
X001917Y007166D02*
X000516Y007166D01*
X000516Y007046D02*
X000910Y007046D01*
X000906Y007043D02*
X000906Y007257D01*
X000877Y007286D02*
X000516Y007286D01*
X000516Y007406D02*
X000757Y007406D01*
X000786Y007377D02*
X000786Y006923D01*
X000790Y006926D02*
X000516Y006926D01*
X000987Y007176D02*
X000676Y007487D01*
X000676Y007926D01*
X000957Y008206D01*
X000676Y008487D01*
X000676Y008926D01*
X000957Y009206D01*
X000516Y009206D01*
X000516Y009086D02*
X000837Y009086D01*
X000786Y009036D02*
X000786Y009377D01*
X000837Y009326D02*
X000516Y009326D01*
X000516Y009446D02*
X000717Y009446D01*
X000676Y009487D02*
X000957Y009206D01*
X000906Y009156D02*
X000906Y009257D01*
X000676Y009487D02*
X000676Y009926D01*
X000957Y010206D01*
X000676Y010487D01*
X000676Y010926D01*
X000987Y011236D01*
X001426Y011236D01*
X001706Y010956D01*
X001957Y011206D01*
X001676Y011487D01*
X001676Y011926D01*
X001957Y012206D01*
X001456Y012206D01*
X001426Y012176D02*
X001706Y012457D01*
X001957Y012206D01*
X001866Y012116D02*
X001866Y012297D01*
X001837Y012326D02*
X001576Y012326D01*
X001626Y012377D02*
X001626Y011923D01*
X001656Y011893D02*
X001393Y012156D01*
X001256Y012156D01*
X001256Y011757D01*
X001156Y011757D01*
X001156Y011756D02*
X001156Y011656D01*
X000756Y011656D01*
X000756Y011520D01*
X001020Y011256D01*
X001156Y011256D01*
X001156Y011656D01*
X001256Y011656D01*
X001256Y011256D01*
X001393Y011256D01*
X001656Y011520D01*
X001656Y011656D01*
X001257Y011656D01*
X001257Y011756D01*
X001656Y011756D01*
X001656Y011893D01*
X001656Y011846D02*
X001676Y011846D01*
X001626Y011756D02*
X001626Y011656D01*
X001656Y011606D02*
X001676Y011606D01*
X001677Y011486D02*
X001623Y011486D01*
X001626Y011490D02*
X001626Y011036D01*
X001656Y011006D02*
X001757Y011006D01*
X001746Y010996D02*
X001746Y011417D01*
X001797Y011366D02*
X001503Y011366D01*
X001506Y011370D02*
X001506Y011156D01*
X001536Y011126D02*
X001877Y011126D01*
X001866Y011116D02*
X001866Y011297D01*
X001917Y011246D02*
X000516Y011246D01*
X000516Y011126D02*
X000877Y011126D01*
X000906Y011156D02*
X000906Y011370D01*
X000910Y011366D02*
X000516Y011366D01*
X000516Y011486D02*
X000790Y011486D01*
X000786Y011490D02*
X000786Y011036D01*
X000757Y011006D02*
X000516Y011006D01*
X000516Y010886D02*
X000676Y010886D01*
X000676Y010766D02*
X000516Y010766D01*
X000516Y010646D02*
X000676Y010646D01*
X000676Y010526D02*
X000516Y010526D01*
X000516Y010406D02*
X000757Y010406D01*
X000786Y010377D02*
X000786Y010036D01*
X000797Y010046D02*
X000516Y010046D01*
X000516Y009926D02*
X000677Y009926D01*
X000676Y009806D02*
X000516Y009806D01*
X000516Y009686D02*
X000676Y009686D01*
X000676Y009566D02*
X000516Y009566D01*
X000516Y008966D02*
X000717Y008966D01*
X000676Y008846D02*
X000516Y008846D01*
X000516Y008726D02*
X000676Y008726D01*
X000676Y008606D02*
X000516Y008606D01*
X000516Y008486D02*
X000677Y008486D01*
X000786Y008377D02*
X000786Y008036D01*
X000757Y008006D02*
X000516Y008006D01*
X000516Y007886D02*
X000676Y007886D01*
X000676Y007766D02*
X000516Y007766D01*
X000516Y007646D02*
X000676Y007646D01*
X000676Y007526D02*
X000516Y007526D01*
X000987Y007176D02*
X001426Y007176D01*
X001706Y007457D01*
X001386Y007176D02*
X001386Y007156D01*
X001266Y007156D02*
X001266Y007176D01*
X001146Y007176D02*
X001146Y007156D01*
X001156Y007046D02*
X001256Y007046D01*
X001256Y006926D02*
X001156Y006926D01*
X001026Y007156D02*
X001026Y007176D01*
X001386Y006756D02*
X001386Y006656D01*
X001506Y006656D02*
X001506Y006756D01*
X001656Y006566D02*
X001676Y006566D01*
X001706Y005457D02*
X001957Y005206D01*
X001706Y004956D01*
X001456Y005206D01*
X001706Y005457D01*
X001746Y005417D02*
X001746Y004996D01*
X001757Y005006D02*
X001656Y005006D01*
X001626Y005036D02*
X001626Y005377D01*
X001616Y005366D02*
X001797Y005366D01*
X001866Y005297D02*
X001866Y005116D01*
X001877Y005126D02*
X001536Y005126D01*
X001506Y005156D02*
X001506Y005257D01*
X001496Y005246D02*
X001917Y005246D01*
X001706Y004457D02*
X001957Y004206D01*
X001706Y003956D01*
X001456Y004206D01*
X001706Y004457D01*
X001746Y004417D02*
X001746Y003996D01*
X001797Y004046D02*
X001616Y004046D01*
X001626Y004036D02*
X001626Y004377D01*
X001656Y004406D02*
X001757Y004406D01*
X001866Y004297D02*
X001866Y004116D01*
X001917Y004166D02*
X001496Y004166D01*
X001506Y004156D02*
X001506Y004257D01*
X001536Y004286D02*
X001877Y004286D01*
X001717Y003446D02*
X001696Y003446D01*
X001746Y003417D02*
X001746Y002996D01*
X001717Y002966D02*
X001583Y002966D01*
X001676Y002926D02*
X001957Y003206D01*
X001676Y002846D02*
X001656Y002846D01*
X001506Y002756D02*
X001506Y002656D01*
X001386Y002656D02*
X001386Y002756D01*
X001256Y002846D02*
X001156Y002846D01*
X001156Y002966D02*
X001256Y002966D01*
X001256Y003086D02*
X001156Y003086D01*
X001146Y003156D02*
X001146Y003176D01*
X001026Y003176D02*
X001026Y003156D01*
X001266Y003156D02*
X001266Y003176D01*
X001386Y003176D02*
X001386Y003156D01*
X001026Y002756D02*
X001026Y002656D01*
X000906Y002656D02*
X000906Y002756D01*
X001156Y002486D02*
X001256Y002486D01*
X001256Y002366D02*
X001156Y002366D01*
X001146Y002256D02*
X001146Y002236D01*
X001026Y002236D02*
X001026Y002256D01*
X001266Y002236D02*
X001266Y002256D01*
X001386Y002256D02*
X001386Y002236D01*
X001736Y001886D02*
X001756Y001886D01*
X001756Y001766D02*
X001736Y001766D01*
X001736Y001646D02*
X001756Y001646D01*
X001866Y001656D02*
X001866Y001756D01*
X001986Y001756D02*
X001986Y001656D01*
X002106Y001656D02*
X002106Y001756D01*
X002156Y001766D02*
X002256Y001766D01*
X002226Y001757D02*
X002226Y002176D01*
X002256Y002006D02*
X002156Y002006D01*
X002156Y001886D02*
X002256Y001886D01*
X002346Y001756D02*
X002346Y001656D01*
X002256Y001646D02*
X002156Y001646D01*
X002226Y001656D02*
X002226Y000416D01*
X002106Y000416D02*
X002106Y001256D01*
X002156Y001286D02*
X002256Y001286D01*
X002346Y001256D02*
X002346Y000416D01*
X002466Y000416D02*
X002466Y001330D01*
X002423Y001286D02*
X008277Y001286D01*
X008346Y001276D02*
X008346Y000416D01*
X008226Y000416D02*
X008226Y001337D01*
X008157Y001406D02*
X002543Y001406D01*
X002586Y001450D02*
X002586Y000416D01*
X002256Y001406D02*
X002156Y001406D01*
X002156Y001526D02*
X002256Y001526D01*
X002466Y001656D02*
X002466Y001756D01*
X002586Y001756D02*
X002586Y001656D01*
X002656Y001646D02*
X007976Y001646D01*
X007986Y001577D02*
X007986Y000416D01*
X008106Y000416D02*
X008106Y001457D01*
X008037Y001526D02*
X002656Y001526D01*
X002656Y001766D02*
X007976Y001766D01*
X007976Y001886D02*
X002656Y001886D01*
X002466Y002083D02*
X002466Y002217D01*
X002496Y002246D02*
X003046Y002246D01*
X002826Y002606D02*
X002736Y002606D01*
X002736Y002726D02*
X002826Y002726D01*
X001756Y001526D02*
X001736Y001526D01*
X002736Y006566D02*
X015276Y006566D01*
X015426Y006776D02*
X015426Y007037D01*
X012186Y003236D02*
X012186Y022177D01*
X012197Y022166D02*
X011816Y022166D01*
X011826Y022177D02*
X011826Y003236D01*
X011856Y003206D02*
X012157Y003206D01*
X012066Y003116D02*
X012066Y022297D01*
X012077Y022286D02*
X011936Y022286D01*
X011946Y022297D02*
X011946Y003116D01*
X011976Y003086D02*
X012037Y003086D01*
X011257Y002306D02*
X011006Y002056D01*
X010756Y002306D01*
X011006Y002557D01*
X011257Y002306D01*
X011226Y002276D02*
X011226Y002337D01*
X011197Y002366D02*
X010816Y002366D01*
X010866Y002417D02*
X010866Y002196D01*
X010816Y002246D02*
X011197Y002246D01*
X011106Y002156D02*
X011106Y002457D01*
X011077Y002486D02*
X010936Y002486D01*
X010986Y002537D02*
X010986Y002076D01*
X010936Y002126D02*
X011077Y002126D01*
X010986Y001537D02*
X010986Y000416D01*
X010866Y000416D02*
X010866Y001417D01*
X010856Y001406D02*
X011157Y001406D01*
X011106Y001457D02*
X011106Y000416D01*
X011226Y000416D02*
X011226Y001337D01*
X011277Y001286D02*
X010736Y001286D01*
X010746Y001297D02*
X010746Y000416D01*
X010626Y000416D02*
X010626Y001276D01*
X010506Y001276D02*
X010506Y000416D01*
X010386Y000416D02*
X010386Y001276D01*
X010277Y001286D02*
X009736Y001286D01*
X009666Y001276D02*
X009666Y000416D01*
X009546Y000416D02*
X009546Y001276D01*
X009426Y001276D02*
X009426Y000416D01*
X009306Y000416D02*
X009306Y001276D01*
X009277Y001286D02*
X008736Y001286D01*
X008706Y001276D02*
X008706Y000416D01*
X008586Y000416D02*
X008586Y001276D01*
X008466Y001276D02*
X008466Y000416D01*
X008826Y000416D02*
X008826Y001377D01*
X008856Y001406D02*
X009157Y001406D01*
X009186Y001377D02*
X009186Y000416D01*
X009066Y000416D02*
X009066Y001497D01*
X009037Y001526D02*
X008976Y001526D01*
X008946Y001497D02*
X008946Y000416D01*
X009786Y000416D02*
X009786Y001337D01*
X009856Y001406D02*
X010157Y001406D01*
X010146Y001417D02*
X010146Y000416D01*
X010026Y000416D02*
X010026Y001537D01*
X010037Y001526D02*
X009976Y001526D01*
X009906Y001457D02*
X009906Y000416D01*
X010266Y000416D02*
X010266Y001297D01*
X010006Y002056D02*
X009756Y002306D01*
X010006Y002557D01*
X010257Y002306D01*
X010006Y002056D01*
X010026Y002076D02*
X010026Y002537D01*
X010077Y002486D02*
X009936Y002486D01*
X009906Y002457D02*
X009906Y002156D01*
X009936Y002126D02*
X010077Y002126D01*
X010146Y002196D02*
X010146Y002417D01*
X010197Y002366D02*
X009816Y002366D01*
X009786Y002337D02*
X009786Y002276D01*
X009816Y002246D02*
X010197Y002246D01*
X010026Y003076D02*
X010026Y022337D01*
X010077Y022286D02*
X009936Y022286D01*
X009906Y022257D02*
X009906Y003156D01*
X009856Y003206D02*
X010157Y003206D01*
X010146Y003196D02*
X010146Y022217D01*
X010197Y022166D02*
X009816Y022166D01*
X009786Y022137D02*
X009786Y003276D01*
X009976Y003086D02*
X010037Y003086D01*
X010266Y003316D02*
X010266Y022097D01*
X010006Y022856D02*
X010257Y023106D01*
X010006Y023357D01*
X009756Y023106D01*
X010006Y022856D01*
X010026Y022876D02*
X010026Y023337D01*
X010117Y023246D02*
X009896Y023246D01*
X009906Y023257D02*
X009906Y022956D01*
X009856Y023006D02*
X010157Y023006D01*
X010146Y022996D02*
X010146Y023217D01*
X010237Y023126D02*
X009776Y023126D01*
X009786Y023137D02*
X009786Y023076D01*
X009976Y022886D02*
X010037Y022886D01*
X010756Y023106D02*
X011006Y023357D01*
X011257Y023106D01*
X011006Y022856D01*
X010756Y023106D01*
X010776Y023126D02*
X011237Y023126D01*
X011226Y023137D02*
X011226Y023076D01*
X011157Y023006D02*
X010856Y023006D01*
X010866Y022996D02*
X010866Y023217D01*
X010896Y023246D02*
X011117Y023246D01*
X011106Y023257D02*
X011106Y022956D01*
X011037Y022886D02*
X010976Y022886D01*
X010986Y022876D02*
X010986Y023337D01*
X010986Y023876D02*
X010986Y025593D01*
X010866Y025593D02*
X010866Y023996D01*
X010896Y023966D02*
X011117Y023966D01*
X011106Y023956D02*
X011106Y025593D01*
X011946Y025593D02*
X011946Y023916D01*
X011896Y023966D02*
X012117Y023966D01*
X012066Y023916D02*
X012066Y025593D01*
X012186Y025593D02*
X012186Y024036D01*
X012006Y023357D02*
X012257Y023106D01*
X012006Y022856D01*
X011756Y023106D01*
X012006Y023357D01*
X011946Y023297D02*
X011946Y022916D01*
X011976Y022886D02*
X012037Y022886D01*
X012066Y022916D02*
X012066Y023297D01*
X012117Y023246D02*
X011896Y023246D01*
X011826Y023177D02*
X011826Y023036D01*
X011856Y023006D02*
X012157Y023006D01*
X012186Y023036D02*
X012186Y023177D01*
X012237Y023126D02*
X011776Y023126D01*
X009237Y023126D02*
X008736Y023126D01*
X008706Y023136D02*
X008706Y023170D01*
X008783Y023246D02*
X009117Y023246D01*
X009066Y023297D02*
X009066Y022916D01*
X009037Y022886D02*
X008976Y022886D01*
X008946Y022916D02*
X008946Y023410D01*
X008903Y023366D02*
X008997Y023366D01*
X008976Y023486D02*
X008956Y023486D01*
X008946Y023556D02*
X008946Y023656D01*
X008976Y023606D02*
X008557Y023606D01*
X008586Y023556D02*
X008586Y023656D01*
X008556Y023726D02*
X008456Y023726D01*
X008466Y023657D02*
X008466Y025593D01*
X008346Y025593D02*
X008346Y024056D01*
X008456Y023966D02*
X008556Y023966D01*
X008586Y024056D02*
X008586Y025593D01*
X008706Y025593D02*
X008706Y024043D01*
X008783Y023966D02*
X009117Y023966D01*
X009066Y023916D02*
X009066Y025593D01*
X008946Y025593D02*
X008946Y023803D01*
X008903Y023846D02*
X008997Y023846D01*
X008976Y023726D02*
X008956Y023726D01*
X008826Y023656D02*
X008826Y023556D01*
X008706Y023556D02*
X008706Y023656D01*
X008556Y023486D02*
X008456Y023486D01*
X008456Y023366D02*
X008556Y023366D01*
X008556Y023246D02*
X008456Y023246D01*
X008586Y023156D02*
X008586Y023136D01*
X008826Y023036D02*
X008826Y023290D01*
X008856Y023006D02*
X009157Y023006D01*
X009186Y023036D02*
X009186Y023177D01*
X008826Y023923D02*
X008826Y025593D01*
X008556Y023846D02*
X008456Y023846D01*
X008346Y023656D02*
X008346Y023556D01*
X008226Y023556D02*
X008226Y023656D01*
X008946Y022297D02*
X008946Y003116D01*
X008976Y003086D02*
X009037Y003086D01*
X009066Y003116D02*
X009066Y022297D01*
X009077Y022286D02*
X008936Y022286D01*
X008826Y022177D02*
X008826Y003236D01*
X008856Y003206D02*
X009157Y003206D01*
X009186Y003236D02*
X009186Y022177D01*
X009197Y022166D02*
X008816Y022166D01*
X002466Y020217D02*
X002466Y020196D01*
X001957Y020206D02*
X001706Y019956D01*
X001456Y020206D01*
X001706Y020457D01*
X001957Y020206D01*
X001917Y020246D02*
X001496Y020246D01*
X001506Y020257D02*
X001506Y020156D01*
X001536Y020126D02*
X001877Y020126D01*
X001866Y020116D02*
X001866Y020297D01*
X001797Y020366D02*
X001616Y020366D01*
X001626Y020377D02*
X001626Y020036D01*
X001656Y020006D02*
X001757Y020006D01*
X001746Y019996D02*
X001746Y020417D01*
X001717Y020966D02*
X001696Y020966D01*
X001706Y019457D02*
X001957Y019206D01*
X001706Y018956D01*
X001456Y019206D01*
X001706Y019457D01*
X001746Y019417D02*
X001746Y018996D01*
X001797Y019046D02*
X001616Y019046D01*
X001626Y019036D02*
X001626Y019377D01*
X001656Y019406D02*
X001757Y019406D01*
X001866Y019297D02*
X001866Y019116D01*
X001917Y019166D02*
X001496Y019166D01*
X001506Y019156D02*
X001506Y019257D01*
X001536Y019286D02*
X001877Y019286D01*
X002466Y019217D02*
X002466Y019196D01*
X001837Y018326D02*
X001576Y018326D01*
X001626Y018377D02*
X001626Y018036D01*
X001576Y018086D02*
X001837Y018086D01*
X001866Y018116D02*
X001866Y018297D01*
X001957Y018206D02*
X001456Y018206D01*
X001706Y017956D01*
X001957Y018206D01*
X001706Y018457D01*
X001456Y018206D01*
X001506Y018156D02*
X001506Y018257D01*
X001696Y018446D02*
X001717Y018446D01*
X001746Y018417D02*
X001746Y017996D01*
X001717Y017966D02*
X001696Y017966D01*
X001706Y017457D02*
X001957Y017206D01*
X001676Y016926D01*
X001676Y016487D01*
X001957Y016206D01*
X001706Y015956D01*
X001426Y016236D01*
X000987Y016236D01*
X000676Y015926D01*
X000676Y015487D01*
X000957Y015206D01*
X000516Y015206D01*
X000516Y015086D02*
X000837Y015086D01*
X000786Y015036D02*
X000786Y015377D01*
X000837Y015326D02*
X000516Y015326D01*
X000516Y015446D02*
X000717Y015446D01*
X000676Y015566D02*
X000516Y015566D01*
X000516Y015686D02*
X000676Y015686D01*
X000676Y015806D02*
X000516Y015806D01*
X000516Y015926D02*
X000677Y015926D01*
X000786Y016036D02*
X000786Y016490D01*
X000756Y016520D02*
X001020Y016256D01*
X001156Y016256D01*
X001156Y016656D01*
X000756Y016656D01*
X000756Y016520D01*
X000756Y016526D02*
X000516Y016526D01*
X000516Y016406D02*
X000870Y016406D01*
X000906Y016370D02*
X000906Y016156D01*
X000917Y016166D02*
X000516Y016166D01*
X000516Y016046D02*
X000797Y016046D01*
X001026Y016236D02*
X001026Y016256D01*
X000990Y016286D02*
X000516Y016286D01*
X000516Y016646D02*
X000756Y016646D01*
X000786Y016656D02*
X000786Y016756D01*
X000756Y016756D02*
X001156Y016756D01*
X001156Y016656D01*
X001256Y016656D01*
X001256Y016256D01*
X001393Y016256D01*
X001656Y016520D01*
X001656Y016656D01*
X001257Y016656D01*
X001257Y016756D01*
X001656Y016756D01*
X001656Y016893D01*
X001393Y017156D01*
X001256Y017156D01*
X001256Y016757D01*
X001156Y016757D01*
X001156Y017156D01*
X001020Y017156D01*
X000756Y016893D01*
X000756Y016756D01*
X000756Y016766D02*
X000516Y016766D01*
X000516Y016886D02*
X000756Y016886D01*
X000786Y016923D02*
X000786Y017377D01*
X000797Y017366D02*
X000516Y017366D01*
X000516Y017246D02*
X000917Y017246D01*
X000906Y017257D02*
X000906Y017043D01*
X000870Y017006D02*
X000516Y017006D01*
X000516Y017126D02*
X000990Y017126D01*
X001026Y017156D02*
X001026Y017176D01*
X000987Y017176D02*
X001426Y017176D01*
X001706Y017457D01*
X001746Y017417D02*
X001746Y016996D01*
X001757Y017006D02*
X001543Y017006D01*
X001506Y017043D02*
X001506Y017257D01*
X001496Y017246D02*
X001917Y017246D01*
X001866Y017297D02*
X001866Y017116D01*
X001877Y017126D02*
X001423Y017126D01*
X001386Y017156D02*
X001386Y017176D01*
X001266Y017176D02*
X001266Y017156D01*
X001256Y017126D02*
X001156Y017126D01*
X001146Y017156D02*
X001146Y017176D01*
X000987Y017176D02*
X000676Y017487D01*
X000676Y017926D01*
X000957Y018206D01*
X000906Y018156D02*
X000906Y018257D01*
X000717Y017966D02*
X000516Y017966D01*
X000516Y017846D02*
X000676Y017846D01*
X000676Y017726D02*
X000516Y017726D01*
X000516Y017606D02*
X000676Y017606D01*
X000677Y017486D02*
X000516Y017486D01*
X000906Y016756D02*
X000906Y016656D01*
X001026Y016656D02*
X001026Y016756D01*
X001146Y016756D02*
X001146Y016656D01*
X001156Y016646D02*
X001256Y016646D01*
X001266Y016656D02*
X001266Y016756D01*
X001256Y016766D02*
X001156Y016766D01*
X001156Y016886D02*
X001256Y016886D01*
X001256Y017006D02*
X001156Y017006D01*
X001386Y016756D02*
X001386Y016656D01*
X001506Y016656D02*
X001506Y016756D01*
X001626Y016756D02*
X001626Y016656D01*
X001656Y016646D02*
X001676Y016646D01*
X001676Y016526D02*
X001656Y016526D01*
X001626Y016490D02*
X001626Y016036D01*
X001616Y016046D02*
X001797Y016046D01*
X001746Y015996D02*
X001746Y016417D01*
X001757Y016406D02*
X001543Y016406D01*
X001506Y016370D02*
X001506Y016156D01*
X001496Y016166D02*
X001917Y016166D01*
X001866Y016116D02*
X001866Y016297D01*
X001877Y016286D02*
X001423Y016286D01*
X001386Y016256D02*
X001386Y016236D01*
X001266Y016236D02*
X001266Y016256D01*
X001256Y016286D02*
X001156Y016286D01*
X001146Y016256D02*
X001146Y016236D01*
X001156Y016406D02*
X001256Y016406D01*
X001256Y016526D02*
X001156Y016526D01*
X001656Y016766D02*
X001676Y016766D01*
X001676Y016886D02*
X001656Y016886D01*
X001626Y016923D02*
X001626Y017377D01*
X001616Y017366D02*
X001797Y017366D01*
X001706Y015457D02*
X001957Y015206D01*
X001456Y015206D01*
X001706Y014956D01*
X001957Y015206D01*
X001866Y015116D02*
X001866Y015297D01*
X001837Y015326D02*
X001576Y015326D01*
X001626Y015377D02*
X001626Y015036D01*
X001576Y015086D02*
X001837Y015086D01*
X001746Y014996D02*
X001746Y015417D01*
X001717Y015446D02*
X001696Y015446D01*
X001706Y015457D02*
X001456Y015206D01*
X001506Y015156D02*
X001506Y015257D01*
X001696Y014966D02*
X001717Y014966D01*
X001706Y014457D02*
X001957Y014206D01*
X001706Y013956D01*
X001456Y014206D01*
X001706Y014457D01*
X001746Y014417D02*
X001746Y013996D01*
X001757Y014006D02*
X001656Y014006D01*
X001626Y014036D02*
X001626Y014377D01*
X001616Y014366D02*
X001797Y014366D01*
X001866Y014297D02*
X001866Y014116D01*
X001877Y014126D02*
X001536Y014126D01*
X001506Y014156D02*
X001506Y014257D01*
X001496Y014246D02*
X001917Y014246D01*
X001706Y013457D02*
X001957Y013206D01*
X001706Y012956D01*
X001456Y013206D01*
X001706Y013457D01*
X001746Y013417D02*
X001746Y012996D01*
X001797Y013046D02*
X001616Y013046D01*
X001626Y013036D02*
X001626Y013377D01*
X001656Y013406D02*
X001757Y013406D01*
X001866Y013297D02*
X001866Y013116D01*
X001917Y013166D02*
X001496Y013166D01*
X001506Y013156D02*
X001506Y013257D01*
X001536Y013286D02*
X001877Y013286D01*
X001717Y012446D02*
X001696Y012446D01*
X001746Y012417D02*
X001746Y011996D01*
X001717Y011966D02*
X001583Y011966D01*
X001506Y012043D02*
X001506Y012257D01*
X001426Y012176D02*
X000987Y012176D01*
X000676Y012487D01*
X000676Y012926D01*
X000957Y013206D01*
X000676Y013487D01*
X000676Y013926D01*
X000957Y014206D01*
X000676Y014487D01*
X000676Y014926D01*
X000957Y015206D01*
X000906Y015156D02*
X000906Y015257D01*
X000717Y014966D02*
X000516Y014966D01*
X000516Y014846D02*
X000676Y014846D01*
X000676Y014726D02*
X000516Y014726D01*
X000516Y014606D02*
X000676Y014606D01*
X000677Y014486D02*
X000516Y014486D01*
X000516Y014366D02*
X000797Y014366D01*
X000786Y014377D02*
X000786Y014036D01*
X000757Y014006D02*
X000516Y014006D01*
X000516Y013886D02*
X000676Y013886D01*
X000676Y013766D02*
X000516Y013766D01*
X000516Y013646D02*
X000676Y013646D01*
X000676Y013526D02*
X000516Y013526D01*
X000516Y013406D02*
X000757Y013406D01*
X000786Y013377D02*
X000786Y013036D01*
X000797Y013046D02*
X000516Y013046D01*
X000516Y012926D02*
X000677Y012926D01*
X000676Y012806D02*
X000516Y012806D01*
X000516Y012686D02*
X000676Y012686D01*
X000676Y012566D02*
X000516Y012566D01*
X000516Y012446D02*
X000717Y012446D01*
X000786Y012377D02*
X000786Y011923D01*
X000756Y011893D02*
X001020Y012156D01*
X001156Y012156D01*
X001156Y011757D01*
X001156Y011756D02*
X000756Y011756D01*
X000756Y011893D01*
X000756Y011846D02*
X000516Y011846D01*
X000516Y011726D02*
X001156Y011726D01*
X001146Y011756D02*
X001146Y011656D01*
X001156Y011606D02*
X001256Y011606D01*
X001266Y011656D02*
X001266Y011756D01*
X001257Y011726D02*
X001676Y011726D01*
X001506Y011756D02*
X001506Y011656D01*
X001386Y011656D02*
X001386Y011756D01*
X001256Y011846D02*
X001156Y011846D01*
X001156Y011966D02*
X001256Y011966D01*
X001256Y012086D02*
X001156Y012086D01*
X001146Y012156D02*
X001146Y012176D01*
X001026Y012176D02*
X001026Y012156D01*
X000957Y012206D02*
X000516Y012206D01*
X000516Y012086D02*
X000950Y012086D01*
X000906Y012043D02*
X000906Y012257D01*
X000837Y012326D02*
X000516Y012326D01*
X000516Y011966D02*
X000830Y011966D01*
X000786Y011756D02*
X000786Y011656D01*
X000756Y011606D02*
X000516Y011606D01*
X000906Y011656D02*
X000906Y011756D01*
X001026Y011756D02*
X001026Y011656D01*
X001156Y011486D02*
X001256Y011486D01*
X001256Y011366D02*
X001156Y011366D01*
X001146Y011256D02*
X001146Y011236D01*
X001026Y011236D02*
X001026Y011256D01*
X001266Y011236D02*
X001266Y011256D01*
X001386Y011256D02*
X001386Y011236D01*
X001463Y012086D02*
X001837Y012086D01*
X001386Y012156D02*
X001386Y012176D01*
X001266Y012176D02*
X001266Y012156D01*
X000906Y013156D02*
X000906Y013257D01*
X000877Y013286D02*
X000516Y013286D01*
X000516Y013166D02*
X000917Y013166D01*
X000877Y014126D02*
X000516Y014126D01*
X000516Y014246D02*
X000917Y014246D01*
X000906Y014257D02*
X000906Y014156D01*
X002586Y013337D02*
X002586Y013076D01*
X000877Y010286D02*
X000516Y010286D01*
X000516Y010166D02*
X000917Y010166D01*
X000906Y010156D02*
X000906Y010257D01*
X000797Y008366D02*
X000516Y008366D01*
X000516Y008246D02*
X000917Y008246D01*
X000906Y008257D02*
X000906Y008156D01*
X000877Y008126D02*
X000516Y008126D01*
X008756Y002306D02*
X009006Y002557D01*
X009257Y002306D01*
X009006Y002056D01*
X008756Y002306D01*
X008816Y002246D02*
X009197Y002246D01*
X009186Y002236D02*
X009186Y002377D01*
X009197Y002366D02*
X008816Y002366D01*
X008826Y002377D02*
X008826Y002236D01*
X008936Y002126D02*
X009077Y002126D01*
X009066Y002116D02*
X009066Y002497D01*
X009077Y002486D02*
X008936Y002486D01*
X008946Y002497D02*
X008946Y002116D01*
X010976Y001526D02*
X011037Y001526D01*
X011346Y001276D02*
X011346Y000416D01*
X011466Y000416D02*
X011466Y001276D01*
X011586Y001276D02*
X011586Y000416D01*
X012456Y001526D02*
X012556Y001526D01*
X012556Y001646D02*
X012456Y001646D01*
X012666Y001756D02*
X012666Y001856D01*
X012786Y001856D02*
X012786Y001756D01*
D13*
X012506Y001806D02*
X012506Y000606D01*
X012406Y000506D01*
X018406Y000506D01*
X018906Y001006D01*
X018906Y010406D01*
X016806Y010406D01*
X018906Y010406D02*
X018906Y019106D01*
X018806Y019006D01*
X016806Y019006D01*
X018906Y019106D02*
X018906Y025206D01*
X018506Y025606D01*
X008606Y025606D01*
X008506Y025506D01*
X008506Y023606D01*
X008606Y025606D02*
X000806Y025606D01*
X000506Y025306D01*
X000506Y003006D01*
X000806Y002706D01*
X001206Y002706D01*
X002206Y001706D02*
X002206Y000506D01*
X012406Y000506D01*
M02*
